font.ufo
<glyph name="exclam" format="1">
  <advance width="238"/>
  <unicode hex="0021"/>
  <outline>
    <contour>
      <point x="169" y="139" type="line"/>
      <point x="169" y="150"/>
      <point x="163" y="155"/>
      <point x="153" y="155" type="curve" smooth="yes"/>
      <point x="86" y="155" type="line" smooth="yes"/>
      <point x="75" y="155"/>
      <point x="70" y="150"/>
      <point x="70" y="139" type="curve" smooth="yes"/>
      <point x="70" y="18" type="line" smooth="yes"/>
      <point x="70" y="7"/>
      <point x="75" y="0"/>
      <point x="86" y="0" type="curve" smooth="yes"/>
      <point x="153" y="0" type="line" smooth="yes"/>
      <point x="164" y="0"/>
      <point x="169" y="6"/>
      <point x="169" y="17" type="curve" smooth="yes"/>
    </contour>
    <contour>
      <point x="80" y="239" type="curve" smooth="yes"/>
      <point x="82" y="226"/>
      <point x="87" y="221"/>
      <point x="98" y="221" type="curve" smooth="yes"/>
      <point x="139" y="221" type="line" smooth="yes"/>
      <point x="150" y="221"/>
      <point x="155" y="226"/>
      <point x="157" y="239" type="curve" smooth="yes"/>
      <point x="158" y="248"/>
      <point x="172" y="396"/>
      <point x="172" y="492" type="curve" smooth="yes"/>
      <point x="172" y="626" type="line" smooth="yes"/>
      <point x="172" y="639"/>
      <point x="166" y="643"/>
      <point x="155" y="643" type="curve" smooth="yes"/>
      <point x="82" y="643" type="line" smooth="yes"/>
      <point x="71" y="643"/>
      <point x="65" y="639"/>
      <point x="65" y="626" type="curve" smooth="yes"/>
      <point x="65" y="492" type="line" smooth="yes"/>
      <point x="65" y="396"/>
      <point x="79" y="248"/>
    </contour>
  </outline>
</glyph>
<glyph name="quotedbl" format="1">
  <advance width="344"/>
  <unicode hex="0022"/>
  <outline>
    <contour>
      <point x="136" y="627" type="line"/>
      <point x="137" y="638"/>
      <point x="132" y="643"/>
      <point x="121" y="643" type="curve" smooth="yes"/>
      <point x="62" y="643" type="line" smooth="yes"/>
      <point x="50" y="643"/>
      <point x="46" y="638"/>
      <point x="47" y="627" type="curve" smooth="yes"/>
      <point x="68" y="441" type="line" smooth="yes"/>
      <point x="69" y="429"/>
      <point x="75" y="422"/>
      <point x="85" y="422" type="curve" smooth="yes"/>
      <point x="97" y="422" type="line" smooth="yes"/>
      <point x="108" y="422"/>
      <point x="113" y="429"/>
      <point x="116" y="440" type="curve" smooth="yes"/>
    </contour>
    <contour>
      <point x="277" y="440" type="line"/>
      <point x="275" y="429"/>
      <point x="270" y="422"/>
      <point x="258" y="422" type="curve" smooth="yes"/>
      <point x="247" y="422" type="line" smooth="yes"/>
      <point x="236" y="422"/>
      <point x="230" y="429"/>
      <point x="230" y="441" type="curve" smooth="yes"/>
      <point x="209" y="627" type="line" smooth="yes"/>
      <point x="207" y="638"/>
      <point x="212" y="643"/>
      <point x="224" y="643" type="curve" smooth="yes"/>
      <point x="283" y="643" type="line" smooth="yes"/>
      <point x="293" y="643"/>
      <point x="299" y="638"/>
      <point x="297" y="627" type="curve" smooth="yes"/>
    </contour>
  </outline>
</glyph>
<glyph name="numbersign" format="1">
  <advance width="672"/>
  <unicode hex="0023"/>
  <outline>
    <contour>
      <point x="345" y="623" type="line"/>
      <point x="349" y="637"/>
      <point x="344" y="643"/>
      <point x="331" y="643" type="curve" smooth="yes"/>
      <point x="285" y="643" type="line" smooth="yes"/>
      <point x="273" y="643"/>
      <point x="268" y="637"/>
      <point x="266" y="625" type="curve" smooth="yes"/>
      <point x="110" y="20" type="line" smooth="yes"/>
      <point x="106" y="6"/>
      <point x="112" y="0"/>
      <point x="123" y="0" type="curve" smooth="yes"/>
      <point x="168" y="0" type="line" smooth="yes"/>
      <point x="181" y="0"/>
      <point x="186" y="5"/>
      <point x="190" y="18" type="curve" smooth="yes"/>
    </contour>
    <contour>
      <point x="630" y="476" type="line"/>
      <point x="630" y="487"/>
      <point x="625" y="493"/>
      <point x="613" y="493" type="curve" smooth="yes"/>
      <point x="116" y="493" type="line" smooth="yes"/>
      <point x="102" y="493"/>
      <point x="98" y="488"/>
      <point x="98" y="476" type="curve" smooth="yes"/>
      <point x="98" y="431" type="line" smooth="yes"/>
      <point x="98" y="419"/>
      <point x="102" y="413"/>
      <point x="116" y="413" type="curve" smooth="yes"/>
      <point x="181" y="413"/>
      <point x="547" y="413"/>
      <point x="613" y="413" type="curve" smooth="yes"/>
      <point x="625" y="413"/>
      <point x="630" y="419"/>
      <point x="630" y="431" type="curve" smooth="yes"/>
    </contour>
    <contour>
      <point x="332" y="20" type="line"/>
      <point x="329" y="6"/>
      <point x="334" y="0"/>
      <point x="346" y="0" type="curve" smooth="yes"/>
      <point x="393" y="0" type="line" smooth="yes"/>
      <point x="405" y="0"/>
      <point x="409" y="6"/>
      <point x="412" y="18" type="curve" smooth="yes"/>
      <point x="568" y="623" type="line" smooth="yes"/>
      <point x="571" y="637"/>
      <point x="566" y="643"/>
      <point x="553" y="643" type="curve" smooth="yes"/>
      <point x="510" y="643" type="line" smooth="yes"/>
      <point x="497" y="643"/>
      <point x="491" y="638"/>
      <point x="488" y="625" type="curve" smooth="yes"/>
    </contour>
    <contour>
      <point x="557" y="150" type="line"/>
      <point x="570" y="150"/>
      <point x="574" y="155"/>
      <point x="574" y="167" type="curve" smooth="yes"/>
      <point x="574" y="212" type="line" smooth="yes"/>
      <point x="574" y="224"/>
      <point x="570" y="230"/>
      <point x="557" y="230" type="curve" smooth="yes"/>
      <point x="491" y="230"/>
      <point x="125" y="230"/>
      <point x="60" y="230" type="curve" smooth="yes"/>
      <point x="47" y="230"/>
      <point x="43" y="224"/>
      <point x="43" y="212" type="curve" smooth="yes"/>
      <point x="43" y="167" type="line" smooth="yes"/>
      <point x="43" y="156"/>
      <point x="47" y="150"/>
      <point x="60" y="150" type="curve" smooth="yes"/>
    </contour>
  </outline>
</glyph>
<glyph name="dollar" format="1">
  <advance width="518"/>
  <unicode hex="0024"/>
  <outline>
    <contour>
      <point x="288" y="-98" type="line"/>
      <point x="300" y="-98"/>
      <point x="305" y="-94"/>
      <point x="305" y="-81" type="curve" smooth="yes"/>
      <point x="305" y="0" type="line"/>
      <point x="310" y="0" type="line" smooth="yes"/>
      <point x="404" y="0"/>
      <point x="464" y="58"/>
      <point x="464" y="156" type="curve" smooth="yes"/>
      <point x="464" y="204" type="line" smooth="yes"/>
      <point x="464" y="330"/>
      <point x="387" y="360"/>
      <point x="308" y="365" type="curve" smooth="yes"/>
      <point x="257" y="367" type="line" smooth="yes"/>
      <point x="194" y="371"/>
      <point x="153" y="383"/>
      <point x="153" y="438" type="curve" smooth="yes"/>
      <point x="153" y="472" type="line" smooth="yes"/>
      <point x="153" y="535"/>
      <point x="175" y="558"/>
      <point x="233" y="558" type="curve" smooth="yes"/>
      <point x="279" y="558" type="line" smooth="yes"/>
      <point x="337" y="558"/>
      <point x="359" y="535"/>
      <point x="359" y="479" type="curve" smooth="yes"/>
      <point x="359" y="466" type="line" smooth="yes"/>
      <point x="359" y="453"/>
      <point x="365" y="448"/>
      <point x="377" y="448" type="curve" smooth="yes"/>
      <point x="440" y="448" type="line" smooth="yes"/>
      <point x="452" y="448"/>
      <point x="457" y="453"/>
      <point x="457" y="466" type="curve" smooth="yes"/>
      <point x="457" y="488" type="line" smooth="yes"/>
      <point x="457" y="584"/>
      <point x="401" y="644"/>
      <point x="310" y="644" type="curve" smooth="yes"/>
      <point x="305" y="644" type="line"/>
      <point x="305" y="726" type="line" smooth="yes"/>
      <point x="305" y="739"/>
      <point x="300" y="743"/>
      <point x="288" y="743" type="curve" smooth="yes"/>
      <point x="242" y="743" type="line" smooth="yes"/>
      <point x="231" y="743"/>
      <point x="225" y="739"/>
      <point x="225" y="726" type="curve" smooth="yes"/>
      <point x="225" y="644" type="line"/>
      <point x="208" y="644" type="line" smooth="yes"/>
      <point x="112" y="644"/>
      <point x="55" y="586"/>
      <point x="55" y="488" type="curve" smooth="yes"/>
      <point x="55" y="441" type="line" smooth="yes"/>
      <point x="55" y="309"/>
      <point x="134" y="284"/>
      <point x="217" y="278" type="curve" smooth="yes"/>
      <point x="262" y="276" type="line" smooth="yes"/>
      <point x="323" y="273"/>
      <point x="366" y="260"/>
      <point x="366" y="200" type="curve" smooth="yes"/>
      <point x="366" y="168" type="line" smooth="yes"/>
      <point x="366" y="109"/>
      <point x="342" y="85"/>
      <point x="286" y="85" type="curve" smooth="yes"/>
      <point x="234" y="85" type="line" smooth="yes"/>
      <point x="176" y="85"/>
      <point x="153" y="108"/>
      <point x="153" y="164" type="curve" smooth="yes"/>
      <point x="153" y="179" type="line" smooth="yes"/>
      <point x="153" y="192"/>
      <point x="148" y="197"/>
      <point x="136" y="197" type="curve" smooth="yes"/>
      <point x="73" y="197" type="line" smooth="yes"/>
      <point x="61" y="197"/>
      <point x="55" y="192"/>
      <point x="55" y="179" type="curve" smooth="yes"/>
      <point x="55" y="156" type="line" smooth="yes"/>
      <point x="55" y="59"/>
      <point x="113" y="0"/>
      <point x="208" y="0" type="curve" smooth="yes"/>
      <point x="225" y="0" type="line"/>
      <point x="225" y="-81" type="line" smooth="yes"/>
      <point x="225" y="-94"/>
      <point x="231" y="-98"/>
      <point x="242" y="-98" type="curve" smooth="yes"/>
    </contour>
  </outline>
</glyph>
<glyph name="percent" format="1">
  <advance width="732"/>
  <unicode hex="0025"/>
  <outline>
    <contour>
      <point x="527" y="624" type="line"/>
      <point x="532" y="637"/>
      <point x="527" y="643"/>
      <point x="515" y="643" type="curve" smooth="yes"/>
      <point x="475" y="643" type="line" smooth="yes"/>
      <point x="463" y="643"/>
      <point x="459" y="638"/>
      <point x="453" y="625" type="curve"/>
      <point x="408" y="510"/>
      <point x="249" y="134"/>
      <point x="204" y="18" type="curve"/>
      <point x="199" y="4"/>
      <point x="204" y="0"/>
      <point x="216" y="0" type="curve" smooth="yes"/>
      <point x="255" y="0" type="line" smooth="yes"/>
      <point x="267" y="0"/>
      <point x="273" y="4"/>
      <point x="278" y="18" type="curve" smooth="yes"/>
    </contour>
    <contour>
      <point x="159" y="645" type="line"/>
      <point x="87" y="645"/>
      <point x="50" y="608"/>
      <point x="50" y="535" type="curve" smooth="yes"/>
      <point x="50" y="453" type="line" smooth="yes"/>
      <point x="50" y="381"/>
      <point x="87" y="343"/>
      <point x="159" y="343" type="curve" smooth="yes"/>
      <point x="205" y="343" type="line" smooth="yes"/>
      <point x="278" y="343"/>
      <point x="314" y="381"/>
      <point x="314" y="453" type="curve" smooth="yes"/>
      <point x="314" y="535" type="line" smooth="yes"/>
      <point x="314" y="608"/>
      <point x="278" y="645"/>
      <point x="205" y="645" type="curve" smooth="yes"/>
    </contour>
    <contour>
      <point x="193" y="587" type="line"/>
      <point x="233" y="587"/>
      <point x="245" y="572"/>
      <point x="245" y="532" type="curve" smooth="yes"/>
      <point x="245" y="456" type="line" smooth="yes"/>
      <point x="245" y="416"/>
      <point x="233" y="401"/>
      <point x="193" y="401" type="curve" smooth="yes"/>
      <point x="172" y="401" type="line" smooth="yes"/>
      <point x="131" y="401"/>
      <point x="119" y="416"/>
      <point x="119" y="456" type="curve" smooth="yes"/>
      <point x="119" y="532" type="line" smooth="yes"/>
      <point x="119" y="572"/>
      <point x="131" y="587"/>
      <point x="172" y="587" type="curve" smooth="yes"/>
    </contour>
    <contour>
      <point x="526" y="302" type="line"/>
      <point x="454" y="302"/>
      <point x="417" y="265"/>
      <point x="417" y="192" type="curve" smooth="yes"/>
      <point x="417" y="110" type="line" smooth="yes"/>
      <point x="417" y="38"/>
      <point x="454" y="0"/>
      <point x="526" y="0" type="curve" smooth="yes"/>
      <point x="572" y="0" type="line" smooth="yes"/>
      <point x="645" y="0"/>
      <point x="681" y="38"/>
      <point x="681" y="110" type="curve" smooth="yes"/>
      <point x="681" y="192" type="line" smooth="yes"/>
      <point x="681" y="265"/>
      <point x="645" y="302"/>
      <point x="572" y="302" type="curve" smooth="yes"/>
    </contour>
    <contour>
      <point x="560" y="244" type="line"/>
      <point x="601" y="244"/>
      <point x="613" y="229"/>
      <point x="613" y="189" type="curve" smooth="yes"/>
      <point x="613" y="114" type="line" smooth="yes"/>
      <point x="613" y="74"/>
      <point x="601" y="58"/>
      <point x="560" y="58" type="curve" smooth="yes"/>
      <point x="540" y="58" type="line" smooth="yes"/>
      <point x="498" y="58"/>
      <point x="487" y="74"/>
      <point x="487" y="114" type="curve" smooth="yes"/>
      <point x="487" y="189" type="line" smooth="yes"/>
      <point x="487" y="229"/>
      <point x="498" y="244"/>
      <point x="540" y="244" type="curve" smooth="yes"/>
    </contour>
  </outline>
</glyph>
<glyph name="ampersand" format="1">
  <advance width="610"/>
  <unicode hex="0026"/>
  <outline>
    <contour>
      <point x="220" y="86" type="line"/>
      <point x="169" y="86"/>
      <point x="145" y="109"/>
      <point x="145" y="159" type="curve" smooth="yes"/>
      <point x="145" y="216" type="line" smooth="yes"/>
      <point x="145" y="268"/>
      <point x="163" y="292"/>
      <point x="203" y="294" type="curve"/>
      <point x="338" y="137" type="line"/>
      <point x="333" y="102"/>
      <point x="312" y="86"/>
      <point x="275" y="86" type="curve" smooth="yes"/>
    </contour>
    <contour>
      <point x="446" y="12" type="line"/>
      <point x="453" y="3"/>
      <point x="464" y="0"/>
      <point x="475" y="0" type="curve" smooth="yes"/>
      <point x="555" y="0" type="line" smooth="yes"/>
      <point x="564" y="0"/>
      <point x="565" y="8"/>
      <point x="560" y="14" type="curve" smooth="yes"/>
      <point x="381" y="226" type="line"/>
      <point x="538" y="226" type="line" smooth="yes"/>
      <point x="551" y="226"/>
      <point x="555" y="231"/>
      <point x="555" y="243" type="curve" smooth="yes"/>
      <point x="555" y="294" type="line" smooth="yes"/>
      <point x="555" y="305"/>
      <point x="550" y="312"/>
      <point x="538" y="312" type="curve" smooth="yes"/>
      <point x="495" y="312"/>
      <point x="351" y="312"/>
      <point x="309" y="312" type="curve"/>
      <point x="256" y="373" type="line"/>
      <point x="230" y="402"/>
      <point x="212" y="432"/>
      <point x="212" y="467" type="curve" smooth="yes"/>
      <point x="212" y="488" type="line" smooth="yes"/>
      <point x="212" y="538"/>
      <point x="235" y="560"/>
      <point x="282" y="560" type="curve" smooth="yes"/>
      <point x="294" y="560" type="line" smooth="yes"/>
      <point x="338" y="560"/>
      <point x="361" y="538"/>
      <point x="361" y="488" type="curve" smooth="yes"/>
      <point x="361" y="451" type="line" smooth="yes"/>
      <point x="361" y="439"/>
      <point x="366" y="433"/>
      <point x="378" y="433" type="curve" smooth="yes"/>
      <point x="441" y="433" type="line" smooth="yes"/>
      <point x="453" y="433"/>
      <point x="458" y="439"/>
      <point x="458" y="451" type="curve" smooth="yes"/>
      <point x="458" y="490" type="line" smooth="yes"/>
      <point x="458" y="588"/>
      <point x="400" y="643"/>
      <point x="303" y="643" type="curve" smooth="yes"/>
      <point x="273" y="643" type="line" smooth="yes"/>
      <point x="176" y="643"/>
      <point x="112" y="588"/>
      <point x="112" y="490" type="curve" smooth="yes"/>
      <point x="112" y="469" type="line" smooth="yes"/>
      <point x="112" y="422"/>
      <point x="126" y="387"/>
      <point x="153" y="352" type="curve"/>
      <point x="82" y="346"/>
      <point x="51" y="282"/>
      <point x="51" y="222" type="curve" smooth="yes"/>
      <point x="51" y="153" type="line" smooth="yes"/>
      <point x="51" y="55"/>
      <point x="109" y="0"/>
      <point x="206" y="0" type="curve" smooth="yes"/>
      <point x="275" y="0" type="line" smooth="yes"/>
      <point x="342" y="0"/>
      <point x="381" y="22"/>
      <point x="397" y="70" type="curve"/>
    </contour>
  </outline>
</glyph>
<glyph name="quotesingle" format="1">
  <advance width="187"/>
  <unicode hex="0027"/>
  <outline>
    <contour>
      <point x="137" y="605" type="line"/>
      <point x="139" y="615"/>
      <point x="133" y="619"/>
      <point x="122" y="619" type="curve" smooth="yes"/>
      <point x="65" y="619" type="line" smooth="yes"/>
      <point x="53" y="619"/>
      <point x="48" y="615"/>
      <point x="50" y="605" type="curve" smooth="yes"/>
      <point x="69" y="463" type="line" smooth="yes"/>
      <point x="70" y="452"/>
      <point x="76" y="447"/>
      <point x="87" y="447" type="curve" smooth="yes"/>
      <point x="100" y="447" type="line" smooth="yes"/>
      <point x="111" y="447"/>
      <point x="116" y="452"/>
      <point x="118" y="462" type="curve"/>
    </contour>
  </outline>
</glyph>
<glyph name="parenleft" format="1">
  <advance width="297"/>
  <unicode hex="0028"/>
  <outline>
    <contour>
      <point x="239" y="587" type="line"/>
      <point x="239" y="577"/>
      <point x="236" y="572"/>
      <point x="223" y="572" type="curve" smooth="yes"/>
      <point x="222" y="572"/>
      <point x="220" y="572"/>
      <point x="219" y="572" type="curve" smooth="yes"/>
      <point x="161" y="572"/>
      <point x="129" y="535"/>
      <point x="129" y="458" type="curve" smooth="yes"/>
      <point x="129" y="83" type="line" smooth="yes"/>
      <point x="129" y="6"/>
      <point x="163" y="-31"/>
      <point x="221" y="-31" type="curve" smooth="yes"/>
      <point x="220" y="-31"/>
      <point x="222" y="-31"/>
      <point x="223" y="-31" type="curve" smooth="yes"/>
      <point x="236" y="-31"/>
      <point x="239" y="-36"/>
      <point x="239" y="-46" type="curve" smooth="yes"/>
      <point x="239" y="-89" type="line" smooth="yes"/>
      <point x="239" y="-99"/>
      <point x="236" y="-102"/>
      <point x="223" y="-102" type="curve" smooth="yes"/>
      <point x="222" y="-102"/>
      <point x="220" y="-102"/>
      <point x="219" y="-102" type="curve" smooth="yes"/>
      <point x="117" y="-102"/>
      <point x="48" y="-43"/>
      <point x="48" y="94" type="curve" smooth="yes"/>
      <point x="48" y="448" type="line" smooth="yes"/>
      <point x="48" y="584"/>
      <point x="118" y="643"/>
      <point x="220" y="643" type="curve" smooth="yes"/>
      <point x="221" y="643"/>
      <point x="222" y="643"/>
      <point x="223" y="643" type="curve" smooth="yes"/>
      <point x="236" y="643"/>
      <point x="239" y="640"/>
      <point x="239" y="630" type="curve" smooth="yes"/>
    </contour>
  </outline>
</glyph>
<glyph name="parenright" format="1">
  <advance width="297"/>
  <unicode hex="0029"/>
  <outline>
    <contour>
      <point x="48" y="-89" type="line"/>
      <point x="48" y="-99"/>
      <point x="52" y="-102"/>
      <point x="64" y="-102" type="curve" smooth="yes"/>
      <point x="64" y="-102"/>
      <point x="65" y="-102"/>
      <point x="66" y="-102" type="curve" smooth="yes"/>
      <point x="168" y="-102"/>
      <point x="239" y="-43"/>
      <point x="239" y="94" type="curve" smooth="yes"/>
      <point x="239" y="448" type="line" smooth="yes"/>
      <point x="239" y="584"/>
      <point x="168" y="643"/>
      <point x="66" y="643" type="curve" smooth="yes"/>
      <point x="65" y="643"/>
      <point x="64" y="643"/>
      <point x="64" y="643" type="curve" smooth="yes"/>
      <point x="52" y="643"/>
      <point x="48" y="640"/>
      <point x="48" y="630" type="curve" smooth="yes"/>
      <point x="48" y="587" type="line" smooth="yes"/>
      <point x="48" y="577"/>
      <point x="52" y="572"/>
      <point x="64" y="572" type="curve" smooth="yes"/>
      <point x="64" y="572"/>
      <point x="65" y="572"/>
      <point x="66" y="572" type="curve" smooth="yes"/>
      <point x="123" y="572"/>
      <point x="158" y="535"/>
      <point x="158" y="458" type="curve" smooth="yes"/>
      <point x="158" y="83" type="line" smooth="yes"/>
      <point x="158" y="6"/>
      <point x="123" y="-31"/>
      <point x="66" y="-31" type="curve" smooth="yes"/>
      <point x="65" y="-31"/>
      <point x="64" y="-31"/>
      <point x="64" y="-31" type="curve" smooth="yes"/>
      <point x="52" y="-31"/>
      <point x="48" y="-36"/>
      <point x="48" y="-46" type="curve" smooth="yes"/>
    </contour>
  </outline>
</glyph>
<glyph name="asterisk" format="1">
  <advance width="401"/>
  <unicode hex="002A"/>
  <outline>
    <contour>
      <point x="235" y="627" type="line"/>
      <point x="235" y="639"/>
      <point x="230" y="643"/>
      <point x="219" y="643" type="curve" smooth="yes"/>
      <point x="180" y="643" type="line" smooth="yes"/>
      <point x="169" y="643"/>
      <point x="163" y="639"/>
      <point x="163" y="627" type="curve" smooth="yes"/>
      <point x="163" y="616" type="line" smooth="yes"/>
      <point x="163" y="553"/>
      <point x="199" y="498"/>
      <point x="201" y="492" type="curve"/>
      <point x="204" y="498"/>
      <point x="235" y="553"/>
      <point x="235" y="616" type="curve" smooth="yes"/>
    </contour>
    <contour>
      <point x="94" y="403" type="line"/>
      <point x="86" y="393"/>
      <point x="89" y="385"/>
      <point x="98" y="380" type="curve" smooth="yes"/>
      <point x="129" y="357" type="line" smooth="yes"/>
      <point x="138" y="351"/>
      <point x="146" y="351"/>
      <point x="152" y="359" type="curve" smooth="yes"/>
      <point x="159" y="369" type="line" smooth="yes"/>
      <point x="196" y="420"/>
      <point x="199" y="486"/>
      <point x="201" y="492" type="curve"/>
      <point x="195" y="489"/>
      <point x="137" y="463"/>
      <point x="100" y="412" type="curve" smooth="yes"/>
    </contour>
    <contour>
      <point x="84" y="565" type="line"/>
      <point x="72" y="570"/>
      <point x="66" y="565"/>
      <point x="63" y="556" type="curve" smooth="yes"/>
      <point x="51" y="518" type="line" smooth="yes"/>
      <point x="47" y="508"/>
      <point x="50" y="501"/>
      <point x="60" y="497" type="curve" smooth="yes"/>
      <point x="72" y="493" type="line" smooth="yes"/>
      <point x="131" y="474"/>
      <point x="195" y="492"/>
      <point x="201" y="492" type="curve"/>
      <point x="197" y="496"/>
      <point x="154" y="543"/>
      <point x="93" y="563" type="curve" smooth="yes"/>
    </contour>
    <contour>
      <point x="340" y="501" type="line"/>
      <point x="352" y="504"/>
      <point x="354" y="512"/>
      <point x="351" y="522" type="curve"/>
      <point x="339" y="559" type="line" smooth="yes"/>
      <point x="335" y="570"/>
      <point x="330" y="573"/>
      <point x="319" y="570" type="curve" smooth="yes"/>
      <point x="307" y="566" type="line" smooth="yes"/>
      <point x="246" y="548"/>
      <point x="206" y="496"/>
      <point x="201" y="492" type="curve"/>
      <point x="208" y="491"/>
      <point x="270" y="478"/>
      <point x="329" y="497" type="curve" smooth="yes"/>
    </contour>
    <contour>
      <point x="253" y="363" type="line"/>
      <point x="260" y="353"/>
      <point x="267" y="354"/>
      <point x="276" y="359" type="curve" smooth="yes"/>
      <point x="308" y="382" type="line" smooth="yes"/>
      <point x="317" y="388"/>
      <point x="318" y="396"/>
      <point x="311" y="404" type="curve" smooth="yes"/>
      <point x="305" y="414" type="line" smooth="yes"/>
      <point x="268" y="465"/>
      <point x="206" y="488"/>
      <point x="201" y="492" type="curve"/>
      <point x="202" y="486"/>
      <point x="207" y="421"/>
      <point x="246" y="371" type="curve" smooth="yes"/>
    </contour>
  </outline>
</glyph>
<glyph name="plus" format="1">
  <advance width="549"/>
  <unicode hex="002B"/>
  <outline>
    <contour>
      <point x="317" y="506" type="line"/>
      <point x="317" y="521"/>
      <point x="311" y="526"/>
      <point x="297" y="526" type="curve" smooth="yes"/>
      <point x="252" y="526" type="line" smooth="yes"/>
      <point x="238" y="526"/>
      <point x="233" y="521"/>
      <point x="233" y="506" type="curve" smooth="yes"/>
      <point x="233" y="136" type="line" smooth="yes"/>
      <point x="233" y="121"/>
      <point x="238" y="116"/>
      <point x="252" y="116" type="curve" smooth="yes"/>
      <point x="297" y="116" type="line" smooth="yes"/>
      <point x="311" y="116"/>
      <point x="317" y="121"/>
      <point x="317" y="136" type="curve" smooth="yes"/>
    </contour>
    <contour>
      <point x="89" y="362" type="line"/>
      <point x="74" y="362"/>
      <point x="70" y="356"/>
      <point x="70" y="342" type="curve" smooth="yes"/>
      <point x="70" y="300" type="line" smooth="yes"/>
      <point x="70" y="287"/>
      <point x="74" y="281"/>
      <point x="89" y="281" type="curve" smooth="yes"/>
      <point x="460" y="281" type="line" smooth="yes"/>
      <point x="475" y="281"/>
      <point x="479" y="287"/>
      <point x="479" y="300" type="curve" smooth="yes"/>
      <point x="479" y="342" type="line" smooth="yes"/>
      <point x="479" y="356"/>
      <point x="475" y="362"/>
      <point x="460" y="362" type="curve" smooth="yes"/>
    </contour>
  </outline>
</glyph>
<glyph name="comma" format="1">
  <advance width="199"/>
  <unicode hex="002C"/>
  <outline>
    <contour>
      <point x="150" y="139" type="line"/>
      <point x="150" y="150"/>
      <point x="144" y="155"/>
      <point x="134" y="155" type="curve" smooth="yes"/>
      <point x="66" y="155" type="line" smooth="yes"/>
      <point x="54" y="155"/>
      <point x="49" y="150"/>
      <point x="49" y="139" type="curve" smooth="yes"/>
      <point x="49" y="-89" type="line" smooth="yes"/>
      <point x="49" y="-101"/>
      <point x="56" y="-105"/>
      <point x="63" y="-105" type="curve" smooth="yes"/>
      <point x="69" y="-105"/>
      <point x="75" y="-102"/>
      <point x="78" y="-96" type="curve" smooth="yes"/>
      <point x="131" y="1" type="line" smooth="yes"/>
      <point x="143" y="24"/>
      <point x="150" y="40"/>
      <point x="150" y="61" type="curve" smooth="yes"/>
    </contour>
  </outline>
</glyph>
<glyph name="hyphen" format="1">
  <advance width="312"/>
  <unicode hex="002D"/>
  <outline>
    <contour>
      <point x="255" y="279" type="line"/>
      <point x="268" y="279"/>
      <point x="272" y="285"/>
      <point x="272" y="297" type="curve" smooth="yes"/>
      <point x="272" y="341" type="line" smooth="yes"/>
      <point x="272" y="353"/>
      <point x="268" y="359"/>
      <point x="255" y="359" type="curve" smooth="yes"/>
      <point x="57" y="359" type="line" smooth="yes"/>
      <point x="44" y="359"/>
      <point x="40" y="353"/>
      <point x="40" y="341" type="curve" smooth="yes"/>
      <point x="40" y="297" type="line" smooth="yes"/>
      <point x="40" y="285"/>
      <point x="44" y="279"/>
      <point x="57" y="279" type="curve" smooth="yes"/>
    </contour>
  </outline>
</glyph>
<glyph name="period" format="1">
  <advance width="199"/>
  <unicode hex="002E"/>
  <outline>
    <contour>
      <point x="150" y="139" type="line"/>
      <point x="150" y="150"/>
      <point x="144" y="155"/>
      <point x="134" y="155" type="curve" smooth="yes"/>
      <point x="66" y="155" type="line" smooth="yes"/>
      <point x="54" y="155"/>
      <point x="49" y="150"/>
      <point x="49" y="139" type="curve" smooth="yes"/>
      <point x="49" y="17" type="line" smooth="yes"/>
      <point x="49" y="6"/>
      <point x="54" y="0"/>
      <point x="66" y="0" type="curve" smooth="yes"/>
      <point x="134" y="0" type="line" smooth="yes"/>
      <point x="145" y="0"/>
      <point x="150" y="6"/>
      <point x="150" y="17" type="curve" smooth="yes"/>
    </contour>
  </outline>
</glyph>
<glyph name="slash" format="1">
  <advance width="404"/>
  <unicode hex="002F"/>
  <outline>
    <contour>
      <point x="362" y="624" type="line"/>
      <point x="366" y="636"/>
      <point x="362" y="643"/>
      <point x="349" y="643" type="curve" smooth="yes"/>
      <point x="291" y="643" type="line" smooth="yes"/>
      <point x="278" y="643"/>
      <point x="273" y="637"/>
      <point x="268" y="625" type="curve"/>
      <point x="223" y="510"/>
      <point x="88" y="134"/>
      <point x="43" y="18" type="curve"/>
      <point x="38" y="5"/>
      <point x="44" y="0"/>
      <point x="57" y="0" type="curve" smooth="yes"/>
      <point x="114" y="0" type="line" smooth="yes"/>
      <point x="126" y="0"/>
      <point x="132" y="4"/>
      <point x="137" y="18" type="curve" smooth="yes"/>
    </contour>
  </outline>
</glyph>
<glyph name="zero" format="1">
  <advance width="528"/>
  <unicode hex="0030"/>
  <outline>
    <contour>
      <point x="314" y="0" type="line"/>
      <point x="411" y="0"/>
      <point x="469" y="57"/>
      <point x="469" y="155" type="curve" smooth="yes"/>
      <point x="469" y="488" type="line" smooth="yes"/>
      <point x="469" y="587"/>
      <point x="411" y="643"/>
      <point x="314" y="643" type="curve" smooth="yes"/>
      <point x="214" y="643" type="line" smooth="yes"/>
      <point x="116" y="643"/>
      <point x="58" y="587"/>
      <point x="58" y="488" type="curve" smooth="yes"/>
      <point x="58" y="155" type="line" smooth="yes"/>
      <point x="58" y="57"/>
      <point x="116" y="0"/>
      <point x="214" y="0" type="curve" smooth="yes"/>
    </contour>
    <contour>
      <point x="229" y="85" type="line"/>
      <point x="178" y="85"/>
      <point x="157" y="110"/>
      <point x="157" y="159" type="curve" smooth="yes"/>
      <point x="157" y="484" type="line" smooth="yes"/>
      <point x="157" y="533"/>
      <point x="178" y="558"/>
      <point x="229" y="558" type="curve" smooth="yes"/>
      <point x="300" y="558" type="line" smooth="yes"/>
      <point x="350" y="558"/>
      <point x="372" y="533"/>
      <point x="372" y="484" type="curve" smooth="yes"/>
      <point x="372" y="159" type="line" smooth="yes"/>
      <point x="372" y="110"/>
      <point x="350" y="85"/>
      <point x="300" y="85" type="curve" smooth="yes"/>
    </contour>
  </outline>
</glyph>
<glyph name="one" format="1">
  <advance width="327"/>
  <unicode hex="0031"/>
  <outline>
    <contour>
      <point x="157" y="539" type="line"/>
      <point x="157" y="17" type="line" smooth="yes"/>
      <point x="157" y="4"/>
      <point x="163" y="0"/>
      <point x="174" y="0" type="curve" smooth="yes"/>
      <point x="239" y="0" type="line" smooth="yes"/>
      <point x="250" y="0"/>
      <point x="255" y="3"/>
      <point x="255" y="17" type="curve" smooth="yes"/>
      <point x="255" y="626" type="line" smooth="yes"/>
      <point x="255" y="639"/>
      <point x="249" y="643"/>
      <point x="238" y="643" type="curve" smooth="yes"/>
      <point x="178" y="643" type="line" smooth="yes"/>
      <point x="166" y="643"/>
      <point x="158" y="639"/>
      <point x="146" y="632" type="curve" smooth="yes"/>
      <point x="42" y="569" type="line" smooth="yes"/>
      <point x="31" y="563"/>
      <point x="28" y="558"/>
      <point x="28" y="545" type="curve" smooth="yes"/>
      <point x="28" y="486" type="line" smooth="yes"/>
      <point x="28" y="474"/>
      <point x="33" y="469"/>
      <point x="48" y="476" type="curve"/>
    </contour>
  </outline>
</glyph>
<glyph name="two" format="1">
  <advance width="487"/>
  <unicode hex="0032"/>
  <outline>
    <contour>
      <point x="52" y="17" type="line"/>
      <point x="52" y="5"/>
      <point x="58" y="0"/>
      <point x="70" y="0" type="curve" smooth="yes"/>
      <point x="421" y="0" type="line" smooth="yes"/>
      <point x="433" y="0"/>
      <point x="439" y="5"/>
      <point x="439" y="17" type="curve" smooth="yes"/>
      <point x="439" y="70" type="line" smooth="yes"/>
      <point x="439" y="82"/>
      <point x="433" y="87"/>
      <point x="421" y="87" type="curve" smooth="yes"/>
      <point x="161" y="87" type="line"/>
      <point x="161" y="119" type="line" smooth="yes"/>
      <point x="161" y="138"/>
      <point x="167" y="150"/>
      <point x="184" y="164" type="curve" smooth="yes"/>
      <point x="376" y="321" type="line" smooth="yes"/>
      <point x="414" y="352"/>
      <point x="437" y="396"/>
      <point x="437" y="449" type="curve" smooth="yes"/>
      <point x="437" y="490" type="line" smooth="yes"/>
      <point x="437" y="588"/>
      <point x="379" y="643"/>
      <point x="282" y="643" type="curve" smooth="yes"/>
      <point x="204" y="643" type="line" smooth="yes"/>
      <point x="106" y="643"/>
      <point x="48" y="588"/>
      <point x="48" y="490" type="curve" smooth="yes"/>
      <point x="48" y="451" type="line" smooth="yes"/>
      <point x="48" y="439"/>
      <point x="54" y="433"/>
      <point x="65" y="433" type="curve" smooth="yes"/>
      <point x="129" y="433" type="line" smooth="yes"/>
      <point x="140" y="433"/>
      <point x="146" y="439"/>
      <point x="146" y="451" type="curve" smooth="yes"/>
      <point x="146" y="488" type="line" smooth="yes"/>
      <point x="146" y="538"/>
      <point x="168" y="560"/>
      <point x="218" y="560" type="curve" smooth="yes"/>
      <point x="267" y="560" type="line" smooth="yes"/>
      <point x="317" y="560"/>
      <point x="342" y="538"/>
      <point x="342" y="488" type="curve" smooth="yes"/>
      <point x="342" y="455" type="line" smooth="yes"/>
      <point x="342" y="425"/>
      <point x="328" y="394"/>
      <point x="294" y="367" type="curve" smooth="yes"/>
      <point x="105" y="213" type="line"/>
      <point x="72" y="187"/>
      <point x="52" y="156"/>
      <point x="52" y="109" type="curve" smooth="yes"/>
    </contour>
  </outline>
</glyph>
<glyph name="three" format="1">
  <advance width="504"/>
  <unicode hex="0033"/>
  <outline>
    <contour>
      <point x="221" y="363" type="line"/>
      <point x="209" y="363"/>
      <point x="204" y="357"/>
      <point x="204" y="345" type="curve" smooth="yes"/>
      <point x="204" y="300" type="line" smooth="yes"/>
      <point x="204" y="289"/>
      <point x="209" y="283"/>
      <point x="221" y="283" type="curve" smooth="yes"/>
      <point x="276" y="283" type="line" smooth="yes"/>
      <point x="326" y="283"/>
      <point x="350" y="260"/>
      <point x="350" y="210" type="curve" smooth="yes"/>
      <point x="350" y="155" type="line" smooth="yes"/>
      <point x="350" y="105"/>
      <point x="326" y="83"/>
      <point x="276" y="83" type="curve" smooth="yes"/>
      <point x="217" y="83" type="line" smooth="yes"/>
      <point x="167" y="83"/>
      <point x="145" y="105"/>
      <point x="145" y="155" type="curve" smooth="yes"/>
      <point x="145" y="188" type="line" smooth="yes"/>
      <point x="145" y="201"/>
      <point x="139" y="206"/>
      <point x="128" y="206" type="curve" smooth="yes"/>
      <point x="64" y="206" type="line" smooth="yes"/>
      <point x="53" y="206"/>
      <point x="47" y="201"/>
      <point x="47" y="188" type="curve" smooth="yes"/>
      <point x="47" y="153" type="line" smooth="yes"/>
      <point x="47" y="55"/>
      <point x="105" y="0"/>
      <point x="203" y="0" type="curve" smooth="yes"/>
      <point x="290" y="0" type="line" smooth="yes"/>
      <point x="388" y="0"/>
      <point x="446" y="55"/>
      <point x="446" y="153" type="curve" smooth="yes"/>
      <point x="446" y="211" type="line" smooth="yes"/>
      <point x="446" y="281"/>
      <point x="409" y="313"/>
      <point x="366" y="323" type="curve"/>
      <point x="415" y="338"/>
      <point x="446" y="374"/>
      <point x="446" y="435" type="curve" smooth="yes"/>
      <point x="446" y="490" type="line" smooth="yes"/>
      <point x="446" y="588"/>
      <point x="388" y="643"/>
      <point x="290" y="643" type="curve" smooth="yes"/>
      <point x="203" y="643" type="line" smooth="yes"/>
      <point x="105" y="643"/>
      <point x="47" y="588"/>
      <point x="47" y="490" type="curve" smooth="yes"/>
      <point x="47" y="459" type="line" smooth="yes"/>
      <point x="47" y="447"/>
      <point x="53" y="442"/>
      <point x="64" y="442" type="curve" smooth="yes"/>
      <point x="128" y="442" type="line" smooth="yes"/>
      <point x="139" y="442"/>
      <point x="145" y="447"/>
      <point x="145" y="459" type="curve" smooth="yes"/>
      <point x="145" y="488" type="line" smooth="yes"/>
      <point x="145" y="538"/>
      <point x="167" y="560"/>
      <point x="217" y="560" type="curve" smooth="yes"/>
      <point x="276" y="560" type="line" smooth="yes"/>
      <point x="326" y="560"/>
      <point x="350" y="538"/>
      <point x="350" y="488" type="curve" smooth="yes"/>
      <point x="350" y="436" type="line" smooth="yes"/>
      <point x="350" y="386"/>
      <point x="326" y="363"/>
      <point x="276" y="363" type="curve" smooth="yes"/>
    </contour>
  </outline>
</glyph>
<glyph name="four" format="1">
  <advance width="533"/>
  <unicode hex="0034"/>
  <outline>
    <contour>
      <point x="407" y="0" type="line"/>
      <point x="418" y="0"/>
      <point x="423" y="3"/>
      <point x="423" y="17" type="curve" smooth="yes"/>
      <point x="423" y="122" type="line"/>
      <point x="496" y="122" type="line" smooth="yes"/>
      <point x="509" y="122"/>
      <point x="513" y="130"/>
      <point x="513" y="141" type="curve" smooth="yes"/>
      <point x="513" y="191" type="line" smooth="yes"/>
      <point x="513" y="203"/>
      <point x="509" y="208"/>
      <point x="496" y="208" type="curve" smooth="yes"/>
      <point x="423" y="208" type="line"/>
      <point x="423" y="614" type="line" smooth="yes"/>
      <point x="423" y="633"/>
      <point x="411" y="643"/>
      <point x="394" y="643" type="curve" smooth="yes"/>
      <point x="306" y="643" type="line" smooth="yes"/>
      <point x="287" y="643"/>
      <point x="280" y="637"/>
      <point x="270" y="618" type="curve" smooth="yes"/>
      <point x="47" y="221" type="line" smooth="yes"/>
      <point x="41" y="210"/>
      <point x="38" y="198"/>
      <point x="38" y="182" type="curve" smooth="yes"/>
      <point x="38" y="151" type="line" smooth="yes"/>
      <point x="38" y="133"/>
      <point x="49" y="122"/>
      <point x="67" y="122" type="curve" smooth="yes"/>
      <point x="331" y="122" type="line"/>
      <point x="331" y="17" type="line" smooth="yes"/>
      <point x="331" y="4"/>
      <point x="336" y="0"/>
      <point x="348" y="0" type="curve" smooth="yes"/>
    </contour>
    <contour>
      <point x="331" y="562" type="line"/>
      <point x="331" y="208" type="line"/>
      <point x="134" y="208" type="line"/>
    </contour>
  </outline>
</glyph>
<glyph name="five" format="1">
  <advance width="497"/>
  <unicode hex="0035"/>
  <outline>
    <contour>
      <point x="276" y="340" type="line"/>
      <point x="331" y="340"/>
      <point x="353" y="318"/>
      <point x="353" y="257" type="curve" smooth="yes"/>
      <point x="353" y="156" type="line" smooth="yes"/>
      <point x="353" y="107"/>
      <point x="329" y="83"/>
      <point x="279" y="83" type="curve" smooth="yes"/>
      <point x="222" y="83" type="line" smooth="yes"/>
      <point x="173" y="83"/>
      <point x="150" y="107"/>
      <point x="150" y="156" type="curve" smooth="yes"/>
      <point x="150" y="181" type="line" smooth="yes"/>
      <point x="150" y="194"/>
      <point x="145" y="199"/>
      <point x="133" y="199" type="curve" smooth="yes"/>
      <point x="70" y="199" type="line" smooth="yes"/>
      <point x="58" y="199"/>
      <point x="53" y="194"/>
      <point x="53" y="181" type="curve" smooth="yes"/>
      <point x="53" y="155" type="line" smooth="yes"/>
      <point x="53" y="57"/>
      <point x="110" y="0"/>
      <point x="208" y="0" type="curve" smooth="yes"/>
      <point x="293" y="0" type="line" smooth="yes"/>
      <point x="390" y="0"/>
      <point x="448" y="57"/>
      <point x="448" y="155" type="curve" smooth="yes"/>
      <point x="448" y="271" type="line" smooth="yes"/>
      <point x="448" y="369"/>
      <point x="395" y="419"/>
      <point x="300" y="419" type="curve" smooth="yes"/>
      <point x="241" y="419" type="line" smooth="yes"/>
      <point x="195" y="419"/>
      <point x="167" y="399"/>
      <point x="157" y="370" type="curve"/>
      <point x="157" y="552" type="line"/>
      <point x="415" y="552" type="line" smooth="yes"/>
      <point x="429" y="552"/>
      <point x="433" y="558"/>
      <point x="433" y="569" type="curve" smooth="yes"/>
      <point x="433" y="626" type="line" smooth="yes"/>
      <point x="433" y="637"/>
      <point x="429" y="643"/>
      <point x="415" y="643" type="curve" smooth="yes"/>
      <point x="76" y="643" type="line" smooth="yes"/>
      <point x="64" y="643"/>
      <point x="59" y="638"/>
      <point x="59" y="626" type="curve" smooth="yes"/>
      <point x="59" y="312" type="line" smooth="yes"/>
      <point x="59" y="299"/>
      <point x="65" y="295"/>
      <point x="76" y="295" type="curve" smooth="yes"/>
      <point x="139" y="295" type="line" smooth="yes"/>
      <point x="169" y="295"/>
      <point x="157" y="340"/>
      <point x="214" y="340" type="curve" smooth="yes"/>
    </contour>
  </outline>
</glyph>
<glyph name="six" format="1">
  <advance width="515"/>
  <unicode hex="0036"/>
  <outline>
    <contour>
      <point x="306" y="0" type="line"/>
      <point x="404" y="0"/>
      <point x="462" y="57"/>
      <point x="462" y="155" type="curve" smooth="yes"/>
      <point x="462" y="243" type="line" smooth="yes"/>
      <point x="462" y="342"/>
      <point x="404" y="398"/>
      <point x="306" y="398" type="curve" smooth="yes"/>
      <point x="152" y="398" type="line"/>
      <point x="152" y="484" type="line" smooth="yes"/>
      <point x="152" y="533"/>
      <point x="175" y="558"/>
      <point x="224" y="558" type="curve" smooth="yes"/>
      <point x="409" y="558" type="line" smooth="yes"/>
      <point x="421" y="558"/>
      <point x="426" y="563"/>
      <point x="426" y="574" type="curve" smooth="yes"/>
      <point x="426" y="626" type="line" smooth="yes"/>
      <point x="426" y="637"/>
      <point x="421" y="643"/>
      <point x="409" y="643" type="curve" smooth="yes"/>
      <point x="210" y="643" type="line" smooth="yes"/>
      <point x="112" y="643"/>
      <point x="54" y="587"/>
      <point x="54" y="488" type="curve" smooth="yes"/>
      <point x="54" y="155" type="line" smooth="yes"/>
      <point x="54" y="57"/>
      <point x="112" y="0"/>
      <point x="210" y="0" type="curve" smooth="yes"/>
    </contour>
    <contour>
      <point x="224" y="85" type="line"/>
      <point x="174" y="85"/>
      <point x="152" y="110"/>
      <point x="152" y="159" type="curve" smooth="yes"/>
      <point x="152" y="313" type="line"/>
      <point x="292" y="313" type="line" smooth="yes"/>
      <point x="342" y="313"/>
      <point x="364" y="288"/>
      <point x="364" y="239" type="curve" smooth="yes"/>
      <point x="364" y="159" type="line" smooth="yes"/>
      <point x="364" y="110"/>
      <point x="342" y="85"/>
      <point x="292" y="85" type="curve" smooth="yes"/>
    </contour>
  </outline>
</glyph>
<glyph name="seven" format="1">
  <advance width="412"/>
  <unicode hex="0037"/>
  <outline>
    <contour>
      <point x="151" y="0" type="line"/>
      <point x="167" y="0"/>
      <point x="174" y="3"/>
      <point x="179" y="16" type="curve" smooth="yes"/>
      <point x="381" y="522" type="line" smooth="yes"/>
      <point x="387" y="536"/>
      <point x="392" y="545"/>
      <point x="392" y="564" type="curve" smooth="yes"/>
      <point x="392" y="626" type="line" smooth="yes"/>
      <point x="392" y="637"/>
      <point x="387" y="643"/>
      <point x="374" y="643" type="curve" smooth="yes"/>
      <point x="35" y="643" type="line" smooth="yes"/>
      <point x="22" y="643"/>
      <point x="18" y="637"/>
      <point x="18" y="626" type="curve" smooth="yes"/>
      <point x="18" y="571" type="line" smooth="yes"/>
      <point x="18" y="559"/>
      <point x="22" y="553"/>
      <point x="35" y="553" type="curve" smooth="yes"/>
      <point x="287" y="553" type="line"/>
      <point x="73" y="19" type="line" smooth="yes"/>
      <point x="67" y="8"/>
      <point x="71" y="0"/>
      <point x="82" y="0" type="curve" smooth="yes"/>
    </contour>
  </outline>
</glyph>
<glyph name="eight" format="1">
  <advance width="533"/>
  <unicode hex="0038"/>
  <outline>
    <contour>
      <point x="320" y="0" type="line"/>
      <point x="417" y="0"/>
      <point x="475" y="51"/>
      <point x="475" y="149" type="curve" smooth="yes"/>
      <point x="475" y="202" type="line" smooth="yes"/>
      <point x="475" y="264"/>
      <point x="450" y="306"/>
      <point x="407" y="323" type="curve"/>
      <point x="447" y="337"/>
      <point x="475" y="382"/>
      <point x="475" y="444" type="curve" smooth="yes"/>
      <point x="475" y="495" type="line" smooth="yes"/>
      <point x="475" y="592"/>
      <point x="417" y="643"/>
      <point x="320" y="643" type="curve" smooth="yes"/>
      <point x="214" y="643" type="line" smooth="yes"/>
      <point x="116" y="643"/>
      <point x="58" y="592"/>
      <point x="58" y="495" type="curve" smooth="yes"/>
      <point x="58" y="444" type="line" smooth="yes"/>
      <point x="58" y="382"/>
      <point x="83" y="341"/>
      <point x="127" y="323" type="curve"/>
      <point x="83" y="305"/>
      <point x="58" y="265"/>
      <point x="58" y="203" type="curve" smooth="yes"/>
      <point x="58" y="149" type="line" smooth="yes"/>
      <point x="58" y="51"/>
      <point x="116" y="0"/>
      <point x="214" y="0" type="curve" smooth="yes"/>
    </contour>
    <contour>
      <point x="227" y="363" type="line"/>
      <point x="177" y="363"/>
      <point x="155" y="388"/>
      <point x="155" y="438" type="curve" smooth="yes"/>
      <point x="155" y="487" type="line" smooth="yes"/>
      <point x="155" y="536"/>
      <point x="177" y="558"/>
      <point x="227" y="558" type="curve" smooth="yes"/>
      <point x="306" y="558" type="line" smooth="yes"/>
      <point x="356" y="558"/>
      <point x="378" y="536"/>
      <point x="378" y="487" type="curve" smooth="yes"/>
      <point x="378" y="438" type="line" smooth="yes"/>
      <point x="378" y="388"/>
      <point x="356" y="363"/>
      <point x="306" y="363" type="curve" smooth="yes"/>
    </contour>
    <contour>
      <point x="227" y="85" type="line"/>
      <point x="177" y="85"/>
      <point x="155" y="107"/>
      <point x="155" y="156" type="curve" smooth="yes"/>
      <point x="155" y="210" type="line" smooth="yes"/>
      <point x="155" y="259"/>
      <point x="177" y="285"/>
      <point x="227" y="285" type="curve" smooth="yes"/>
      <point x="306" y="285" type="line" smooth="yes"/>
      <point x="356" y="285"/>
      <point x="378" y="259"/>
      <point x="378" y="210" type="curve" smooth="yes"/>
      <point x="378" y="156" type="line" smooth="yes"/>
      <point x="378" y="107"/>
      <point x="356" y="85"/>
      <point x="306" y="85" type="curve" smooth="yes"/>
    </contour>
  </outline>
</glyph>
<glyph name="nine" format="1">
  <advance width="515"/>
  <unicode hex="0039"/>
  <outline>
    <contour>
      <point x="300" y="0" type="line"/>
      <point x="398" y="0"/>
      <point x="456" y="57"/>
      <point x="456" y="155" type="curve" smooth="yes"/>
      <point x="456" y="488" type="line" smooth="yes"/>
      <point x="456" y="587"/>
      <point x="398" y="643"/>
      <point x="300" y="643" type="curve" smooth="yes"/>
      <point x="204" y="643" type="line" smooth="yes"/>
      <point x="106" y="643"/>
      <point x="48" y="587"/>
      <point x="48" y="488" type="curve" smooth="yes"/>
      <point x="48" y="394" type="line" smooth="yes"/>
      <point x="48" y="297"/>
      <point x="106" y="240"/>
      <point x="204" y="240" type="curve" smooth="yes"/>
      <point x="358" y="240" type="line"/>
      <point x="358" y="159" type="line" smooth="yes"/>
      <point x="358" y="110"/>
      <point x="336" y="85"/>
      <point x="286" y="85" type="curve" smooth="yes"/>
      <point x="97" y="85" type="line" smooth="yes"/>
      <point x="84" y="85"/>
      <point x="78" y="80"/>
      <point x="78" y="69" type="curve" smooth="yes"/>
      <point x="78" y="17" type="line" smooth="yes"/>
      <point x="78" y="6"/>
      <point x="84" y="0"/>
      <point x="97" y="0" type="curve" smooth="yes"/>
    </contour>
    <contour>
      <point x="219" y="326" type="line"/>
      <point x="168" y="326"/>
      <point x="147" y="350"/>
      <point x="147" y="399" type="curve" smooth="yes"/>
      <point x="147" y="484" type="line" smooth="yes"/>
      <point x="147" y="533"/>
      <point x="168" y="558"/>
      <point x="219" y="558" type="curve" smooth="yes"/>
      <point x="286" y="558" type="line" smooth="yes"/>
      <point x="336" y="558"/>
      <point x="359" y="533"/>
      <point x="359" y="484" type="curve" smooth="yes"/>
      <point x="359" y="326" type="line"/>
    </contour>
  </outline>
</glyph>
<glyph name="colon" format="1">
  <advance width="199"/>
  <unicode hex="003A"/>
  <outline>
    <contour>
      <point x="150" y="139" type="line"/>
      <point x="150" y="150"/>
      <point x="144" y="155"/>
      <point x="134" y="155" type="curve" smooth="yes"/>
      <point x="66" y="155" type="line" smooth="yes"/>
      <point x="54" y="155"/>
      <point x="49" y="150"/>
      <point x="49" y="139" type="curve" smooth="yes"/>
      <point x="49" y="18" type="line" smooth="yes"/>
      <point x="49" y="7"/>
      <point x="54" y="0"/>
      <point x="66" y="0" type="curve" smooth="yes"/>
      <point x="134" y="0" type="line" smooth="yes"/>
      <point x="145" y="0"/>
      <point x="150" y="6"/>
      <point x="150" y="17" type="curve" smooth="yes"/>
    </contour>
    <contour>
      <point x="150" y="494" type="line"/>
      <point x="150" y="506"/>
      <point x="144" y="510"/>
      <point x="134" y="510" type="curve" smooth="yes"/>
      <point x="66" y="510" type="line" smooth="yes"/>
      <point x="54" y="510"/>
      <point x="49" y="505"/>
      <point x="49" y="493" type="curve" smooth="yes"/>
      <point x="49" y="374" type="line" smooth="yes"/>
      <point x="49" y="362"/>
      <point x="54" y="355"/>
      <point x="66" y="355" type="curve" smooth="yes"/>
      <point x="134" y="355" type="line" smooth="yes"/>
      <point x="145" y="355"/>
      <point x="150" y="360"/>
      <point x="150" y="372" type="curve" smooth="yes"/>
    </contour>
  </outline>
</glyph>
<glyph name="semicolon" format="1">
  <advance width="199"/>
  <unicode hex="003B"/>
  <outline>
    <contour>
      <point x="150" y="494" type="line"/>
      <point x="150" y="506"/>
      <point x="144" y="510"/>
      <point x="134" y="510" type="curve" smooth="yes"/>
      <point x="66" y="510" type="line" smooth="yes"/>
      <point x="54" y="510"/>
      <point x="49" y="505"/>
      <point x="49" y="493" type="curve" smooth="yes"/>
      <point x="49" y="374" type="line" smooth="yes"/>
      <point x="49" y="362"/>
      <point x="54" y="355"/>
      <point x="66" y="355" type="curve" smooth="yes"/>
      <point x="134" y="355" type="line" smooth="yes"/>
      <point x="145" y="355"/>
      <point x="150" y="360"/>
      <point x="150" y="372" type="curve" smooth="yes"/>
    </contour>
    <contour>
      <point x="150" y="139" type="line"/>
      <point x="150" y="150"/>
      <point x="144" y="155"/>
      <point x="134" y="155" type="curve" smooth="yes"/>
      <point x="66" y="155" type="line" smooth="yes"/>
      <point x="54" y="155"/>
      <point x="49" y="150"/>
      <point x="49" y="139" type="curve" smooth="yes"/>
      <point x="49" y="-89" type="line" smooth="yes"/>
      <point x="49" y="-101"/>
      <point x="56" y="-105"/>
      <point x="63" y="-105" type="curve" smooth="yes"/>
      <point x="69" y="-105"/>
      <point x="75" y="-102"/>
      <point x="78" y="-96" type="curve" smooth="yes"/>
      <point x="131" y="1" type="line" smooth="yes"/>
      <point x="143" y="24"/>
      <point x="150" y="40"/>
      <point x="150" y="61" type="curve" smooth="yes"/>
    </contour>
  </outline>
</glyph>
<glyph name="less" format="1">
  <advance width="544"/>
  <unicode hex="003C"/>
  <outline>
    <contour>
      <point x="477" y="493" type="line"/>
      <point x="477" y="506"/>
      <point x="470" y="510"/>
      <point x="457" y="505" type="curve" smooth="yes"/>
      <point x="89" y="378" type="line" smooth="yes"/>
      <point x="74" y="373"/>
      <point x="68" y="364"/>
      <point x="68" y="347" type="curve" smooth="yes"/>
      <point x="68" y="303" type="line" smooth="yes"/>
      <point x="68" y="287"/>
      <point x="74" y="277"/>
      <point x="89" y="272" type="curve" smooth="yes"/>
      <point x="457" y="146" type="line" smooth="yes"/>
      <point x="470" y="141"/>
      <point x="477" y="146"/>
      <point x="477" y="158" type="curve" smooth="yes"/>
      <point x="477" y="208" type="line" smooth="yes"/>
      <point x="477" y="221"/>
      <point x="474" y="228"/>
      <point x="461" y="231" type="curve" smooth="yes"/>
      <point x="149" y="325" type="line"/>
      <point x="461" y="420" type="line" smooth="yes"/>
      <point x="474" y="423"/>
      <point x="477" y="430"/>
      <point x="477" y="443" type="curve" smooth="yes"/>
    </contour>
  </outline>
</glyph>
<glyph name="equal" format="1">
  <advance width="554"/>
  <unicode hex="003D"/>
  <outline>
    <contour>
      <point x="91" y="266" type="line"/>
      <point x="76" y="266"/>
      <point x="72" y="260"/>
      <point x="72" y="247" type="curve" smooth="yes"/>
      <point x="72" y="206" type="line" smooth="yes"/>
      <point x="72" y="192"/>
      <point x="76" y="186"/>
      <point x="91" y="186" type="curve" smooth="yes"/>
      <point x="463" y="186" type="line" smooth="yes"/>
      <point x="477" y="186"/>
      <point x="481" y="192"/>
      <point x="481" y="206" type="curve" smooth="yes"/>
      <point x="481" y="247" type="line" smooth="yes"/>
      <point x="481" y="260"/>
      <point x="477" y="266"/>
      <point x="463" y="266" type="curve" smooth="yes"/>
    </contour>
    <contour>
      <point x="91" y="456" type="line"/>
      <point x="76" y="456"/>
      <point x="72" y="451"/>
      <point x="72" y="437" type="curve" smooth="yes"/>
      <point x="72" y="396" type="line" smooth="yes"/>
      <point x="72" y="382"/>
      <point x="76" y="377"/>
      <point x="91" y="377" type="curve" smooth="yes"/>
      <point x="463" y="377" type="line" smooth="yes"/>
      <point x="477" y="377"/>
      <point x="481" y="382"/>
      <point x="481" y="396" type="curve" smooth="yes"/>
      <point x="481" y="437" type="line" smooth="yes"/>
      <point x="481" y="451"/>
      <point x="477" y="456"/>
      <point x="463" y="456" type="curve" smooth="yes"/>
    </contour>
  </outline>
</glyph>
<glyph name="greater" format="1">
  <advance width="554"/>
  <unicode hex="003E"/>
  <outline>
    <contour>
      <point x="72" y="443" type="line"/>
      <point x="72" y="430"/>
      <point x="75" y="423"/>
      <point x="88" y="420" type="curve" smooth="yes"/>
      <point x="399" y="325" type="line"/>
      <point x="88" y="231" type="line" smooth="yes"/>
      <point x="75" y="228"/>
      <point x="72" y="221"/>
      <point x="72" y="208" type="curve" smooth="yes"/>
      <point x="72" y="158" type="line" smooth="yes"/>
      <point x="72" y="146"/>
      <point x="79" y="141"/>
      <point x="92" y="146" type="curve" smooth="yes"/>
      <point x="460" y="272" type="line" smooth="yes"/>
      <point x="475" y="277"/>
      <point x="481" y="287"/>
      <point x="481" y="303" type="curve" smooth="yes"/>
      <point x="481" y="347" type="line" smooth="yes"/>
      <point x="481" y="364"/>
      <point x="475" y="373"/>
      <point x="460" y="378" type="curve" smooth="yes"/>
      <point x="92" y="505" type="line" smooth="yes"/>
      <point x="79" y="510"/>
      <point x="72" y="506"/>
      <point x="72" y="493" type="curve" smooth="yes"/>
    </contour>
  </outline>
</glyph>
<glyph name="question" format="1">
  <advance width="469"/>
  <unicode hex="003F"/>
  <outline>
    <contour>
      <point x="281" y="268" type="line"/>
      <point x="281" y="292"/>
      <point x="284" y="306"/>
      <point x="312" y="330" type="curve" smooth="yes"/>
      <point x="372" y="378" type="line" smooth="yes"/>
      <point x="400" y="403"/>
      <point x="417" y="432"/>
      <point x="417" y="468" type="curve" smooth="yes"/>
      <point x="417" y="489" type="line" smooth="yes"/>
      <point x="417" y="587"/>
      <point x="359" y="642"/>
      <point x="262" y="642" type="curve" smooth="yes"/>
      <point x="206" y="642" type="line" smooth="yes"/>
      <point x="109" y="642"/>
      <point x="51" y="587"/>
      <point x="51" y="489" type="curve" smooth="yes"/>
      <point x="51" y="458" type="line" smooth="yes"/>
      <point x="51" y="446"/>
      <point x="56" y="440"/>
      <point x="68" y="440" type="curve" smooth="yes"/>
      <point x="131" y="440" type="line" smooth="yes"/>
      <point x="143" y="440"/>
      <point x="149" y="446"/>
      <point x="149" y="458" type="curve" smooth="yes"/>
      <point x="149" y="487" type="line" smooth="yes"/>
      <point x="149" y="537"/>
      <point x="171" y="559"/>
      <point x="220" y="559" type="curve" smooth="yes"/>
      <point x="247" y="559" type="line" smooth="yes"/>
      <point x="297" y="559"/>
      <point x="322" y="537"/>
      <point x="322" y="487" type="curve" smooth="yes"/>
      <point x="322" y="473" type="line" smooth="yes"/>
      <point x="322" y="448"/>
      <point x="311" y="430"/>
      <point x="287" y="411" type="curve" smooth="yes"/>
      <point x="238" y="370" type="line" smooth="yes"/>
      <point x="200" y="339"/>
      <point x="187" y="317"/>
      <point x="187" y="267" type="curve" smooth="yes"/>
      <point x="187" y="238" type="line" smooth="yes"/>
      <point x="187" y="225"/>
      <point x="193" y="221"/>
      <point x="204" y="221" type="curve" smooth="yes"/>
      <point x="263" y="221" type="line" smooth="yes"/>
      <point x="275" y="221"/>
      <point x="281" y="225"/>
      <point x="281" y="238" type="curve" smooth="yes"/>
    </contour>
    <contour>
      <point x="282" y="139" type="line"/>
      <point x="282" y="150"/>
      <point x="276" y="155"/>
      <point x="266" y="155" type="curve" smooth="yes"/>
      <point x="198" y="155" type="line" smooth="yes"/>
      <point x="187" y="155"/>
      <point x="181" y="150"/>
      <point x="181" y="139" type="curve" smooth="yes"/>
      <point x="181" y="18" type="line" smooth="yes"/>
      <point x="181" y="7"/>
      <point x="187" y="0"/>
      <point x="198" y="0" type="curve" smooth="yes"/>
      <point x="266" y="0" type="line" smooth="yes"/>
      <point x="277" y="0"/>
      <point x="282" y="6"/>
      <point x="282" y="17" type="curve" smooth="yes"/>
    </contour>
  </outline>
</glyph>
<glyph name="at" format="1">
  <advance width="749"/>
  <unicode hex="0040"/>
  <outline>
    <contour>
      <point x="500" y="-58" type="line"/>
      <point x="513" y="-58"/>
      <point x="517" y="-52"/>
      <point x="517" y="-41" type="curve" smooth="yes"/>
      <point x="517" y="-16" type="line" smooth="yes"/>
      <point x="517" y="-5"/>
      <point x="513" y="1"/>
      <point x="500" y="1" type="curve" smooth="yes"/>
      <point x="319" y="1" type="line" smooth="yes"/>
      <point x="209" y="1"/>
      <point x="126" y="72"/>
      <point x="126" y="193" type="curve" smooth="yes"/>
      <point x="126" y="352" type="line" smooth="yes"/>
      <point x="126" y="473"/>
      <point x="203" y="544"/>
      <point x="313" y="544" type="curve" smooth="yes"/>
      <point x="503" y="544" type="line" smooth="yes"/>
      <point x="574" y="544"/>
      <point x="628" y="505"/>
      <point x="628" y="430" type="curve" smooth="yes"/>
      <point x="628" y="223" type="line" smooth="yes"/>
      <point x="628" y="169"/>
      <point x="601" y="143"/>
      <point x="550" y="143" type="curve" smooth="yes"/>
      <point x="549" y="143" type="line" smooth="yes"/>
      <point x="541" y="143"/>
      <point x="532" y="146"/>
      <point x="532" y="154" type="curve" smooth="yes"/>
      <point x="532" y="443" type="line" smooth="yes"/>
      <point x="532" y="456"/>
      <point x="527" y="460"/>
      <point x="515" y="460" type="curve" smooth="yes"/>
      <point x="353" y="460" type="line" smooth="yes"/>
      <point x="268" y="460"/>
      <point x="210" y="404"/>
      <point x="210" y="305" type="curve" smooth="yes"/>
      <point x="210" y="233" type="line" smooth="yes"/>
      <point x="210" y="135"/>
      <point x="268" y="84"/>
      <point x="346" y="84" type="curve" smooth="yes"/>
      <point x="384" y="84"/>
      <point x="429" y="96"/>
      <point x="448" y="138" type="curve"/>
      <point x="452" y="138" type="line"/>
      <point x="452" y="134"/>
      <point x="452" y="131"/>
      <point x="452" y="127" type="curve" smooth="yes"/>
      <point x="452" y="97"/>
      <point x="479" y="83"/>
      <point x="507" y="83" type="curve" smooth="yes"/>
      <point x="554" y="83" type="line" smooth="yes"/>
      <point x="632" y="83"/>
      <point x="688" y="137"/>
      <point x="688" y="216" type="curve" smooth="yes"/>
      <point x="688" y="435" type="line" smooth="yes"/>
      <point x="688" y="533"/>
      <point x="615" y="603"/>
      <point x="509" y="603" type="curve" smooth="yes"/>
      <point x="308" y="603" type="line" smooth="yes"/>
      <point x="174" y="603"/>
      <point x="67" y="501"/>
      <point x="67" y="357" type="curve" smooth="yes"/>
      <point x="67" y="184" type="line" smooth="yes"/>
      <point x="67" y="34"/>
      <point x="181" y="-58"/>
      <point x="320" y="-58" type="curve" smooth="yes"/>
    </contour>
    <contour>
      <point x="452" y="242" type="line"/>
      <point x="452" y="191"/>
      <point x="428" y="158"/>
      <point x="370" y="158" type="curve" smooth="yes"/>
      <point x="370" y="158"/>
      <point x="369" y="158"/>
      <point x="368" y="158" type="curve"/>
      <point x="318" y="158"/>
      <point x="296" y="182"/>
      <point x="296" y="231" type="curve" smooth="yes"/>
      <point x="296" y="311" type="line" smooth="yes"/>
      <point x="296" y="361"/>
      <point x="318" y="385"/>
      <point x="368" y="385" type="curve" smooth="yes"/>
      <point x="441" y="385" type="line" smooth="yes"/>
      <point x="449" y="385"/>
      <point x="452" y="382"/>
      <point x="452" y="374" type="curve" smooth="yes"/>
    </contour>
  </outline>
</glyph>
<glyph name="A" format="1">
  <advance width="548"/>
  <unicode hex="0041"/>
  <outline>
    <contour>
      <point x="272" y="547" type="line"/>
      <point x="276" y="547" type="line"/>
      <point x="365" y="227" type="line"/>
      <point x="184" y="227" type="line"/>
    </contour>
    <contour>
      <point x="108" y="0" type="line"/>
      <point x="119" y="0"/>
      <point x="123" y="4"/>
      <point x="126" y="17" type="curve" smooth="yes"/>
      <point x="164" y="147" type="line"/>
      <point x="384" y="147" type="line"/>
      <point x="422" y="17" type="line" smooth="yes"/>
      <point x="424" y="4"/>
      <point x="428" y="0"/>
      <point x="440" y="0" type="curve" smooth="yes"/>
      <point x="511" y="0" type="line" smooth="yes"/>
      <point x="523" y="0"/>
      <point x="525" y="5"/>
      <point x="522" y="17" type="curve" smooth="yes"/>
      <point x="348" y="626" type="line" smooth="yes"/>
      <point x="345" y="639"/>
      <point x="337" y="643"/>
      <point x="324" y="643" type="curve" smooth="yes"/>
      <point x="224" y="643" type="line" smooth="yes"/>
      <point x="211" y="643"/>
      <point x="204" y="639"/>
      <point x="200" y="626" type="curve" smooth="yes"/>
      <point x="26" y="17" type="line" smooth="yes"/>
      <point x="23" y="5"/>
      <point x="25" y="0"/>
      <point x="36" y="0" type="curve" smooth="yes"/>
    </contour>
  </outline>
</glyph>
<glyph name="B" format="1">
  <advance width="552"/>
  <unicode hex="0042"/>
  <outline>
    <contour>
      <point x="73" y="17" type="line"/>
      <point x="73" y="4"/>
      <point x="78" y="0"/>
      <point x="90" y="0" type="curve" smooth="yes"/>
      <point x="336" y="0" type="line" smooth="yes"/>
      <point x="433" y="0"/>
      <point x="491" y="55"/>
      <point x="491" y="153" type="curve" smooth="yes"/>
      <point x="491" y="217" type="line" smooth="yes"/>
      <point x="491" y="286"/>
      <point x="449" y="323"/>
      <point x="401" y="329" type="curve"/>
      <point x="450" y="344"/>
      <point x="483" y="380"/>
      <point x="483" y="441" type="curve" smooth="yes"/>
      <point x="483" y="490" type="line" smooth="yes"/>
      <point x="483" y="588"/>
      <point x="425" y="643"/>
      <point x="327" y="643" type="curve" smooth="yes"/>
      <point x="90" y="643" type="line" smooth="yes"/>
      <point x="78" y="643"/>
      <point x="73" y="639"/>
      <point x="73" y="626" type="curve" smooth="yes"/>
    </contour>
    <contour>
      <point x="181" y="369" type="line"/>
      <point x="174" y="369"/>
      <point x="170" y="372"/>
      <point x="170" y="379" type="curve" smooth="yes"/>
      <point x="170" y="550" type="line" smooth="yes"/>
      <point x="170" y="557"/>
      <point x="174" y="560"/>
      <point x="181" y="560" type="curve" smooth="yes"/>
      <point x="313" y="560" type="line" smooth="yes"/>
      <point x="362" y="560"/>
      <point x="387" y="538"/>
      <point x="387" y="488" type="curve" smooth="yes"/>
      <point x="387" y="442" type="line" smooth="yes"/>
      <point x="387" y="392"/>
      <point x="361" y="369"/>
      <point x="311" y="369" type="curve" smooth="yes"/>
    </contour>
    <contour>
      <point x="181" y="83" type="line"/>
      <point x="174" y="83"/>
      <point x="170" y="86"/>
      <point x="170" y="93" type="curve" smooth="yes"/>
      <point x="170" y="279" type="line" smooth="yes"/>
      <point x="170" y="286"/>
      <point x="174" y="289"/>
      <point x="181" y="289" type="curve" smooth="yes"/>
      <point x="317" y="289" type="line" smooth="yes"/>
      <point x="371" y="289"/>
      <point x="396" y="266"/>
      <point x="396" y="217" type="curve" smooth="yes"/>
      <point x="396" y="155" type="line" smooth="yes"/>
      <point x="396" y="105"/>
      <point x="371" y="83"/>
      <point x="321" y="83" type="curve" smooth="yes"/>
    </contour>
  </outline>
</glyph>
<glyph name="C" format="1">
  <advance width="540"/>
  <unicode hex="0043"/>
  <outline>
    <contour>
      <point x="334" y="0" type="line"/>
      <point x="431" y="0"/>
      <point x="489" y="57"/>
      <point x="489" y="155" type="curve" smooth="yes"/>
      <point x="489" y="157"/>
      <point x="489" y="203"/>
      <point x="489" y="203" type="curve"/>
      <point x="489" y="215"/>
      <point x="483" y="221"/>
      <point x="471" y="221" type="curve" smooth="yes"/>
      <point x="408" y="221" type="line" smooth="yes"/>
      <point x="397" y="221"/>
      <point x="391" y="215"/>
      <point x="391" y="203" type="curve" smooth="yes"/>
      <point x="391" y="159" type="line"/>
      <point x="391" y="110"/>
      <point x="369" y="85"/>
      <point x="319" y="85" type="curve" smooth="yes"/>
      <point x="232" y="85" type="line" smooth="yes"/>
      <point x="183" y="85"/>
      <point x="160" y="110"/>
      <point x="160" y="159" type="curve" smooth="yes"/>
      <point x="160" y="484" type="line" smooth="yes"/>
      <point x="160" y="533"/>
      <point x="183" y="558"/>
      <point x="232" y="558" type="curve" smooth="yes"/>
      <point x="319" y="558" type="line" smooth="yes"/>
      <point x="369" y="558"/>
      <point x="391" y="533"/>
      <point x="391" y="484" type="curve" smooth="yes"/>
      <point x="391" y="440" type="line"/>
      <point x="391" y="428"/>
      <point x="397" y="422"/>
      <point x="408" y="422" type="curve" smooth="yes"/>
      <point x="471" y="422" type="line" smooth="yes"/>
      <point x="483" y="422"/>
      <point x="489" y="428"/>
      <point x="489" y="440" type="curve" smooth="yes"/>
      <point x="489" y="488" type="line"/>
      <point x="489" y="587"/>
      <point x="431" y="643"/>
      <point x="334" y="643" type="curve" smooth="yes"/>
      <point x="218" y="643" type="line" smooth="yes"/>
      <point x="120" y="643"/>
      <point x="63" y="587"/>
      <point x="63" y="488" type="curve" smooth="yes"/>
      <point x="63" y="155" type="line" smooth="yes"/>
      <point x="63" y="57"/>
      <point x="120" y="0"/>
      <point x="218" y="0" type="curve" smooth="yes"/>
    </contour>
  </outline>
</glyph>
<glyph name="D" format="1">
  <advance width="555"/>
  <unicode hex="0044"/>
  <outline>
    <contour>
      <point x="73" y="17" type="line"/>
      <point x="73" y="4"/>
      <point x="78" y="0"/>
      <point x="90" y="0" type="curve" smooth="yes"/>
      <point x="336" y="0" type="line" smooth="yes"/>
      <point x="433" y="0"/>
      <point x="492" y="57"/>
      <point x="492" y="155" type="curve" smooth="yes"/>
      <point x="492" y="488" type="line" smooth="yes"/>
      <point x="492" y="587"/>
      <point x="433" y="643"/>
      <point x="336" y="643" type="curve" smooth="yes"/>
      <point x="90" y="643" type="line" smooth="yes"/>
      <point x="78" y="643"/>
      <point x="73" y="639"/>
      <point x="73" y="626" type="curve" smooth="yes"/>
    </contour>
    <contour>
      <point x="181" y="85" type="line"/>
      <point x="174" y="85"/>
      <point x="170" y="88"/>
      <point x="170" y="96" type="curve" smooth="yes"/>
      <point x="170" y="548" type="line" smooth="yes"/>
      <point x="170" y="555"/>
      <point x="174" y="558"/>
      <point x="181" y="558" type="curve" smooth="yes"/>
      <point x="322" y="558" type="line" smooth="yes"/>
      <point x="372" y="558"/>
      <point x="394" y="533"/>
      <point x="394" y="484" type="curve" smooth="yes"/>
      <point x="394" y="159" type="line" smooth="yes"/>
      <point x="394" y="110"/>
      <point x="372" y="85"/>
      <point x="322" y="85" type="curve" smooth="yes"/>
    </contour>
  </outline>
</glyph>
<glyph name="F" format="1">
  <advance width="454"/>
  <unicode hex="0046"/>
  <outline>
    <contour>
      <point x="153" y="0" type="line"/>
      <point x="165" y="0"/>
      <point x="170" y="4"/>
      <point x="170" y="17" type="curve" smooth="yes"/>
      <point x="170" y="253" type="line" smooth="yes"/>
      <point x="170" y="260"/>
      <point x="174" y="263"/>
      <point x="182" y="263" type="curve" smooth="yes"/>
      <point x="375" y="263" type="line" smooth="yes"/>
      <point x="388" y="263"/>
      <point x="393" y="269"/>
      <point x="393" y="281" type="curve" smooth="yes"/>
      <point x="393" y="331" type="line" smooth="yes"/>
      <point x="393" y="343"/>
      <point x="388" y="348"/>
      <point x="375" y="348" type="curve" smooth="yes"/>
      <point x="182" y="348" type="line" smooth="yes"/>
      <point x="174" y="348"/>
      <point x="170" y="351"/>
      <point x="170" y="359" type="curve" smooth="yes"/>
      <point x="170" y="548" type="line" smooth="yes"/>
      <point x="170" y="555"/>
      <point x="174" y="558"/>
      <point x="182" y="558" type="curve" smooth="yes"/>
      <point x="404" y="558" type="line" smooth="yes"/>
      <point x="417" y="558"/>
      <point x="421" y="563"/>
      <point x="421" y="575" type="curve" smooth="yes"/>
      <point x="421" y="626" type="line" smooth="yes"/>
      <point x="421" y="637"/>
      <point x="417" y="643"/>
      <point x="404" y="643" type="curve" smooth="yes"/>
      <point x="90" y="643" type="line" smooth="yes"/>
      <point x="78" y="643"/>
      <point x="73" y="639"/>
      <point x="73" y="626" type="curve" smooth="yes"/>
      <point x="73" y="17" type="line" smooth="yes"/>
      <point x="73" y="4"/>
      <point x="78" y="0"/>
      <point x="90" y="0" type="curve" smooth="yes"/>
    </contour>
  </outline>
</glyph>
<glyph name="G" format="1">
  <advance width="543"/>
  <unicode hex="0047"/>
  <outline>
    <contour>
      <point x="325" y="0" type="line"/>
      <point x="423" y="0"/>
      <point x="480" y="57"/>
      <point x="480" y="155" type="curve" smooth="yes"/>
      <point x="480" y="323" type="line" smooth="yes"/>
      <point x="480" y="337"/>
      <point x="472" y="344"/>
      <point x="459" y="344" type="curve" smooth="yes"/>
      <point x="291" y="344" type="line" smooth="yes"/>
      <point x="278" y="344"/>
      <point x="274" y="339"/>
      <point x="274" y="327" type="curve" smooth="yes"/>
      <point x="274" y="276" type="line" smooth="yes"/>
      <point x="274" y="265"/>
      <point x="278" y="259"/>
      <point x="291" y="259" type="curve" smooth="yes"/>
      <point x="372" y="259" type="line" smooth="yes"/>
      <point x="380" y="259"/>
      <point x="383" y="256"/>
      <point x="383" y="249" type="curve" smooth="yes"/>
      <point x="383" y="159" type="line" smooth="yes"/>
      <point x="383" y="110"/>
      <point x="361" y="85"/>
      <point x="311" y="85" type="curve" smooth="yes"/>
      <point x="232" y="85" type="line" smooth="yes"/>
      <point x="183" y="85"/>
      <point x="160" y="110"/>
      <point x="160" y="159" type="curve" smooth="yes"/>
      <point x="160" y="484" type="line" smooth="yes"/>
      <point x="160" y="533"/>
      <point x="183" y="558"/>
      <point x="232" y="558" type="curve" smooth="yes"/>
      <point x="311" y="558" type="line" smooth="yes"/>
      <point x="361" y="558"/>
      <point x="383" y="533"/>
      <point x="383" y="484" type="curve" smooth="yes"/>
      <point x="383" y="452" type="line" smooth="yes"/>
      <point x="383" y="439"/>
      <point x="388" y="434"/>
      <point x="400" y="434" type="curve" smooth="yes"/>
      <point x="463" y="434" type="line" smooth="yes"/>
      <point x="475" y="434"/>
      <point x="480" y="439"/>
      <point x="480" y="452" type="curve" smooth="yes"/>
      <point x="480" y="488" type="line" smooth="yes"/>
      <point x="480" y="587"/>
      <point x="423" y="643"/>
      <point x="325" y="643" type="curve" smooth="yes"/>
      <point x="218" y="643" type="line" smooth="yes"/>
      <point x="120" y="643"/>
      <point x="63" y="587"/>
      <point x="63" y="488" type="curve" smooth="yes"/>
      <point x="63" y="155" type="line" smooth="yes"/>
      <point x="63" y="57"/>
      <point x="120" y="0"/>
      <point x="218" y="0" type="curve" smooth="yes"/>
    </contour>
  </outline>
</glyph>
<glyph name="H" format="1">
  <advance width="574"/>
  <unicode hex="0048"/>
  <outline>
    <contour>
      <point x="153" y="0" type="line"/>
      <point x="165" y="0"/>
      <point x="170" y="4"/>
      <point x="170" y="17" type="curve" smooth="yes"/>
      <point x="170" y="270" type="line" smooth="yes"/>
      <point x="170" y="277"/>
      <point x="174" y="280"/>
      <point x="182" y="280" type="curve" smooth="yes"/>
      <point x="393" y="280" type="line" smooth="yes"/>
      <point x="400" y="280"/>
      <point x="403" y="277"/>
      <point x="403" y="270" type="curve" smooth="yes"/>
      <point x="403" y="17" type="line" smooth="yes"/>
      <point x="403" y="4"/>
      <point x="409" y="0"/>
      <point x="420" y="0" type="curve" smooth="yes"/>
      <point x="484" y="0" type="line" smooth="yes"/>
      <point x="495" y="0"/>
      <point x="501" y="4"/>
      <point x="501" y="17" type="curve" smooth="yes"/>
      <point x="501" y="626" type="line" smooth="yes"/>
      <point x="501" y="639"/>
      <point x="495" y="643"/>
      <point x="484" y="643" type="curve" smooth="yes"/>
      <point x="420" y="643" type="line" smooth="yes"/>
      <point x="409" y="643"/>
      <point x="403" y="639"/>
      <point x="403" y="626" type="curve" smooth="yes"/>
      <point x="403" y="376" type="line" smooth="yes"/>
      <point x="403" y="369"/>
      <point x="400" y="366"/>
      <point x="393" y="366" type="curve" smooth="yes"/>
      <point x="182" y="366" type="line" smooth="yes"/>
      <point x="174" y="366"/>
      <point x="170" y="369"/>
      <point x="170" y="376" type="curve" smooth="yes"/>
      <point x="170" y="626" type="line" smooth="yes"/>
      <point x="170" y="639"/>
      <point x="165" y="643"/>
      <point x="153" y="643" type="curve" smooth="yes"/>
      <point x="90" y="643" type="line" smooth="yes"/>
      <point x="78" y="643"/>
      <point x="73" y="639"/>
      <point x="73" y="626" type="curve" smooth="yes"/>
      <point x="73" y="17" type="line" smooth="yes"/>
      <point x="73" y="4"/>
      <point x="78" y="0"/>
      <point x="90" y="0" type="curve" smooth="yes"/>
    </contour>
  </outline>
</glyph>
<glyph name="J" format="1">
  <advance width="513"/>
  <unicode hex="004A"/>
  <outline>
    <contour>
      <point x="365" y="643" type="line"/>
      <point x="353" y="643"/>
      <point x="347" y="639"/>
      <point x="347" y="626" type="curve" smooth="yes"/>
      <point x="347" y="159" type="line" smooth="yes"/>
      <point x="347" y="110"/>
      <point x="326" y="85"/>
      <point x="275" y="85" type="curve" smooth="yes"/>
      <point x="204" y="85" type="line" smooth="yes"/>
      <point x="155" y="85"/>
      <point x="132" y="110"/>
      <point x="132" y="159" type="curve" smooth="yes"/>
      <point x="132" y="170"/>
      <point x="132" y="233"/>
      <point x="132" y="245" type="curve" smooth="yes"/>
      <point x="132" y="257"/>
      <point x="127" y="262"/>
      <point x="115" y="262" type="curve" smooth="yes"/>
      <point x="52" y="262" type="line" smooth="yes"/>
      <point x="40" y="262"/>
      <point x="34" y="257"/>
      <point x="34" y="245" type="curve" smooth="yes"/>
      <point x="34" y="233"/>
      <point x="34" y="168"/>
      <point x="34" y="155" type="curve" smooth="yes"/>
      <point x="34" y="57"/>
      <point x="92" y="0"/>
      <point x="190" y="0" type="curve" smooth="yes"/>
      <point x="290" y="0" type="line" smooth="yes"/>
      <point x="387" y="0"/>
      <point x="445" y="57"/>
      <point x="445" y="155" type="curve" smooth="yes"/>
      <point x="445" y="627" type="line" smooth="yes"/>
      <point x="445" y="639"/>
      <point x="439" y="643"/>
      <point x="428" y="643" type="curve" smooth="yes"/>
    </contour>
  </outline>
</glyph>
<glyph name="K" format="1">
  <advance width="548"/>
  <unicode hex="004B"/>
  <outline>
    <contour>
      <point x="153" y="0" type="line"/>
      <point x="165" y="0"/>
      <point x="170" y="4"/>
      <point x="170" y="17" type="curve" smooth="yes"/>
      <point x="170" y="195" type="line"/>
      <point x="249" y="288" type="line"/>
      <point x="422" y="17" type="line" smooth="yes"/>
      <point x="431" y="3"/>
      <point x="443" y="0"/>
      <point x="460" y="0" type="curve" smooth="yes"/>
      <point x="516" y="0" type="line" smooth="yes"/>
      <point x="530" y="0"/>
      <point x="536" y="7"/>
      <point x="528" y="20" type="curve" smooth="yes"/>
      <point x="308" y="359" type="line"/>
      <point x="503" y="624" type="line" smooth="yes"/>
      <point x="512" y="636"/>
      <point x="508" y="643"/>
      <point x="496" y="643" type="curve" smooth="yes"/>
      <point x="422" y="643" type="line" smooth="yes"/>
      <point x="405" y="643"/>
      <point x="399" y="640"/>
      <point x="390" y="626" type="curve" smooth="yes"/>
      <point x="199" y="359" type="line" smooth="yes"/>
      <point x="192" y="349"/>
      <point x="180" y="328"/>
      <point x="173" y="309" type="curve"/>
      <point x="170" y="309" type="line"/>
      <point x="170" y="626" type="line" smooth="yes"/>
      <point x="170" y="639"/>
      <point x="165" y="643"/>
      <point x="153" y="643" type="curve" smooth="yes"/>
      <point x="90" y="643" type="line" smooth="yes"/>
      <point x="78" y="643"/>
      <point x="73" y="639"/>
      <point x="73" y="626" type="curve" smooth="yes"/>
      <point x="73" y="17" type="line" smooth="yes"/>
      <point x="73" y="4"/>
      <point x="78" y="0"/>
      <point x="90" y="0" type="curve" smooth="yes"/>
    </contour>
  </outline>
</glyph>
<glyph name="L" format="1">
  <advance width="450"/>
  <unicode hex="004C"/>
  <outline>
    <contour>
      <point x="414" y="0" type="line"/>
      <point x="427" y="0"/>
      <point x="431" y="6"/>
      <point x="431" y="17" type="curve" smooth="yes"/>
      <point x="431" y="69" type="line" smooth="yes"/>
      <point x="431" y="80"/>
      <point x="427" y="87"/>
      <point x="414" y="87" type="curve" smooth="yes"/>
      <point x="182" y="87" type="line" smooth="yes"/>
      <point x="174" y="87"/>
      <point x="170" y="90"/>
      <point x="170" y="97" type="curve" smooth="yes"/>
      <point x="170" y="626" type="line" smooth="yes"/>
      <point x="170" y="639"/>
      <point x="165" y="643"/>
      <point x="153" y="643" type="curve" smooth="yes"/>
      <point x="90" y="643" type="line" smooth="yes"/>
      <point x="78" y="643"/>
      <point x="73" y="639"/>
      <point x="73" y="626" type="curve" smooth="yes"/>
      <point x="73" y="17" type="line" smooth="yes"/>
      <point x="73" y="4"/>
      <point x="78" y="0"/>
      <point x="90" y="0" type="curve" smooth="yes"/>
    </contour>
  </outline>
</glyph>
<glyph name="M" format="1">
  <advance width="715"/>
  <unicode hex="004D"/>
  <outline>
    <contour>
      <point x="360" y="246" type="line"/>
      <point x="355" y="246" type="line"/>
      <point x="218" y="632" type="line" smooth="yes"/>
      <point x="215" y="639"/>
      <point x="211" y="643"/>
      <point x="202" y="643" type="curve" smooth="yes"/>
      <point x="90" y="643" type="line" smooth="yes"/>
      <point x="80" y="643"/>
      <point x="73" y="639"/>
      <point x="73" y="626" type="curve" smooth="yes"/>
      <point x="73" y="17" type="line" smooth="yes"/>
      <point x="73" y="3"/>
      <point x="80" y="0"/>
      <point x="90" y="0" type="curve" smooth="yes"/>
      <point x="151" y="0" type="line" smooth="yes"/>
      <point x="165" y="0"/>
      <point x="168" y="4"/>
      <point x="168" y="17" type="curve" smooth="yes"/>
      <point x="168" y="523" type="line"/>
      <point x="172" y="523" type="line"/>
      <point x="305" y="156" type="line" smooth="yes"/>
      <point x="309" y="145"/>
      <point x="314" y="140"/>
      <point x="326" y="140" type="curve" smooth="yes"/>
      <point x="390" y="140" type="line" smooth="yes"/>
      <point x="402" y="140"/>
      <point x="408" y="146"/>
      <point x="412" y="156" type="curve" smooth="yes"/>
      <point x="542" y="522" type="line"/>
      <point x="546" y="522" type="line"/>
      <point x="546" y="17" type="line" smooth="yes"/>
      <point x="546" y="4"/>
      <point x="552" y="0"/>
      <point x="563" y="0" type="curve" smooth="yes"/>
      <point x="625" y="0" type="line" smooth="yes"/>
      <point x="636" y="0"/>
      <point x="642" y="4"/>
      <point x="642" y="17" type="curve" smooth="yes"/>
      <point x="642" y="626" type="line" smooth="yes"/>
      <point x="642" y="639"/>
      <point x="636" y="643"/>
      <point x="625" y="643" type="curve" smooth="yes"/>
      <point x="513" y="643" type="line" smooth="yes"/>
      <point x="503" y="643"/>
      <point x="499" y="639"/>
      <point x="498" y="632" type="curve" smooth="yes"/>
    </contour>
  </outline>
</glyph>
<glyph name="N" format="1">
  <advance width="583"/>
  <unicode hex="004E"/>
  <outline>
    <contour>
      <point x="152" y="0" type="line"/>
      <point x="163" y="0"/>
      <point x="169" y="4"/>
      <point x="169" y="17" type="curve" smooth="yes"/>
      <point x="169" y="446" type="line"/>
      <point x="173" y="446" type="line"/>
      <point x="413" y="16" type="line" smooth="yes"/>
      <point x="415" y="14"/>
      <point x="422" y="0"/>
      <point x="439" y="0" type="curve" smooth="yes"/>
      <point x="493" y="0" type="line" smooth="yes"/>
      <point x="505" y="0"/>
      <point x="510" y="4"/>
      <point x="510" y="17" type="curve" smooth="yes"/>
      <point x="510" y="626" type="line" smooth="yes"/>
      <point x="510" y="639"/>
      <point x="505" y="643"/>
      <point x="493" y="643" type="curve" smooth="yes"/>
      <point x="431" y="643" type="line" smooth="yes"/>
      <point x="420" y="643"/>
      <point x="414" y="639"/>
      <point x="414" y="626" type="curve" smooth="yes"/>
      <point x="414" y="197" type="line"/>
      <point x="410" y="197" type="line"/>
      <point x="168" y="632" type="line" smooth="yes"/>
      <point x="167" y="634"/>
      <point x="162" y="643"/>
      <point x="146" y="643" type="curve" smooth="yes"/>
      <point x="90" y="643" type="line" smooth="yes"/>
      <point x="78" y="643"/>
      <point x="73" y="639"/>
      <point x="73" y="626" type="curve" smooth="yes"/>
      <point x="73" y="17" type="line" smooth="yes"/>
      <point x="73" y="4"/>
      <point x="78" y="0"/>
      <point x="90" y="0" type="curve" smooth="yes"/>
    </contour>
  </outline>
</glyph>
<glyph name="O" format="1">
  <advance width="552"/>
  <unicode hex="004F"/>
  <outline>
    <contour>
      <point x="334" y="0" type="line"/>
      <point x="432" y="0"/>
      <point x="490" y="57"/>
      <point x="490" y="155" type="curve" smooth="yes"/>
      <point x="490" y="488" type="line" smooth="yes"/>
      <point x="490" y="587"/>
      <point x="432" y="643"/>
      <point x="334" y="643" type="curve" smooth="yes"/>
      <point x="218" y="643" type="line" smooth="yes"/>
      <point x="120" y="643"/>
      <point x="63" y="587"/>
      <point x="63" y="488" type="curve" smooth="yes"/>
      <point x="63" y="155" type="line" smooth="yes"/>
      <point x="63" y="57"/>
      <point x="120" y="0"/>
      <point x="218" y="0" type="curve" smooth="yes"/>
    </contour>
    <contour>
      <point x="232" y="85" type="line"/>
      <point x="182" y="85"/>
      <point x="160" y="110"/>
      <point x="160" y="159" type="curve" smooth="yes"/>
      <point x="160" y="484" type="line" smooth="yes"/>
      <point x="160" y="533"/>
      <point x="182" y="558"/>
      <point x="232" y="558" type="curve" smooth="yes"/>
      <point x="319" y="558" type="line" smooth="yes"/>
      <point x="370" y="558"/>
      <point x="392" y="533"/>
      <point x="392" y="484" type="curve" smooth="yes"/>
      <point x="392" y="159" type="line" smooth="yes"/>
      <point x="392" y="110"/>
      <point x="370" y="85"/>
      <point x="319" y="85" type="curve" smooth="yes"/>
    </contour>
  </outline>
</glyph>
<glyph name="P" format="1">
  <advance width="528"/>
  <unicode hex="0050"/>
  <outline>
    <contour>
      <point x="181" y="315" type="line"/>
      <point x="174" y="315"/>
      <point x="170" y="318"/>
      <point x="170" y="325" type="curve" smooth="yes"/>
      <point x="170" y="548" type="line" smooth="yes"/>
      <point x="170" y="555"/>
      <point x="174" y="558"/>
      <point x="181" y="558" type="curve" smooth="yes"/>
      <point x="314" y="558" type="line" smooth="yes"/>
      <point x="364" y="558"/>
      <point x="385" y="533"/>
      <point x="385" y="484" type="curve" smooth="yes"/>
      <point x="385" y="389" type="line" smooth="yes"/>
      <point x="385" y="339"/>
      <point x="364" y="315"/>
      <point x="314" y="315" type="curve" smooth="yes"/>
    </contour>
    <contour>
      <point x="153" y="0" type="line"/>
      <point x="165" y="0"/>
      <point x="170" y="4"/>
      <point x="170" y="17" type="curve" smooth="yes"/>
      <point x="170" y="219" type="line" smooth="yes"/>
      <point x="170" y="226"/>
      <point x="174" y="229"/>
      <point x="182" y="229" type="curve" smooth="yes"/>
      <point x="328" y="229" type="line" smooth="yes"/>
      <point x="425" y="229"/>
      <point x="483" y="286"/>
      <point x="483" y="384" type="curve" smooth="yes"/>
      <point x="483" y="488" type="line" smooth="yes"/>
      <point x="483" y="587"/>
      <point x="425" y="643"/>
      <point x="328" y="643" type="curve" smooth="yes"/>
      <point x="90" y="643" type="line" smooth="yes"/>
      <point x="78" y="643"/>
      <point x="73" y="639"/>
      <point x="73" y="626" type="curve" smooth="yes"/>
      <point x="73" y="17" type="line" smooth="yes"/>
      <point x="73" y="4"/>
      <point x="78" y="0"/>
      <point x="90" y="0" type="curve" smooth="yes"/>
    </contour>
  </outline>
</glyph>
<glyph name="Q" format="1">
  <advance width="564"/>
  <unicode hex="0051"/>
  <outline>
    <contour>
      <point x="426" y="-133" type="line"/>
      <point x="437" y="-133"/>
      <point x="445" y="-125"/>
      <point x="438" y="-112" type="curve" smooth="yes"/>
      <point x="371" y="3" type="line"/>
      <point x="449" y="13"/>
      <point x="495" y="68"/>
      <point x="495" y="155" type="curve" smooth="yes"/>
      <point x="495" y="488" type="line" smooth="yes"/>
      <point x="495" y="587"/>
      <point x="438" y="643"/>
      <point x="340" y="643" type="curve" smooth="yes"/>
      <point x="224" y="643" type="line" smooth="yes"/>
      <point x="126" y="643"/>
      <point x="68" y="587"/>
      <point x="68" y="488" type="curve" smooth="yes"/>
      <point x="68" y="155" type="line" smooth="yes"/>
      <point x="68" y="57"/>
      <point x="126" y="0"/>
      <point x="224" y="0" type="curve" smooth="yes"/>
      <point x="270" y="0" type="line"/>
      <point x="338" y="-116" type="line" smooth="yes"/>
      <point x="345" y="-128"/>
      <point x="352" y="-133"/>
      <point x="370" y="-133" type="curve" smooth="yes"/>
    </contour>
    <contour>
      <point x="239" y="85" type="line"/>
      <point x="188" y="85"/>
      <point x="167" y="110"/>
      <point x="167" y="159" type="curve" smooth="yes"/>
      <point x="167" y="484" type="line" smooth="yes"/>
      <point x="167" y="533"/>
      <point x="188" y="558"/>
      <point x="239" y="558" type="curve" smooth="yes"/>
      <point x="326" y="558" type="line" smooth="yes"/>
      <point x="376" y="558"/>
      <point x="398" y="533"/>
      <point x="398" y="484" type="curve" smooth="yes"/>
      <point x="398" y="159" type="line" smooth="yes"/>
      <point x="398" y="110"/>
      <point x="376" y="85"/>
      <point x="326" y="85" type="curve" smooth="yes"/>
    </contour>
  </outline>
</glyph>
<glyph name="R" format="1">
  <advance width="542"/>
  <unicode hex="0052"/>
  <outline>
    <contour>
      <point x="181" y="327" type="line"/>
      <point x="174" y="327"/>
      <point x="170" y="330"/>
      <point x="170" y="337" type="curve" smooth="yes"/>
      <point x="170" y="548" type="line" smooth="yes"/>
      <point x="170" y="555"/>
      <point x="174" y="558"/>
      <point x="181" y="558" type="curve" smooth="yes"/>
      <point x="308" y="558" type="line" smooth="yes"/>
      <point x="358" y="558"/>
      <point x="382" y="533"/>
      <point x="382" y="484" type="curve" smooth="yes"/>
      <point x="382" y="400" type="line" smooth="yes"/>
      <point x="382" y="351"/>
      <point x="358" y="327"/>
      <point x="308" y="327" type="curve" smooth="yes"/>
    </contour>
    <contour>
      <point x="153" y="0" type="line"/>
      <point x="165" y="0"/>
      <point x="170" y="4"/>
      <point x="170" y="17" type="curve" smooth="yes"/>
      <point x="170" y="237" type="line" smooth="yes"/>
      <point x="170" y="244"/>
      <point x="174" y="247"/>
      <point x="182" y="247" type="curve" smooth="yes"/>
      <point x="283" y="247" type="line"/>
      <point x="390" y="17" type="line" smooth="yes"/>
      <point x="396" y="3"/>
      <point x="403" y="0"/>
      <point x="421" y="0" type="curve" smooth="yes"/>
      <point x="483" y="0" type="line" smooth="yes"/>
      <point x="495" y="0"/>
      <point x="504" y="6"/>
      <point x="496" y="20" type="curve" smooth="yes"/>
      <point x="385" y="254" type="line"/>
      <point x="385" y="258" type="line"/>
      <point x="445" y="277"/>
      <point x="480" y="328"/>
      <point x="480" y="403" type="curve" smooth="yes"/>
      <point x="480" y="487" type="line" smooth="yes"/>
      <point x="480" y="585"/>
      <point x="421" y="643"/>
      <point x="324" y="643" type="curve" smooth="yes"/>
      <point x="90" y="643" type="line" smooth="yes"/>
      <point x="78" y="643"/>
      <point x="73" y="639"/>
      <point x="73" y="626" type="curve" smooth="yes"/>
      <point x="73" y="17" type="line" smooth="yes"/>
      <point x="73" y="4"/>
      <point x="78" y="0"/>
      <point x="90" y="0" type="curve" smooth="yes"/>
    </contour>
  </outline>
</glyph>
<glyph name="S" format="1">
  <advance width="548"/>
  <unicode hex="0053"/>
  <outline>
    <contour>
      <point x="61" y="156" type="curve"/>
      <point x="61" y="58"/>
      <point x="121" y="0"/>
      <point x="218" y="0" type="curve" smooth="yes"/>
      <point x="330" y="0" type="line" smooth="yes"/>
      <point x="427" y="0"/>
      <point x="486" y="58"/>
      <point x="486" y="156" type="curve" smooth="yes"/>
      <point x="486" y="195" type="line" smooth="yes"/>
      <point x="486" y="433"/>
      <point x="159" y="319"/>
      <point x="159" y="441" type="curve" smooth="yes"/>
      <point x="159" y="472" type="line" smooth="yes"/>
      <point x="159" y="534"/>
      <point x="181" y="558"/>
      <point x="239" y="558" type="curve" smooth="yes"/>
      <point x="302" y="558" type="line" smooth="yes"/>
      <point x="359" y="558"/>
      <point x="382" y="535"/>
      <point x="382" y="478" type="curve" smooth="yes"/>
      <point x="382" y="477"/>
      <point x="382" y="465"/>
      <point x="382" y="465" type="curve"/>
      <point x="382" y="452"/>
      <point x="388" y="448"/>
      <point x="399" y="448" type="curve" smooth="yes"/>
      <point x="463" y="448" type="line" smooth="yes"/>
      <point x="474" y="448"/>
      <point x="480" y="452"/>
      <point x="480" y="465" type="curve" smooth="yes"/>
      <point x="480" y="469"/>
      <point x="480" y="484"/>
      <point x="480" y="487" type="curve"/>
      <point x="480" y="585"/>
      <point x="421" y="643"/>
      <point x="323" y="643" type="curve" smooth="yes"/>
      <point x="217" y="643" type="line" smooth="yes"/>
      <point x="120" y="643"/>
      <point x="61" y="585"/>
      <point x="61" y="487" type="curve" smooth="yes"/>
      <point x="61" y="445" type="line" smooth="yes"/>
      <point x="61" y="206"/>
      <point x="389" y="331"/>
      <point x="389" y="191" type="curve" smooth="yes"/>
      <point x="389" y="168" type="line" smooth="yes"/>
      <point x="389" y="109"/>
      <point x="365" y="85"/>
      <point x="308" y="85" type="curve" smooth="yes"/>
      <point x="239" y="85" type="line" smooth="yes"/>
      <point x="182" y="85"/>
      <point x="159" y="108"/>
      <point x="159" y="164" type="curve" smooth="yes"/>
      <point x="159" y="165"/>
      <point x="159" y="181"/>
      <point x="159" y="182" type="curve"/>
      <point x="159" y="195"/>
      <point x="153" y="199"/>
      <point x="142" y="199" type="curve" smooth="yes"/>
      <point x="78" y="199" type="line" smooth="yes"/>
      <point x="67" y="199"/>
      <point x="61" y="195"/>
      <point x="61" y="182" type="curve" smooth="yes"/>
      <point x="61" y="179"/>
      <point x="61" y="158"/>
    </contour>
  </outline>
</glyph>
<glyph name="T" format="1">
  <advance width="434"/>
  <unicode hex="0054"/>
  <outline>
    <contour>
      <point x="249" y="0" type="line"/>
      <point x="260" y="0"/>
      <point x="266" y="4"/>
      <point x="266" y="17" type="curve" smooth="yes"/>
      <point x="266" y="548" type="line" smooth="yes"/>
      <point x="266" y="555"/>
      <point x="270" y="558"/>
      <point x="277" y="558" type="curve" smooth="yes"/>
      <point x="403" y="558" type="line" smooth="yes"/>
      <point x="416" y="558"/>
      <point x="421" y="563"/>
      <point x="421" y="575" type="curve" smooth="yes"/>
      <point x="421" y="626" type="line" smooth="yes"/>
      <point x="421" y="637"/>
      <point x="416" y="643"/>
      <point x="403" y="643" type="curve" smooth="yes"/>
      <point x="32" y="643" type="line" smooth="yes"/>
      <point x="19" y="643"/>
      <point x="14" y="637"/>
      <point x="14" y="626" type="curve" smooth="yes"/>
      <point x="14" y="575" type="line" smooth="yes"/>
      <point x="14" y="563"/>
      <point x="19" y="558"/>
      <point x="32" y="558" type="curve" smooth="yes"/>
      <point x="158" y="558" type="line" smooth="yes"/>
      <point x="166" y="558"/>
      <point x="168" y="555"/>
      <point x="168" y="548" type="curve" smooth="yes"/>
      <point x="168" y="17" type="line" smooth="yes"/>
      <point x="168" y="4"/>
      <point x="174" y="0"/>
      <point x="186" y="0" type="curve" smooth="yes"/>
    </contour>
  </outline>
</glyph>
<glyph name="U" format="1">
  <advance width="557"/>
  <unicode hex="0055"/>
  <outline>
    <contour>
      <point x="409" y="643" type="line"/>
      <point x="397" y="643"/>
      <point x="392" y="639"/>
      <point x="392" y="626" type="curve" smooth="yes"/>
      <point x="392" y="159" type="line" smooth="yes"/>
      <point x="392" y="110"/>
      <point x="369" y="85"/>
      <point x="319" y="85" type="curve" smooth="yes"/>
      <point x="237" y="85" type="line" smooth="yes"/>
      <point x="188" y="85"/>
      <point x="165" y="110"/>
      <point x="165" y="159" type="curve" smooth="yes"/>
      <point x="165" y="626" type="line" smooth="yes"/>
      <point x="165" y="639"/>
      <point x="160" y="643"/>
      <point x="148" y="643" type="curve" smooth="yes"/>
      <point x="85" y="643" type="line" smooth="yes"/>
      <point x="73" y="643"/>
      <point x="68" y="639"/>
      <point x="68" y="626" type="curve" smooth="yes"/>
      <point x="68" y="155" type="line" smooth="yes"/>
      <point x="68" y="57"/>
      <point x="125" y="0"/>
      <point x="223" y="0" type="curve" smooth="yes"/>
      <point x="334" y="0" type="line" smooth="yes"/>
      <point x="431" y="0"/>
      <point x="490" y="57"/>
      <point x="490" y="155" type="curve" smooth="yes"/>
      <point x="490" y="627" type="line" smooth="yes"/>
      <point x="490" y="639"/>
      <point x="484" y="643"/>
      <point x="472" y="643" type="curve" smooth="yes"/>
    </contour>
  </outline>
</glyph>
<glyph name="V" format="1">
  <advance width="513"/>
  <unicode hex="0056"/>
  <outline>
    <contour>
      <point x="307" y="0" type="line"/>
      <point x="317" y="0"/>
      <point x="323" y="4"/>
      <point x="326" y="17" type="curve" smooth="yes"/>
      <point x="493" y="624" type="line" smooth="yes"/>
      <point x="496" y="636"/>
      <point x="490" y="643"/>
      <point x="477" y="643" type="curve" smooth="yes"/>
      <point x="407" y="643" type="line" smooth="yes"/>
      <point x="395" y="643"/>
      <point x="390" y="639"/>
      <point x="387" y="626" type="curve" smooth="yes"/>
      <point x="259" y="104" type="line"/>
      <point x="259" y="104"/>
      <point x="255" y="104"/>
      <point x="255" y="104" type="curve"/>
      <point x="126" y="626" type="line" smooth="yes"/>
      <point x="124" y="639"/>
      <point x="119" y="643"/>
      <point x="107" y="643" type="curve" smooth="yes"/>
      <point x="36" y="643" type="line" smooth="yes"/>
      <point x="23" y="643"/>
      <point x="17" y="636"/>
      <point x="21" y="624" type="curve" smooth="yes"/>
      <point x="187" y="17" type="line" smooth="yes"/>
      <point x="190" y="4"/>
      <point x="197" y="0"/>
      <point x="208" y="0" type="curve" smooth="yes"/>
    </contour>
  </outline>
</glyph>
<glyph name="W" format="1">
  <advance width="802"/>
  <unicode hex="0057"/>
  <outline>
    <contour>
      <point x="267" y="0" type="line"/>
      <point x="277" y="0"/>
      <point x="284" y="5"/>
      <point x="286" y="17" type="curve" smooth="yes"/>
      <point x="399" y="523" type="line"/>
      <point x="403" y="523" type="line"/>
      <point x="516" y="17" type="line" smooth="yes"/>
      <point x="518" y="6"/>
      <point x="524" y="0"/>
      <point x="536" y="0" type="curve" smooth="yes"/>
      <point x="642" y="0" type="line" smooth="yes"/>
      <point x="654" y="0"/>
      <point x="660" y="5"/>
      <point x="662" y="17" type="curve" smooth="yes"/>
      <point x="781" y="625" type="line" smooth="yes"/>
      <point x="783" y="637"/>
      <point x="777" y="643"/>
      <point x="764" y="643" type="curve" smooth="yes"/>
      <point x="687" y="643" type="line" smooth="yes"/>
      <point x="676" y="643"/>
      <point x="668" y="638"/>
      <point x="667" y="625" type="curve" smooth="yes"/>
      <point x="586" y="102" type="line"/>
      <point x="580" y="102" type="line"/>
      <point x="461" y="628" type="line" smooth="yes"/>
      <point x="459" y="640"/>
      <point x="451" y="643"/>
      <point x="442" y="643" type="curve" smooth="yes"/>
      <point x="358" y="643" type="line" smooth="yes"/>
      <point x="350" y="643"/>
      <point x="342" y="640"/>
      <point x="340" y="628" type="curve" smooth="yes"/>
      <point x="222" y="102" type="line"/>
      <point x="216" y="102" type="line"/>
      <point x="135" y="626" type="line" smooth="yes"/>
      <point x="134" y="640"/>
      <point x="127" y="643"/>
      <point x="115" y="643" type="curve" smooth="yes"/>
      <point x="38" y="643" type="line" smooth="yes"/>
      <point x="26" y="643"/>
      <point x="20" y="637"/>
      <point x="21" y="626" type="curve" smooth="yes"/>
      <point x="140" y="17" type="line" smooth="yes"/>
      <point x="142" y="4"/>
      <point x="149" y="0"/>
      <point x="161" y="0" type="curve" smooth="yes"/>
    </contour>
  </outline>
</glyph>
<glyph name="X" format="1">
  <advance width="526"/>
  <unicode hex="0058"/>
  <outline>
    <contour>
      <point x="388" y="16" type="line"/>
      <point x="393" y="4"/>
      <point x="401" y="0"/>
      <point x="411" y="0" type="curve" smooth="yes"/>
      <point x="486" y="0" type="line" smooth="yes"/>
      <point x="498" y="0"/>
      <point x="503" y="8"/>
      <point x="497" y="19" type="curve" smooth="yes"/>
      <point x="332" y="333" type="line"/>
      <point x="492" y="624" type="line" smooth="yes"/>
      <point x="496" y="633"/>
      <point x="491" y="643"/>
      <point x="480" y="643" type="curve" smooth="yes"/>
      <point x="406" y="643" type="line" smooth="yes"/>
      <point x="395" y="643"/>
      <point x="387" y="639"/>
      <point x="380" y="626" type="curve" smooth="yes"/>
      <point x="265" y="394" type="line"/>
      <point x="261" y="394" type="line"/>
      <point x="146" y="626" type="line" smooth="yes"/>
      <point x="140" y="639"/>
      <point x="130" y="643"/>
      <point x="118" y="643" type="curve" smooth="yes"/>
      <point x="47" y="643" type="line" smooth="yes"/>
      <point x="36" y="643"/>
      <point x="31" y="634"/>
      <point x="36" y="625" type="curve" smooth="yes"/>
      <point x="194" y="333" type="line"/>
      <point x="29" y="18" type="line" smooth="yes"/>
      <point x="24" y="8"/>
      <point x="29" y="0"/>
      <point x="40" y="0" type="curve" smooth="yes"/>
      <point x="114" y="0" type="line" smooth="yes"/>
      <point x="125" y="0"/>
      <point x="133" y="4"/>
      <point x="138" y="16" type="curve" smooth="yes"/>
      <point x="261" y="260" type="line"/>
      <point x="265" y="260" type="line"/>
    </contour>
  </outline>
</glyph>
<glyph name="Y" format="1">
  <advance width="508"/>
  <unicode hex="0059"/>
  <outline>
    <contour>
      <point x="286" y="0" type="line"/>
      <point x="297" y="0"/>
      <point x="303" y="4"/>
      <point x="303" y="17" type="curve" smooth="yes"/>
      <point x="303" y="238" type="line"/>
      <point x="490" y="625" type="line" smooth="yes"/>
      <point x="496" y="636"/>
      <point x="489" y="643"/>
      <point x="479" y="643" type="curve" smooth="yes"/>
      <point x="399" y="643" type="line" smooth="yes"/>
      <point x="389" y="643"/>
      <point x="383" y="638"/>
      <point x="379" y="626" type="curve" smooth="yes"/>
      <point x="258" y="351" type="line"/>
      <point x="252" y="351" type="line"/>
      <point x="129" y="626" type="line" smooth="yes"/>
      <point x="124" y="638"/>
      <point x="119" y="643"/>
      <point x="109" y="643" type="curve" smooth="yes"/>
      <point x="29" y="643" type="line" smooth="yes"/>
      <point x="20" y="643"/>
      <point x="13" y="636"/>
      <point x="18" y="625" type="curve" smooth="yes"/>
      <point x="205" y="238" type="line"/>
      <point x="205" y="17" type="line" smooth="yes"/>
      <point x="205" y="4"/>
      <point x="211" y="0"/>
      <point x="222" y="0" type="curve" smooth="yes"/>
    </contour>
  </outline>
</glyph>
<glyph name="Z" format="1">
  <advance width="506"/>
  <unicode hex="005A"/>
  <outline>
    <contour>
      <point x="46" y="17" type="line"/>
      <point x="46" y="6"/>
      <point x="50" y="0"/>
      <point x="63" y="0" type="curve" smooth="yes"/>
      <point x="443" y="0" type="line" smooth="yes"/>
      <point x="456" y="0"/>
      <point x="460" y="7"/>
      <point x="460" y="19" type="curve" smooth="yes"/>
      <point x="460" y="75" type="line" smooth="yes"/>
      <point x="460" y="87"/>
      <point x="456" y="91"/>
      <point x="443" y="91" type="curve" smooth="yes"/>
      <point x="161" y="91" type="line"/>
      <point x="161" y="95" type="line"/>
      <point x="439" y="521" type="line" smooth="yes"/>
      <point x="447" y="533"/>
      <point x="450" y="542"/>
      <point x="450" y="560" type="curve" smooth="yes"/>
      <point x="450" y="626" type="line" smooth="yes"/>
      <point x="450" y="637"/>
      <point x="446" y="643"/>
      <point x="433" y="643" type="curve" smooth="yes"/>
      <point x="79" y="643" type="line" smooth="yes"/>
      <point x="66" y="643"/>
      <point x="61" y="637"/>
      <point x="61" y="626" type="curve" smooth="yes"/>
      <point x="61" y="569" type="line" smooth="yes"/>
      <point x="61" y="558"/>
      <point x="66" y="552"/>
      <point x="79" y="552" type="curve" smooth="yes"/>
      <point x="344" y="552" type="line"/>
      <point x="344" y="548" type="line"/>
      <point x="55" y="101" type="line" smooth="yes"/>
      <point x="46" y="90"/>
      <point x="46" y="78"/>
      <point x="46" y="64" type="curve" smooth="yes"/>
    </contour>
  </outline>
</glyph>
<glyph name="bracketleft" format="1">
  <advance width="309"/>
  <unicode hex="005B"/>
  <outline>
    <contour>
      <point x="228" y="-99" type="line"/>
      <point x="241" y="-99"/>
      <point x="245" y="-93"/>
      <point x="245" y="-82" type="curve" smooth="yes"/>
      <point x="245" y="-48" type="line" smooth="yes"/>
      <point x="245" y="-37"/>
      <point x="241" y="-31"/>
      <point x="228" y="-31" type="curve" smooth="yes"/>
      <point x="163" y="-31" type="line" smooth="yes"/>
      <point x="156" y="-31"/>
      <point x="152" y="-28"/>
      <point x="152" y="-21" type="curve" smooth="yes"/>
      <point x="152" y="564" type="line" smooth="yes"/>
      <point x="152" y="572"/>
      <point x="156" y="575"/>
      <point x="163" y="575" type="curve" smooth="yes"/>
      <point x="228" y="575" type="line" smooth="yes"/>
      <point x="241" y="575"/>
      <point x="245" y="581"/>
      <point x="245" y="592" type="curve" smooth="yes"/>
      <point x="245" y="626" type="line" smooth="yes"/>
      <point x="245" y="637"/>
      <point x="241" y="643"/>
      <point x="228" y="643" type="curve" smooth="yes"/>
      <point x="88" y="643" type="line" smooth="yes"/>
      <point x="76" y="643"/>
      <point x="72" y="638"/>
      <point x="72" y="626" type="curve" smooth="yes"/>
      <point x="72" y="-81" type="line" smooth="yes"/>
      <point x="72" y="-94"/>
      <point x="76" y="-99"/>
      <point x="88" y="-99" type="curve" smooth="yes"/>
    </contour>
  </outline>
</glyph>
<glyph name="backslash" format="1">
  <advance width="404"/>
  <unicode hex="005C"/>
  <outline>
    <contour>
      <point x="268" y="18" type="line"/>
      <point x="273" y="4"/>
      <point x="279" y="0"/>
      <point x="291" y="0" type="curve" smooth="yes"/>
      <point x="348" y="0" type="line" smooth="yes"/>
      <point x="360" y="0"/>
      <point x="367" y="5"/>
      <point x="362" y="18" type="curve"/>
      <point x="317" y="134"/>
      <point x="182" y="510"/>
      <point x="137" y="625" type="curve"/>
      <point x="132" y="637"/>
      <point x="127" y="643"/>
      <point x="114" y="643" type="curve" smooth="yes"/>
      <point x="55" y="643" type="line" smooth="yes"/>
      <point x="43" y="643"/>
      <point x="38" y="637"/>
      <point x="43" y="624" type="curve" smooth="yes"/>
    </contour>
  </outline>
</glyph>
<glyph name="bracketright" format="1">
  <advance width="309"/>
  <unicode hex="005D"/>
  <outline>
    <contour>
      <point x="60" y="-82" type="line"/>
      <point x="60" y="-93"/>
      <point x="64" y="-99"/>
      <point x="77" y="-99" type="curve" smooth="yes"/>
      <point x="217" y="-99" type="line" smooth="yes"/>
      <point x="229" y="-99"/>
      <point x="233" y="-94"/>
      <point x="233" y="-81" type="curve" smooth="yes"/>
      <point x="233" y="626" type="line" smooth="yes"/>
      <point x="233" y="638"/>
      <point x="229" y="643"/>
      <point x="217" y="643" type="curve" smooth="yes"/>
      <point x="77" y="643" type="line" smooth="yes"/>
      <point x="64" y="643"/>
      <point x="60" y="637"/>
      <point x="60" y="626" type="curve" smooth="yes"/>
      <point x="60" y="592" type="line" smooth="yes"/>
      <point x="60" y="581"/>
      <point x="64" y="575"/>
      <point x="77" y="575" type="curve" smooth="yes"/>
      <point x="142" y="575" type="line" smooth="yes"/>
      <point x="149" y="575"/>
      <point x="153" y="572"/>
      <point x="153" y="564" type="curve" smooth="yes"/>
      <point x="153" y="-21" type="line" smooth="yes"/>
      <point x="153" y="-28"/>
      <point x="149" y="-31"/>
      <point x="142" y="-31" type="curve" smooth="yes"/>
      <point x="77" y="-31" type="line" smooth="yes"/>
      <point x="64" y="-31"/>
      <point x="60" y="-37"/>
      <point x="60" y="-48" type="curve" smooth="yes"/>
    </contour>
  </outline>
</glyph>
<glyph name="asciicircum" format="1">
  <advance width="494"/>
  <unicode hex="005E"/>
  <outline>
    <contour>
      <point x="350" y="380" type="line"/>
      <point x="356" y="368"/>
      <point x="361" y="363"/>
      <point x="373" y="363" type="curve" smooth="yes"/>
      <point x="430" y="363" type="line" smooth="yes"/>
      <point x="442" y="363"/>
      <point x="449" y="369"/>
      <point x="442" y="381" type="curve" smooth="yes"/>
      <point x="318" y="618" type="line" smooth="yes"/>
      <point x="308" y="637"/>
      <point x="301" y="643"/>
      <point x="281" y="643" type="curve" smooth="yes"/>
      <point x="212" y="643" type="line" smooth="yes"/>
      <point x="192" y="643"/>
      <point x="185" y="637"/>
      <point x="175" y="618" type="curve" smooth="yes"/>
      <point x="51" y="381" type="line" smooth="yes"/>
      <point x="44" y="369"/>
      <point x="51" y="363"/>
      <point x="63" y="363" type="curve" smooth="yes"/>
      <point x="120" y="363" type="line" smooth="yes"/>
      <point x="132" y="363"/>
      <point x="137" y="368"/>
      <point x="143" y="380" type="curve"/>
      <point x="246" y="581" type="line"/>
    </contour>
  </outline>
</glyph>
<glyph name="underscore" format="1">
  <advance width="372"/>
  <unicode hex="005F"/>
  <outline>
    <contour>
      <point x="355" y="-107" type="line"/>
      <point x="368" y="-107"/>
      <point x="372" y="-101"/>
      <point x="372" y="-89" type="curve" smooth="yes"/>
      <point x="372" y="-68" type="line" smooth="yes"/>
      <point x="372" y="-56"/>
      <point x="368" y="-51"/>
      <point x="355" y="-51" type="curve" smooth="yes"/>
      <point x="17" y="-51" type="line" smooth="yes"/>
      <point x="4" y="-51"/>
      <point x="0" y="-56"/>
      <point x="0" y="-68" type="curve" smooth="yes"/>
      <point x="0" y="-89" type="line" smooth="yes"/>
      <point x="0" y="-101"/>
      <point x="4" y="-107"/>
      <point x="17" y="-107" type="curve" smooth="yes"/>
    </contour>
  </outline>
</glyph>
<glyph name="grave" format="1">
  <advance width="287"/>
  <unicode hex="0060"/>
  <outline>
    <contour>
      <point x="174" y="687" type="line"/>
      <point x="168" y="699"/>
      <point x="159" y="703"/>
      <point x="149" y="703" type="curve" smooth="yes"/>
      <point x="70" y="703" type="line" smooth="yes"/>
      <point x="59" y="703"/>
      <point x="55" y="696"/>
      <point x="62" y="686" type="curve" smooth="yes"/>
      <point x="147" y="586" type="line" smooth="yes"/>
      <point x="153" y="578"/>
      <point x="161" y="574"/>
      <point x="170" y="574" type="curve" smooth="yes"/>
      <point x="218" y="574" type="line" smooth="yes"/>
      <point x="228" y="574"/>
      <point x="232" y="579"/>
      <point x="225" y="591" type="curve" smooth="yes"/>
    </contour>
  </outline>
</glyph>
<glyph name="a" format="1">
  <advance width="512"/>
  <unicode hex="0061"/>
  <outline>
    <contour>
      <point x="352" y="170" type="line"/>
      <point x="352" y="119"/>
      <point x="328" y="85"/>
      <point x="270" y="85" type="curve" smooth="yes"/>
      <point x="222" y="85" type="line" smooth="yes"/>
      <point x="172" y="85"/>
      <point x="150" y="110"/>
      <point x="150" y="159" type="curve" smooth="yes"/>
      <point x="150" y="351" type="line" smooth="yes"/>
      <point x="150" y="400"/>
      <point x="172" y="425"/>
      <point x="222" y="425" type="curve" smooth="yes"/>
      <point x="341" y="425" type="line" smooth="yes"/>
      <point x="348" y="425"/>
      <point x="352" y="422"/>
      <point x="352" y="415" type="curve" smooth="yes"/>
    </contour>
    <contour>
      <point x="247" y="0" type="line"/>
      <point x="292" y="0"/>
      <point x="332" y="18"/>
      <point x="348" y="53" type="curve"/>
      <point x="352" y="53" type="line"/>
      <point x="352" y="17" type="line" smooth="yes"/>
      <point x="352" y="4"/>
      <point x="357" y="0"/>
      <point x="369" y="0" type="curve" smooth="yes"/>
      <point x="432" y="0" type="line" smooth="yes"/>
      <point x="444" y="0"/>
      <point x="450" y="4"/>
      <point x="450" y="17" type="curve" smooth="yes"/>
      <point x="450" y="493" type="line" smooth="yes"/>
      <point x="450" y="506"/>
      <point x="444" y="510"/>
      <point x="432" y="510" type="curve" smooth="yes"/>
      <point x="208" y="510" type="line" smooth="yes"/>
      <point x="110" y="510"/>
      <point x="53" y="454"/>
      <point x="53" y="355" type="curve" smooth="yes"/>
      <point x="53" y="155" type="line" smooth="yes"/>
      <point x="53" y="57"/>
      <point x="110" y="0"/>
      <point x="208" y="0" type="curve" smooth="yes"/>
    </contour>
  </outline>
</glyph>
<glyph name="b" format="1">
  <advance width="518"/>
  <unicode hex="0062"/>
  <outline>
    <contour>
      <point x="63" y="17" type="line"/>
      <point x="63" y="4"/>
      <point x="68" y="0"/>
      <point x="80" y="0" type="curve" smooth="yes"/>
      <point x="309" y="0" type="line" smooth="yes"/>
      <point x="407" y="0"/>
      <point x="465" y="57"/>
      <point x="465" y="155" type="curve" smooth="yes"/>
      <point x="465" y="360" type="line" smooth="yes"/>
      <point x="465" y="458"/>
      <point x="407" y="514"/>
      <point x="309" y="514" type="curve" smooth="yes"/>
      <point x="265" y="514" type="line" smooth="yes"/>
      <point x="220" y="514"/>
      <point x="180" y="495"/>
      <point x="164" y="460" type="curve"/>
      <point x="160" y="460" type="line"/>
      <point x="160" y="686" type="line" smooth="yes"/>
      <point x="160" y="699"/>
      <point x="155" y="703"/>
      <point x="143" y="703" type="curve" smooth="yes"/>
      <point x="80" y="703" type="line" smooth="yes"/>
      <point x="68" y="703"/>
      <point x="63" y="699"/>
      <point x="63" y="686" type="curve" smooth="yes"/>
    </contour>
    <contour>
      <point x="171" y="85" type="line"/>
      <point x="164" y="85"/>
      <point x="160" y="88"/>
      <point x="160" y="96" type="curve" smooth="yes"/>
      <point x="160" y="345" type="line" smooth="yes"/>
      <point x="160" y="395"/>
      <point x="184" y="429"/>
      <point x="242" y="429" type="curve" smooth="yes"/>
      <point x="295" y="429" type="line" smooth="yes"/>
      <point x="345" y="429"/>
      <point x="367" y="405"/>
      <point x="367" y="355" type="curve" smooth="yes"/>
      <point x="367" y="159" type="line" smooth="yes"/>
      <point x="367" y="110"/>
      <point x="345" y="85"/>
      <point x="295" y="85" type="curve" smooth="yes"/>
    </contour>
  </outline>
</glyph>
<glyph name="c" format="1">
  <advance width="405"/>
  <unicode hex="0063"/>
  <outline>
    <contour>
      <point x="373" y="68" type="line"/>
      <point x="373" y="80"/>
      <point x="368" y="85"/>
      <point x="355" y="85" type="curve" smooth="yes"/>
      <point x="222" y="85" type="line" smooth="yes"/>
      <point x="173" y="85"/>
      <point x="150" y="110"/>
      <point x="150" y="159" type="curve" smooth="yes"/>
      <point x="150" y="351" type="line" smooth="yes"/>
      <point x="150" y="400"/>
      <point x="173" y="425"/>
      <point x="222" y="425" type="curve" smooth="yes"/>
      <point x="355" y="425" type="line" smooth="yes"/>
      <point x="368" y="425"/>
      <point x="373" y="429"/>
      <point x="373" y="441" type="curve" smooth="yes"/>
      <point x="373" y="493" type="line" smooth="yes"/>
      <point x="373" y="504"/>
      <point x="368" y="510"/>
      <point x="355" y="510" type="curve" smooth="yes"/>
      <point x="208" y="510" type="line" smooth="yes"/>
      <point x="110" y="510"/>
      <point x="53" y="454"/>
      <point x="53" y="355" type="curve" smooth="yes"/>
      <point x="53" y="155" type="line" smooth="yes"/>
      <point x="53" y="57"/>
      <point x="110" y="0"/>
      <point x="208" y="0" type="curve" smooth="yes"/>
      <point x="355" y="0" type="line" smooth="yes"/>
      <point x="368" y="0"/>
      <point x="373" y="4"/>
      <point x="373" y="16" type="curve" smooth="yes"/>
    </contour>
  </outline>
</glyph>
<glyph name="d" format="1">
  <advance width="518"/>
  <unicode hex="0064"/>
  <outline>
    <contour>
      <point x="357" y="170" type="line"/>
      <point x="357" y="119"/>
      <point x="333" y="85"/>
      <point x="275" y="85" type="curve" smooth="yes"/>
      <point x="222" y="85" type="line" smooth="yes"/>
      <point x="172" y="85"/>
      <point x="150" y="110"/>
      <point x="150" y="159" type="curve" smooth="yes"/>
      <point x="150" y="351" type="line" smooth="yes"/>
      <point x="150" y="400"/>
      <point x="172" y="425"/>
      <point x="222" y="425" type="curve" smooth="yes"/>
      <point x="275" y="425" type="line" smooth="yes"/>
      <point x="333" y="425"/>
      <point x="357" y="391"/>
      <point x="357" y="340" type="curve" smooth="yes"/>
    </contour>
    <contour>
      <point x="253" y="0" type="line"/>
      <point x="298" y="0"/>
      <point x="338" y="18"/>
      <point x="353" y="53" type="curve"/>
      <point x="357" y="53" type="line"/>
      <point x="357" y="17" type="line" smooth="yes"/>
      <point x="357" y="4"/>
      <point x="363" y="0"/>
      <point x="374" y="0" type="curve" smooth="yes"/>
      <point x="438" y="0" type="line" smooth="yes"/>
      <point x="449" y="0"/>
      <point x="455" y="4"/>
      <point x="455" y="17" type="curve" smooth="yes"/>
      <point x="455" y="686" type="line" smooth="yes"/>
      <point x="455" y="699"/>
      <point x="449" y="703"/>
      <point x="438" y="703" type="curve" smooth="yes"/>
      <point x="374" y="703" type="line" smooth="yes"/>
      <point x="363" y="703"/>
      <point x="357" y="699"/>
      <point x="357" y="686" type="curve" smooth="yes"/>
      <point x="357" y="457" type="line"/>
      <point x="353" y="457" type="line"/>
      <point x="338" y="492"/>
      <point x="298" y="510"/>
      <point x="253" y="510" type="curve" smooth="yes"/>
      <point x="202" y="510" type="line" smooth="yes"/>
      <point x="105" y="510"/>
      <point x="53" y="454"/>
      <point x="53" y="355" type="curve" smooth="yes"/>
      <point x="53" y="155" type="line" smooth="yes"/>
      <point x="53" y="57"/>
      <point x="105" y="0"/>
      <point x="202" y="0" type="curve" smooth="yes"/>
    </contour>
  </outline>
</glyph>
<glyph name="f" format="1">
  <advance width="335"/>
  <unicode hex="0066"/>
  <outline>
    <contour>
      <point x="217" y="510" type="line"/>
      <point x="210" y="510"/>
      <point x="207" y="513"/>
      <point x="207" y="520" type="curve" smooth="yes"/>
      <point x="207" y="544" type="line" smooth="yes"/>
      <point x="207" y="594"/>
      <point x="222" y="618"/>
      <point x="272" y="618" type="curve" smooth="yes"/>
      <point x="302" y="618" type="line" smooth="yes"/>
      <point x="315" y="618"/>
      <point x="319" y="623"/>
      <point x="319" y="635" type="curve" smooth="yes"/>
      <point x="319" y="687" type="line" smooth="yes"/>
      <point x="319" y="699"/>
      <point x="315" y="703"/>
      <point x="302" y="703" type="curve" smooth="yes"/>
      <point x="258" y="703" type="line" smooth="yes"/>
      <point x="160" y="703"/>
      <point x="109" y="647"/>
      <point x="109" y="549" type="curve" smooth="yes"/>
      <point x="109" y="520" type="line" smooth="yes"/>
      <point x="109" y="513"/>
      <point x="106" y="510"/>
      <point x="98" y="510" type="curve" smooth="yes"/>
      <point x="45" y="510" type="line" smooth="yes"/>
      <point x="31" y="510"/>
      <point x="28" y="506"/>
      <point x="28" y="494" type="curve" smooth="yes"/>
      <point x="28" y="442" type="line" smooth="yes"/>
      <point x="28" y="430"/>
      <point x="32" y="425"/>
      <point x="45" y="425" type="curve" smooth="yes"/>
      <point x="98" y="425" type="line" smooth="yes"/>
      <point x="106" y="425"/>
      <point x="109" y="422"/>
      <point x="109" y="415" type="curve" smooth="yes"/>
      <point x="109" y="17" type="line" smooth="yes"/>
      <point x="109" y="4"/>
      <point x="115" y="0"/>
      <point x="126" y="0" type="curve" smooth="yes"/>
      <point x="189" y="0" type="line" smooth="yes"/>
      <point x="200" y="0"/>
      <point x="207" y="4"/>
      <point x="207" y="17" type="curve" smooth="yes"/>
      <point x="207" y="415" type="line" smooth="yes"/>
      <point x="207" y="422"/>
      <point x="210" y="425"/>
      <point x="217" y="425" type="curve" smooth="yes"/>
      <point x="301" y="425" type="line" smooth="yes"/>
      <point x="314" y="425"/>
      <point x="319" y="430"/>
      <point x="319" y="442" type="curve" smooth="yes"/>
      <point x="319" y="494" type="line" smooth="yes"/>
      <point x="319" y="506"/>
      <point x="315" y="510"/>
      <point x="301" y="510" type="curve" smooth="yes"/>
    </contour>
  </outline>
</glyph>
<glyph name="g" format="1">
  <advance width="514"/>
  <unicode hex="0067"/>
  <outline>
    <contour>
      <point x="354" y="195" type="line"/>
      <point x="354" y="144"/>
      <point x="330" y="111"/>
      <point x="272" y="111" type="curve" smooth="yes"/>
      <point x="224" y="111" type="line" smooth="yes"/>
      <point x="174" y="111"/>
      <point x="153" y="135"/>
      <point x="153" y="185" type="curve" smooth="yes"/>
      <point x="153" y="351" type="line" smooth="yes"/>
      <point x="153" y="400"/>
      <point x="174" y="425"/>
      <point x="224" y="425" type="curve" smooth="yes"/>
      <point x="343" y="425" type="line" smooth="yes"/>
      <point x="350" y="425"/>
      <point x="354" y="422"/>
      <point x="354" y="415" type="curve" smooth="yes"/>
    </contour>
    <contour>
      <point x="249" y="25" type="line"/>
      <point x="294" y="25"/>
      <point x="334" y="44"/>
      <point x="350" y="79" type="curve"/>
      <point x="354" y="79" type="line"/>
      <point x="354" y="3" type="line" smooth="yes"/>
      <point x="354" y="-47"/>
      <point x="332" y="-71"/>
      <point x="281" y="-71" type="curve" smooth="yes"/>
      <point x="108" y="-71" type="line" smooth="yes"/>
      <point x="95" y="-71"/>
      <point x="91" y="-77"/>
      <point x="91" y="-88" type="curve" smooth="yes"/>
      <point x="91" y="-140" type="line" smooth="yes"/>
      <point x="91" y="-152"/>
      <point x="95" y="-156"/>
      <point x="108" y="-156" type="curve" smooth="yes"/>
      <point x="296" y="-156" type="line" smooth="yes"/>
      <point x="393" y="-156"/>
      <point x="452" y="-100"/>
      <point x="452" y="-2" type="curve" smooth="yes"/>
      <point x="452" y="493" type="line" smooth="yes"/>
      <point x="452" y="506"/>
      <point x="446" y="510"/>
      <point x="434" y="510" type="curve" smooth="yes"/>
      <point x="210" y="510" type="line" smooth="yes"/>
      <point x="113" y="510"/>
      <point x="55" y="454"/>
      <point x="55" y="355" type="curve" smooth="yes"/>
      <point x="55" y="180" type="line" smooth="yes"/>
      <point x="55" y="82"/>
      <point x="107" y="25"/>
      <point x="204" y="25" type="curve" smooth="yes"/>
    </contour>
  </outline>
</glyph>
<glyph name="h" format="1">
  <advance width="517"/>
  <unicode hex="0068"/>
  <outline>
    <contour>
      <point x="143" y="0" type="line"/>
      <point x="155" y="0"/>
      <point x="160" y="4"/>
      <point x="160" y="17" type="curve" smooth="yes"/>
      <point x="160" y="340" type="line" smooth="yes"/>
      <point x="160" y="391"/>
      <point x="184" y="425"/>
      <point x="242" y="425" type="curve" smooth="yes"/>
      <point x="289" y="425" type="line" smooth="yes"/>
      <point x="339" y="425"/>
      <point x="362" y="400"/>
      <point x="362" y="351" type="curve" smooth="yes"/>
      <point x="362" y="17" type="line" smooth="yes"/>
      <point x="362" y="4"/>
      <point x="367" y="0"/>
      <point x="379" y="0" type="curve" smooth="yes"/>
      <point x="442" y="0" type="line" smooth="yes"/>
      <point x="454" y="0"/>
      <point x="460" y="4"/>
      <point x="460" y="17" type="curve" smooth="yes"/>
      <point x="460" y="355" type="line" smooth="yes"/>
      <point x="460" y="454"/>
      <point x="407" y="510"/>
      <point x="309" y="510" type="curve" smooth="yes"/>
      <point x="265" y="510" type="line" smooth="yes"/>
      <point x="217" y="510"/>
      <point x="180" y="492"/>
      <point x="164" y="457" type="curve"/>
      <point x="160" y="457" type="line"/>
      <point x="160" y="686" type="line" smooth="yes"/>
      <point x="160" y="699"/>
      <point x="155" y="703"/>
      <point x="143" y="703" type="curve" smooth="yes"/>
      <point x="80" y="703" type="line" smooth="yes"/>
      <point x="68" y="703"/>
      <point x="63" y="699"/>
      <point x="63" y="686" type="curve" smooth="yes"/>
      <point x="63" y="17" type="line" smooth="yes"/>
      <point x="63" y="4"/>
      <point x="68" y="0"/>
      <point x="80" y="0" type="curve" smooth="yes"/>
    </contour>
  </outline>
</glyph>
<glyph name="i" format="1">
  <advance width="233"/>
  <unicode hex="0069"/>
  <outline>
    <contour>
      <point x="68" y="17" type="line"/>
      <point x="68" y="4"/>
      <point x="73" y="0"/>
      <point x="85" y="0" type="curve" smooth="yes"/>
      <point x="149" y="0" type="line" smooth="yes"/>
      <point x="161" y="0"/>
      <point x="165" y="3"/>
      <point x="165" y="17" type="curve" smooth="yes"/>
      <point x="165" y="493" type="line" smooth="yes"/>
      <point x="165" y="506"/>
      <point x="160" y="510"/>
      <point x="148" y="510" type="curve" smooth="yes"/>
      <point x="84" y="510" type="line" smooth="yes"/>
      <point x="73" y="510"/>
      <point x="68" y="506"/>
      <point x="68" y="493" type="curve" smooth="yes"/>
    </contour>
    <contour>
      <point x="68" y="595" type="line"/>
      <point x="68" y="584"/>
      <point x="73" y="578"/>
      <point x="84" y="578" type="curve" smooth="yes"/>
      <point x="149" y="578" type="line" smooth="yes"/>
      <point x="160" y="578"/>
      <point x="165" y="584"/>
      <point x="165" y="595" type="curve" smooth="yes"/>
      <point x="165" y="686" type="line" smooth="yes"/>
      <point x="165" y="698"/>
      <point x="160" y="702"/>
      <point x="149" y="702" type="curve" smooth="yes"/>
      <point x="84" y="702" type="line" smooth="yes"/>
      <point x="73" y="702"/>
      <point x="68" y="698"/>
      <point x="68" y="686" type="curve" smooth="yes"/>
    </contour>
  </outline>
</glyph>
<glyph name="j" format="1">
  <advance width="233"/>
  <unicode hex="006A"/>
  <outline>
    <contour>
      <point x="9" y="-156" type="line"/>
      <point x="106" y="-156"/>
      <point x="165" y="-99"/>
      <point x="165" y="-1" type="curve" smooth="yes"/>
      <point x="165" y="493" type="line" smooth="yes"/>
      <point x="165" y="506"/>
      <point x="160" y="510"/>
      <point x="148" y="510" type="curve" smooth="yes"/>
      <point x="85" y="510" type="line" smooth="yes"/>
      <point x="73" y="510"/>
      <point x="68" y="506"/>
      <point x="68" y="493" type="curve" smooth="yes"/>
      <point x="68" y="16" type="line" smooth="yes"/>
      <point x="68" y="-47"/>
      <point x="44" y="-71"/>
      <point x="-18" y="-71" type="curve" smooth="yes"/>
      <point x="-44" y="-71" type="line" smooth="yes"/>
      <point x="-57" y="-71"/>
      <point x="-61" y="-77"/>
      <point x="-61" y="-88" type="curve" smooth="yes"/>
      <point x="-61" y="-139" type="line" smooth="yes"/>
      <point x="-61" y="-150"/>
      <point x="-57" y="-156"/>
      <point x="-44" y="-156" type="curve" smooth="yes"/>
    </contour>
    <contour>
      <point x="68" y="595" type="line"/>
      <point x="68" y="584"/>
      <point x="73" y="578"/>
      <point x="84" y="578" type="curve" smooth="yes"/>
      <point x="149" y="578" type="line" smooth="yes"/>
      <point x="160" y="578"/>
      <point x="165" y="584"/>
      <point x="165" y="595" type="curve" smooth="yes"/>
      <point x="165" y="686" type="line" smooth="yes"/>
      <point x="165" y="698"/>
      <point x="160" y="702"/>
      <point x="149" y="702" type="curve" smooth="yes"/>
      <point x="84" y="702" type="line" smooth="yes"/>
      <point x="73" y="702"/>
      <point x="68" y="698"/>
      <point x="68" y="686" type="curve" smooth="yes"/>
    </contour>
  </outline>
</glyph>
<glyph name="k" format="1">
  <advance width="456"/>
  <unicode hex="006B"/>
  <outline>
    <contour>
      <point x="193" y="275" type="line"/>
      <point x="189" y="267"/>
      <point x="189" y="255"/>
      <point x="193" y="248" type="curve" smooth="yes"/>
      <point x="334" y="17" type="line" smooth="yes"/>
      <point x="343" y="3"/>
      <point x="350" y="0"/>
      <point x="368" y="0" type="curve" smooth="yes"/>
      <point x="433" y="0" type="line" smooth="yes"/>
      <point x="447" y="0"/>
      <point x="453" y="9"/>
      <point x="446" y="20" type="curve" smooth="yes"/>
      <point x="294" y="262" type="line"/>
      <point x="294" y="266" type="line"/>
      <point x="435" y="490" type="line" smooth="yes"/>
      <point x="443" y="502"/>
      <point x="437" y="510"/>
      <point x="425" y="510" type="curve" smooth="yes"/>
      <point x="353" y="510" type="line" smooth="yes"/>
      <point x="340" y="510"/>
      <point x="331" y="506"/>
      <point x="324" y="494" type="curve" smooth="yes"/>
    </contour>
    <contour>
      <point x="143" y="0" type="line"/>
      <point x="155" y="0"/>
      <point x="160" y="4"/>
      <point x="160" y="17" type="curve" smooth="yes"/>
      <point x="160" y="112"/>
      <point x="160" y="591"/>
      <point x="160" y="686" type="curve" smooth="yes"/>
      <point x="160" y="699"/>
      <point x="155" y="703"/>
      <point x="143" y="703" type="curve" smooth="yes"/>
      <point x="80" y="703" type="line" smooth="yes"/>
      <point x="68" y="703"/>
      <point x="63" y="699"/>
      <point x="63" y="686" type="curve" smooth="yes"/>
      <point x="63" y="17" type="line" smooth="yes"/>
      <point x="63" y="4"/>
      <point x="68" y="0"/>
      <point x="80" y="0" type="curve" smooth="yes"/>
    </contour>
  </outline>
</glyph>
<glyph name="l" format="1">
  <advance width="233"/>
  <unicode hex="006C"/>
  <outline>
    <contour>
      <point x="148" y="0" type="line"/>
      <point x="160" y="0"/>
      <point x="165" y="4"/>
      <point x="165" y="17" type="curve" smooth="yes"/>
      <point x="165" y="686" type="line" smooth="yes"/>
      <point x="165" y="699"/>
      <point x="160" y="703"/>
      <point x="148" y="703" type="curve" smooth="yes"/>
      <point x="85" y="703" type="line" smooth="yes"/>
      <point x="73" y="703"/>
      <point x="68" y="699"/>
      <point x="68" y="686" type="curve" smooth="yes"/>
      <point x="68" y="17" type="line" smooth="yes"/>
      <point x="68" y="4"/>
      <point x="73" y="0"/>
      <point x="85" y="0" type="curve" smooth="yes"/>
    </contour>
  </outline>
</glyph>
<glyph name="m" format="1">
  <advance width="787"/>
  <unicode hex="006D"/>
  <outline>
    <contour>
      <point x="143" y="0" type="line"/>
      <point x="155" y="0"/>
      <point x="160" y="4"/>
      <point x="160" y="17" type="curve" smooth="yes"/>
      <point x="160" y="340" type="line" smooth="yes"/>
      <point x="160" y="391"/>
      <point x="184" y="425"/>
      <point x="242" y="425" type="curve" smooth="yes"/>
      <point x="277" y="425" type="line" smooth="yes"/>
      <point x="327" y="425"/>
      <point x="349" y="400"/>
      <point x="349" y="351" type="curve" smooth="yes"/>
      <point x="349" y="17" type="line" smooth="yes"/>
      <point x="349" y="4"/>
      <point x="355" y="0"/>
      <point x="366" y="0" type="curve" smooth="yes"/>
      <point x="429" y="0" type="line" smooth="yes"/>
      <point x="441" y="0"/>
      <point x="447" y="4"/>
      <point x="447" y="17" type="curve" smooth="yes"/>
      <point x="447" y="338" type="line" smooth="yes"/>
      <point x="447" y="389"/>
      <point x="470" y="425"/>
      <point x="530" y="425" type="curve" smooth="yes"/>
      <point x="559" y="425" type="line" smooth="yes"/>
      <point x="609" y="425"/>
      <point x="631" y="400"/>
      <point x="631" y="351" type="curve" smooth="yes"/>
      <point x="631" y="17" type="line" smooth="yes"/>
      <point x="631" y="4"/>
      <point x="637" y="0"/>
      <point x="648" y="0" type="curve" smooth="yes"/>
      <point x="712" y="0" type="line" smooth="yes"/>
      <point x="723" y="0"/>
      <point x="729" y="4"/>
      <point x="729" y="17" type="curve" smooth="yes"/>
      <point x="729" y="355" type="line" smooth="yes"/>
      <point x="729" y="454"/>
      <point x="676" y="510"/>
      <point x="579" y="510" type="curve" smooth="yes"/>
      <point x="547" y="510" type="line" smooth="yes"/>
      <point x="499" y="510"/>
      <point x="449" y="489"/>
      <point x="427" y="444" type="curve"/>
      <point x="403" y="487"/>
      <point x="364" y="510"/>
      <point x="303" y="510" type="curve" smooth="yes"/>
      <point x="270" y="510" type="line" smooth="yes"/>
      <point x="217" y="510"/>
      <point x="180" y="486"/>
      <point x="164" y="457" type="curve"/>
      <point x="160" y="457" type="line"/>
      <point x="160" y="493" type="line" smooth="yes"/>
      <point x="160" y="506"/>
      <point x="155" y="510"/>
      <point x="143" y="510" type="curve" smooth="yes"/>
      <point x="80" y="510" type="line" smooth="yes"/>
      <point x="68" y="510"/>
      <point x="63" y="506"/>
      <point x="63" y="493" type="curve" smooth="yes"/>
      <point x="63" y="17" type="line" smooth="yes"/>
      <point x="63" y="4"/>
      <point x="68" y="0"/>
      <point x="80" y="0" type="curve" smooth="yes"/>
    </contour>
  </outline>
</glyph>
<glyph name="o" format="1">
  <advance width="504"/>
  <unicode hex="006F"/>
  <outline>
    <contour>
      <point x="222" y="85" type="line"/>
      <point x="171" y="85"/>
      <point x="150" y="108"/>
      <point x="150" y="158" type="curve" smooth="yes"/>
      <point x="150" y="352" type="line" smooth="yes"/>
      <point x="150" y="402"/>
      <point x="171" y="425"/>
      <point x="222" y="425" type="curve" smooth="yes"/>
      <point x="283" y="425" type="line" smooth="yes"/>
      <point x="333" y="425"/>
      <point x="355" y="402"/>
      <point x="355" y="352" type="curve" smooth="yes"/>
      <point x="355" y="158" type="line" smooth="yes"/>
      <point x="355" y="108"/>
      <point x="333" y="85"/>
      <point x="283" y="85" type="curve" smooth="yes"/>
    </contour>
    <contour>
      <point x="296" y="0" type="line"/>
      <point x="393" y="0"/>
      <point x="452" y="57"/>
      <point x="452" y="155" type="curve" smooth="yes"/>
      <point x="452" y="355" type="line" smooth="yes"/>
      <point x="452" y="454"/>
      <point x="393" y="510"/>
      <point x="296" y="510" type="curve" smooth="yes"/>
      <point x="208" y="510" type="line" smooth="yes"/>
      <point x="110" y="510"/>
      <point x="53" y="454"/>
      <point x="53" y="355" type="curve" smooth="yes"/>
      <point x="53" y="155" type="line" smooth="yes"/>
      <point x="53" y="57"/>
      <point x="110" y="0"/>
      <point x="208" y="0" type="curve" smooth="yes"/>
    </contour>
  </outline>
</glyph>
<glyph name="p" format="1">
  <advance width="518"/>
  <unicode hex="0070"/>
  <outline>
    <contour>
      <point x="242" y="85" type="line"/>
      <point x="184" y="85"/>
      <point x="160" y="119"/>
      <point x="160" y="170" type="curve" smooth="yes"/>
      <point x="160" y="340" type="line" smooth="yes"/>
      <point x="160" y="391"/>
      <point x="184" y="425"/>
      <point x="242" y="425" type="curve" smooth="yes"/>
      <point x="295" y="425" type="line" smooth="yes"/>
      <point x="345" y="425"/>
      <point x="367" y="400"/>
      <point x="367" y="351" type="curve" smooth="yes"/>
      <point x="367" y="159" type="line" smooth="yes"/>
      <point x="367" y="110"/>
      <point x="345" y="85"/>
      <point x="295" y="85" type="curve" smooth="yes"/>
    </contour>
    <contour>
      <point x="143" y="-141" type="line"/>
      <point x="155" y="-141"/>
      <point x="160" y="-137"/>
      <point x="160" y="-124" type="curve" smooth="yes"/>
      <point x="160" y="53" type="line"/>
      <point x="164" y="53" type="line"/>
      <point x="180" y="18"/>
      <point x="220" y="0"/>
      <point x="265" y="0" type="curve" smooth="yes"/>
      <point x="316" y="0" type="line" smooth="yes"/>
      <point x="413" y="0"/>
      <point x="465" y="57"/>
      <point x="465" y="155" type="curve" smooth="yes"/>
      <point x="465" y="355" type="line" smooth="yes"/>
      <point x="465" y="454"/>
      <point x="413" y="510"/>
      <point x="316" y="510" type="curve" smooth="yes"/>
      <point x="265" y="510" type="line" smooth="yes"/>
      <point x="220" y="510"/>
      <point x="180" y="492"/>
      <point x="164" y="457" type="curve"/>
      <point x="160" y="457" type="line"/>
      <point x="160" y="493" type="line" smooth="yes"/>
      <point x="160" y="506"/>
      <point x="155" y="510"/>
      <point x="143" y="510" type="curve" smooth="yes"/>
      <point x="80" y="510" type="line" smooth="yes"/>
      <point x="68" y="510"/>
      <point x="63" y="506"/>
      <point x="63" y="493" type="curve" smooth="yes"/>
      <point x="63" y="-124" type="line" smooth="yes"/>
      <point x="63" y="-137"/>
      <point x="68" y="-141"/>
      <point x="80" y="-141" type="curve" smooth="yes"/>
    </contour>
  </outline>
</glyph>
<glyph name="q" format="1">
  <advance width="512"/>
  <unicode hex="0071"/>
  <outline>
    <contour>
      <point x="245" y="0" type="line"/>
      <point x="279" y="0"/>
      <point x="325" y="8"/>
      <point x="348" y="55" type="curve"/>
      <point x="352" y="55" type="line"/>
      <point x="352" y="-124" type="line" smooth="yes"/>
      <point x="352" y="-137"/>
      <point x="357" y="-141"/>
      <point x="369" y="-141" type="curve" smooth="yes"/>
      <point x="432" y="-141" type="line" smooth="yes"/>
      <point x="444" y="-141"/>
      <point x="450" y="-137"/>
      <point x="450" y="-124" type="curve" smooth="yes"/>
      <point x="450" y="493" type="line" smooth="yes"/>
      <point x="450" y="506"/>
      <point x="444" y="510"/>
      <point x="432" y="510" type="curve" smooth="yes"/>
      <point x="208" y="510" type="line" smooth="yes"/>
      <point x="110" y="510"/>
      <point x="53" y="454"/>
      <point x="53" y="355" type="curve" smooth="yes"/>
      <point x="53" y="155" type="line" smooth="yes"/>
      <point x="53" y="57"/>
      <point x="110" y="0"/>
      <point x="208" y="0" type="curve" smooth="yes"/>
    </contour>
    <contour>
      <point x="352" y="172" type="line"/>
      <point x="352" y="122"/>
      <point x="328" y="85"/>
      <point x="268" y="85" type="curve" smooth="yes"/>
      <point x="222" y="85" type="line" smooth="yes"/>
      <point x="172" y="85"/>
      <point x="150" y="110"/>
      <point x="150" y="159" type="curve" smooth="yes"/>
      <point x="150" y="351" type="line" smooth="yes"/>
      <point x="150" y="400"/>
      <point x="172" y="425"/>
      <point x="222" y="425" type="curve" smooth="yes"/>
      <point x="341" y="425" type="line" smooth="yes"/>
      <point x="348" y="425"/>
      <point x="352" y="422"/>
      <point x="352" y="415" type="curve" smooth="yes"/>
    </contour>
  </outline>
</glyph>
<glyph name="r" format="1">
  <advance width="335"/>
  <unicode hex="0072"/>
  <outline>
    <contour>
      <point x="143" y="0" type="line"/>
      <point x="155" y="0"/>
      <point x="160" y="4"/>
      <point x="160" y="17" type="curve" smooth="yes"/>
      <point x="160" y="334" type="line" smooth="yes"/>
      <point x="160" y="387"/>
      <point x="184" y="425"/>
      <point x="243" y="425" type="curve" smooth="yes"/>
      <point x="303" y="425" type="line" smooth="yes"/>
      <point x="316" y="423"/>
      <point x="320" y="429"/>
      <point x="320" y="441" type="curve" smooth="yes"/>
      <point x="320" y="493" type="line" smooth="yes"/>
      <point x="320" y="504"/>
      <point x="316" y="510"/>
      <point x="303" y="510" type="curve" smooth="yes"/>
      <point x="266" y="510" type="line" smooth="yes"/>
      <point x="220" y="510"/>
      <point x="178" y="488"/>
      <point x="164" y="455" type="curve"/>
      <point x="160" y="455" type="line"/>
      <point x="160" y="493" type="line" smooth="yes"/>
      <point x="160" y="506"/>
      <point x="155" y="510"/>
      <point x="143" y="510" type="curve" smooth="yes"/>
      <point x="80" y="510" type="line" smooth="yes"/>
      <point x="68" y="510"/>
      <point x="63" y="506"/>
      <point x="63" y="493" type="curve" smooth="yes"/>
      <point x="63" y="17" type="line" smooth="yes"/>
      <point x="63" y="4"/>
      <point x="68" y="0"/>
      <point x="80" y="0" type="curve" smooth="yes"/>
    </contour>
  </outline>
</glyph>
<glyph name="t" format="1">
  <advance width="351"/>
  <unicode hex="0074"/>
  <outline>
    <contour>
      <point x="78" y="425" type="line"/>
      <point x="85" y="425"/>
      <point x="88" y="422"/>
      <point x="88" y="415" type="curve" smooth="yes"/>
      <point x="88" y="153" type="line" smooth="yes"/>
      <point x="88" y="55"/>
      <point x="149" y="0"/>
      <point x="246" y="0" type="curve" smooth="yes"/>
      <point x="300" y="0" type="line" smooth="yes"/>
      <point x="314" y="0"/>
      <point x="318" y="4"/>
      <point x="318" y="16" type="curve" smooth="yes"/>
      <point x="318" y="68" type="line" smooth="yes"/>
      <point x="318" y="80"/>
      <point x="314" y="85"/>
      <point x="300" y="85" type="curve" smooth="yes"/>
      <point x="261" y="85" type="line" smooth="yes"/>
      <point x="211" y="85"/>
      <point x="186" y="109"/>
      <point x="186" y="158" type="curve" smooth="yes"/>
      <point x="186" y="415" type="line" smooth="yes"/>
      <point x="186" y="422"/>
      <point x="189" y="425"/>
      <point x="197" y="425" type="curve" smooth="yes"/>
      <point x="290" y="425" type="line" smooth="yes"/>
      <point x="304" y="425"/>
      <point x="308" y="429"/>
      <point x="308" y="441" type="curve" smooth="yes"/>
      <point x="308" y="493" type="line" smooth="yes"/>
      <point x="308" y="504"/>
      <point x="304" y="510"/>
      <point x="290" y="510" type="curve" smooth="yes"/>
      <point x="197" y="510" type="line" smooth="yes"/>
      <point x="189" y="510"/>
      <point x="186" y="513"/>
      <point x="186" y="520" type="curve" smooth="yes"/>
      <point x="186" y="610" type="line" smooth="yes"/>
      <point x="186" y="623"/>
      <point x="180" y="627"/>
      <point x="169" y="627" type="curve" smooth="yes"/>
      <point x="106" y="627" type="line" smooth="yes"/>
      <point x="95" y="627"/>
      <point x="88" y="623"/>
      <point x="88" y="610" type="curve" smooth="yes"/>
      <point x="88" y="520" type="line" smooth="yes"/>
      <point x="88" y="513"/>
      <point x="85" y="510"/>
      <point x="78" y="510" type="curve" smooth="yes"/>
      <point x="30" y="510" type="line" smooth="yes"/>
      <point x="17" y="510"/>
      <point x="13" y="504"/>
      <point x="13" y="493" type="curve" smooth="yes"/>
      <point x="13" y="441" type="line" smooth="yes"/>
      <point x="13" y="429"/>
      <point x="16" y="425"/>
      <point x="30" y="425" type="curve" smooth="yes"/>
    </contour>
  </outline>
</glyph>
<glyph name="v" format="1">
  <advance width="448"/>
  <unicode hex="0076"/>
  <outline>
    <contour>
      <point x="154" y="18" type="line"/>
      <point x="157" y="6"/>
      <point x="164" y="0"/>
      <point x="176" y="0" type="curve" smooth="yes"/>
      <point x="272" y="0" type="line" smooth="yes"/>
      <point x="284" y="0"/>
      <point x="291" y="6"/>
      <point x="294" y="18" type="curve" smooth="yes"/>
      <point x="429" y="493" type="line" smooth="yes"/>
      <point x="433" y="505"/>
      <point x="428" y="510"/>
      <point x="417" y="510" type="curve" smooth="yes"/>
      <point x="351" y="510" type="line" smooth="yes"/>
      <point x="339" y="510"/>
      <point x="333" y="506"/>
      <point x="330" y="493" type="curve" smooth="yes"/>
      <point x="228" y="91" type="line"/>
      <point x="221" y="91" type="line"/>
      <point x="117" y="493" type="line" smooth="yes"/>
      <point x="115" y="506"/>
      <point x="109" y="510"/>
      <point x="98" y="510" type="curve" smooth="yes"/>
      <point x="31" y="510" type="line" smooth="yes"/>
      <point x="20" y="510"/>
      <point x="16" y="505"/>
      <point x="19" y="493" type="curve" smooth="yes"/>
    </contour>
  </outline>
</glyph>
<glyph name="w" format="1">
  <advance width="691"/>
  <unicode hex="0077"/>
  <outline>
    <contour>
      <point x="242" y="0" type="line"/>
      <point x="255" y="0"/>
      <point x="260" y="5"/>
      <point x="262" y="17" type="curve" smooth="yes"/>
      <point x="341" y="388" type="line"/>
      <point x="348" y="388" type="line"/>
      <point x="428" y="17" type="line" smooth="yes"/>
      <point x="431" y="4"/>
      <point x="436" y="0"/>
      <point x="448" y="0" type="curve" smooth="yes"/>
      <point x="534" y="0" type="line" smooth="yes"/>
      <point x="546" y="0"/>
      <point x="552" y="4"/>
      <point x="554" y="17" type="curve" smooth="yes"/>
      <point x="669" y="493" type="line" smooth="yes"/>
      <point x="672" y="504"/>
      <point x="668" y="510"/>
      <point x="657" y="510" type="curve" smooth="yes"/>
      <point x="585" y="510" type="line" smooth="yes"/>
      <point x="574" y="510"/>
      <point x="567" y="506"/>
      <point x="565" y="493" type="curve" smooth="yes"/>
      <point x="492" y="115" type="line"/>
      <point x="485" y="115" type="line"/>
      <point x="399" y="493" type="line" smooth="yes"/>
      <point x="396" y="506"/>
      <point x="389" y="510"/>
      <point x="378" y="510" type="curve" smooth="yes"/>
      <point x="312" y="510" type="line" smooth="yes"/>
      <point x="301" y="510"/>
      <point x="295" y="506"/>
      <point x="293" y="493" type="curve" smooth="yes"/>
      <point x="205" y="115" type="line"/>
      <point x="198" y="115" type="line"/>
      <point x="125" y="493" type="line" smooth="yes"/>
      <point x="123" y="507"/>
      <point x="116" y="510"/>
      <point x="105" y="510" type="curve" smooth="yes"/>
      <point x="33" y="510" type="line" smooth="yes"/>
      <point x="22" y="510"/>
      <point x="18" y="505"/>
      <point x="21" y="493" type="curve" smooth="yes"/>
      <point x="136" y="17" type="line" smooth="yes"/>
      <point x="139" y="6"/>
      <point x="145" y="0"/>
      <point x="156" y="0" type="curve" smooth="yes"/>
    </contour>
  </outline>
</glyph>
<glyph name="x" format="1">
  <advance width="443"/>
  <unicode hex="0078"/>
  <outline>
    <contour>
      <point x="111" y="0" type="line"/>
      <point x="123" y="0"/>
      <point x="130" y="3"/>
      <point x="136" y="17" type="curve"/>
      <point x="220" y="194" type="line"/>
      <point x="224" y="194" type="line"/>
      <point x="309" y="17" type="line"/>
      <point x="315" y="3"/>
      <point x="321" y="0"/>
      <point x="333" y="0" type="curve" smooth="yes"/>
      <point x="412" y="0" type="line" smooth="yes"/>
      <point x="423" y="0"/>
      <point x="427" y="7"/>
      <point x="421" y="17" type="curve"/>
      <point x="285" y="261" type="line"/>
      <point x="411" y="493" type="line"/>
      <point x="419" y="505"/>
      <point x="412" y="510"/>
      <point x="401" y="510" type="curve" smooth="yes"/>
      <point x="325" y="510" type="line" smooth="yes"/>
      <point x="314" y="510"/>
      <point x="306" y="507"/>
      <point x="300" y="493" type="curve"/>
      <point x="224" y="321" type="line"/>
      <point x="220" y="321" type="line"/>
      <point x="139" y="493" type="line"/>
      <point x="133" y="507"/>
      <point x="124" y="510"/>
      <point x="113" y="510" type="curve" smooth="yes"/>
      <point x="36" y="510" type="line" smooth="yes"/>
      <point x="26" y="510"/>
      <point x="19" y="505"/>
      <point x="27" y="493" type="curve"/>
      <point x="157" y="260" type="line"/>
      <point x="24" y="17" type="line" smooth="yes"/>
      <point x="17" y="6"/>
      <point x="23" y="0"/>
      <point x="35" y="0" type="curve" smooth="yes"/>
    </contour>
  </outline>
</glyph>
<glyph name="y" format="1">
  <advance width="467"/>
  <unicode hex="0079"/>
  <outline>
    <contour>
      <point x="123" y="-162" type="line"/>
      <point x="234" y="-162"/>
      <point x="280" y="-89"/>
      <point x="308" y="11" type="curve"/>
      <point x="445" y="492" type="line" smooth="yes"/>
      <point x="447" y="504"/>
      <point x="441" y="510"/>
      <point x="429" y="510" type="curve" smooth="yes"/>
      <point x="365" y="510" type="line" smooth="yes"/>
      <point x="355" y="510"/>
      <point x="347" y="505"/>
      <point x="345" y="493" type="curve" smooth="yes"/>
      <point x="236" y="101" type="line"/>
      <point x="232" y="101" type="line"/>
      <point x="123" y="493" type="line" smooth="yes"/>
      <point x="120" y="506"/>
      <point x="113" y="510"/>
      <point x="103" y="510" type="curve" smooth="yes"/>
      <point x="36" y="510" type="line" smooth="yes"/>
      <point x="24" y="510"/>
      <point x="20" y="505"/>
      <point x="23" y="493" type="curve" smooth="yes"/>
      <point x="156" y="44" type="line" smooth="yes"/>
      <point x="160" y="33"/>
      <point x="165" y="27"/>
      <point x="177" y="27" type="curve" smooth="yes"/>
      <point x="217" y="27" type="line"/>
      <point x="199" y="-37"/>
      <point x="181" y="-76"/>
      <point x="93" y="-76" type="curve" smooth="yes"/>
      <point x="70" y="-76" type="line" smooth="yes"/>
      <point x="57" y="-76"/>
      <point x="53" y="-83"/>
      <point x="53" y="-94" type="curve" smooth="yes"/>
      <point x="53" y="-145" type="line" smooth="yes"/>
      <point x="53" y="-156"/>
      <point x="57" y="-162"/>
      <point x="70" y="-162" type="curve" smooth="yes"/>
    </contour>
  </outline>
</glyph>
<glyph name="z" format="1">
  <advance width="432"/>
  <unicode hex="007A"/>
  <outline>
    <contour>
      <point x="32" y="17" type="line"/>
      <point x="32" y="6"/>
      <point x="36" y="0"/>
      <point x="50" y="0" type="curve" smooth="yes"/>
      <point x="383" y="0" type="line" smooth="yes"/>
      <point x="396" y="0"/>
      <point x="401" y="6"/>
      <point x="401" y="17" type="curve" smooth="yes"/>
      <point x="401" y="67" type="line" smooth="yes"/>
      <point x="401" y="78"/>
      <point x="396" y="85"/>
      <point x="383" y="85" type="curve" smooth="yes"/>
      <point x="160" y="85" type="line"/>
      <point x="160" y="89" type="line"/>
      <point x="379" y="409" type="line" smooth="yes"/>
      <point x="386" y="417"/>
      <point x="391" y="424"/>
      <point x="391" y="447" type="curve" smooth="yes"/>
      <point x="391" y="493" type="line" smooth="yes"/>
      <point x="391" y="504"/>
      <point x="386" y="510"/>
      <point x="374" y="510" type="curve" smooth="yes"/>
      <point x="58" y="510" type="line" smooth="yes"/>
      <point x="45" y="510"/>
      <point x="40" y="504"/>
      <point x="40" y="493" type="curve" smooth="yes"/>
      <point x="40" y="443" type="line" smooth="yes"/>
      <point x="40" y="432"/>
      <point x="45" y="425"/>
      <point x="58" y="425" type="curve" smooth="yes"/>
      <point x="277" y="425" type="line"/>
      <point x="277" y="421" type="line"/>
      <point x="46" y="86" type="line" smooth="yes"/>
      <point x="38" y="76"/>
      <point x="32" y="67"/>
      <point x="32" y="43" type="curve" smooth="yes"/>
    </contour>
  </outline>
</glyph>
<glyph name="braceleft" format="1">
  <advance width="308"/>
  <unicode hex="007B"/>
  <outline>
    <contour>
      <point x="231" y="643" type="line"/>
      <point x="138" y="643"/>
      <point x="95" y="587"/>
      <point x="95" y="488" type="curve" smooth="yes"/>
      <point x="95" y="375" type="line" smooth="yes"/>
      <point x="95" y="329"/>
      <point x="77" y="313"/>
      <point x="46" y="313" type="curve" smooth="yes"/>
      <point x="32" y="313"/>
      <point x="28" y="307"/>
      <point x="28" y="296" type="curve" smooth="yes"/>
      <point x="28" y="245" type="line" smooth="yes"/>
      <point x="28" y="233"/>
      <point x="32" y="227"/>
      <point x="46" y="227" type="curve" smooth="yes"/>
      <point x="77" y="227"/>
      <point x="95" y="212"/>
      <point x="95" y="166" type="curve" smooth="yes"/>
      <point x="95" y="53" type="line" smooth="yes"/>
      <point x="95" y="-46"/>
      <point x="138" y="-102"/>
      <point x="231" y="-102" type="curve" smooth="yes"/>
      <point x="237" y="-102" type="line" smooth="yes"/>
      <point x="250" y="-102"/>
      <point x="254" y="-96"/>
      <point x="254" y="-85" type="curve" smooth="yes"/>
      <point x="254" y="-48" type="line" smooth="yes"/>
      <point x="254" y="-37"/>
      <point x="250" y="-31"/>
      <point x="237" y="-31" type="curve" smooth="yes"/>
      <point x="234" y="-31" type="line" smooth="yes"/>
      <point x="188" y="-31"/>
      <point x="174" y="-7"/>
      <point x="174" y="43" type="curve" smooth="yes"/>
      <point x="174" y="173" type="line" smooth="yes"/>
      <point x="174" y="225"/>
      <point x="156" y="258"/>
      <point x="115" y="270" type="curve"/>
      <point x="158" y="284"/>
      <point x="174" y="316"/>
      <point x="174" y="368" type="curve" smooth="yes"/>
      <point x="174" y="498" type="line" smooth="yes"/>
      <point x="174" y="548"/>
      <point x="188" y="572"/>
      <point x="234" y="572" type="curve" smooth="yes"/>
      <point x="237" y="572" type="line" smooth="yes"/>
      <point x="250" y="572"/>
      <point x="254" y="578"/>
      <point x="254" y="589" type="curve" smooth="yes"/>
      <point x="254" y="626" type="line" smooth="yes"/>
      <point x="254" y="637"/>
      <point x="250" y="643"/>
      <point x="237" y="643" type="curve" smooth="yes"/>
    </contour>
  </outline>
</glyph>
<glyph name="bar" format="1">
  <advance width="222"/>
  <unicode hex="007C"/>
  <outline>
    <contour>
      <point x="146" y="626" type="line"/>
      <point x="146" y="639"/>
      <point x="139" y="643"/>
      <point x="128" y="643" type="curve" smooth="yes"/>
      <point x="94" y="643" type="line" smooth="yes"/>
      <point x="82" y="643"/>
      <point x="77" y="639"/>
      <point x="77" y="626" type="curve" smooth="yes"/>
      <point x="77" y="17" type="line" smooth="yes"/>
      <point x="77" y="4"/>
      <point x="82" y="0"/>
      <point x="94" y="0" type="curve" smooth="yes"/>
      <point x="128" y="0" type="line" smooth="yes"/>
      <point x="139" y="0"/>
      <point x="146" y="4"/>
      <point x="146" y="17" type="curve" smooth="yes"/>
    </contour>
  </outline>
</glyph>
<glyph name="braceright" format="1">
  <advance width="308"/>
  <unicode hex="007D"/>
  <outline>
    <contour>
      <point x="188" y="488" type="line"/>
      <point x="188" y="587"/>
      <point x="144" y="643"/>
      <point x="52" y="643" type="curve" smooth="yes"/>
      <point x="46" y="643" type="line" smooth="yes"/>
      <point x="32" y="643"/>
      <point x="28" y="637"/>
      <point x="28" y="626" type="curve" smooth="yes"/>
      <point x="28" y="589" type="line" smooth="yes"/>
      <point x="28" y="578"/>
      <point x="32" y="572"/>
      <point x="46" y="572" type="curve" smooth="yes"/>
      <point x="49" y="572" type="line" smooth="yes"/>
      <point x="95" y="572"/>
      <point x="108" y="548"/>
      <point x="108" y="498" type="curve" smooth="yes"/>
      <point x="108" y="368" type="line" smooth="yes"/>
      <point x="108" y="316"/>
      <point x="125" y="284"/>
      <point x="167" y="270" type="curve"/>
      <point x="126" y="258"/>
      <point x="108" y="225"/>
      <point x="108" y="173" type="curve" smooth="yes"/>
      <point x="108" y="43" type="line" smooth="yes"/>
      <point x="108" y="-7"/>
      <point x="95" y="-31"/>
      <point x="49" y="-31" type="curve" smooth="yes"/>
      <point x="46" y="-31" type="line" smooth="yes"/>
      <point x="32" y="-31"/>
      <point x="28" y="-37"/>
      <point x="28" y="-48" type="curve" smooth="yes"/>
      <point x="28" y="-85" type="line" smooth="yes"/>
      <point x="28" y="-96"/>
      <point x="32" y="-102"/>
      <point x="46" y="-102" type="curve" smooth="yes"/>
      <point x="52" y="-102" type="line" smooth="yes"/>
      <point x="144" y="-102"/>
      <point x="188" y="-46"/>
      <point x="188" y="53" type="curve" smooth="yes"/>
      <point x="188" y="166" type="line" smooth="yes"/>
      <point x="188" y="212"/>
      <point x="205" y="227"/>
      <point x="237" y="227" type="curve" smooth="yes"/>
      <point x="250" y="227"/>
      <point x="254" y="233"/>
      <point x="254" y="245" type="curve" smooth="yes"/>
      <point x="254" y="296" type="line" smooth="yes"/>
      <point x="254" y="307"/>
      <point x="250" y="313"/>
      <point x="237" y="313" type="curve" smooth="yes"/>
      <point x="205" y="313"/>
      <point x="188" y="329"/>
      <point x="188" y="375" type="curve" smooth="yes"/>
    </contour>
  </outline>
</glyph>
<glyph name="asciitilde" format="1">
  <advance width="549"/>
  <unicode hex="007E"/>
  <outline>
    <contour>
      <point x="174" y="300" type="curve" smooth="yes"/>
      <point x="234" y="300"/>
      <point x="306" y="269"/>
      <point x="373" y="269" type="curve" smooth="yes"/>
      <point x="405" y="269"/>
      <point x="434" y="275"/>
      <point x="455" y="284" type="curve" smooth="yes"/>
      <point x="472" y="292"/>
      <point x="479" y="299"/>
      <point x="479" y="315" type="curve" smooth="yes"/>
      <point x="479" y="359" type="line" smooth="yes"/>
      <point x="479" y="366"/>
      <point x="474" y="371"/>
      <point x="467" y="371" type="curve" smooth="yes"/>
      <point x="452" y="371"/>
      <point x="422" y="344"/>
      <point x="375" y="344" type="curve" smooth="yes"/>
      <point x="305" y="344"/>
      <point x="241" y="375"/>
      <point x="176" y="375" type="curve" smooth="yes"/>
      <point x="144" y="375"/>
      <point x="115" y="368"/>
      <point x="94" y="360" type="curve" smooth="yes"/>
      <point x="77" y="352"/>
      <point x="70" y="345"/>
      <point x="70" y="329" type="curve" smooth="yes"/>
      <point x="70" y="286" type="line" smooth="yes"/>
      <point x="70" y="278"/>
      <point x="75" y="273"/>
      <point x="82" y="273" type="curve" smooth="yes"/>
      <point x="98" y="273"/>
      <point x="128" y="300"/>
    </contour>
  </outline>
</glyph>
<glyph name="exclamdown" format="1">
  <advance width="238"/>
  <unicode hex="00A1"/>
  <outline>
    <contour>
      <point x="98" y="290" type="line"/>
      <point x="87" y="290"/>
      <point x="82" y="285"/>
      <point x="80" y="272" type="curve" smooth="yes"/>
      <point x="79" y="263"/>
      <point x="65" y="115"/>
      <point x="65" y="19" type="curve" smooth="yes"/>
      <point x="65" y="-115" type="line" smooth="yes"/>
      <point x="65" y="-128"/>
      <point x="71" y="-132"/>
      <point x="82" y="-132" type="curve" smooth="yes"/>
      <point x="155" y="-132" type="line" smooth="yes"/>
      <point x="166" y="-132"/>
      <point x="172" y="-128"/>
      <point x="172" y="-115" type="curve" smooth="yes"/>
      <point x="172" y="19" type="line" smooth="yes"/>
      <point x="172" y="115"/>
      <point x="158" y="263"/>
      <point x="157" y="272" type="curve" smooth="yes"/>
      <point x="155" y="285"/>
      <point x="150" y="290"/>
      <point x="139" y="290" type="curve" smooth="yes"/>
    </contour>
    <contour>
      <point x="153" y="356" type="line"/>
      <point x="163" y="356"/>
      <point x="169" y="360"/>
      <point x="169" y="372" type="curve" smooth="yes"/>
      <point x="169" y="493" type="line" smooth="yes"/>
      <point x="169" y="505"/>
      <point x="164" y="511"/>
      <point x="153" y="511" type="curve" smooth="yes"/>
      <point x="86" y="511" type="line" smooth="yes"/>
      <point x="75" y="511"/>
      <point x="70" y="504"/>
      <point x="70" y="493" type="curve" smooth="yes"/>
      <point x="70" y="372" type="line" smooth="yes"/>
      <point x="70" y="360"/>
      <point x="75" y="356"/>
      <point x="86" y="356" type="curve" smooth="yes"/>
    </contour>
  </outline>
</glyph>
<glyph name="cent" format="1">
  <advance width="424"/>
  <unicode hex="00A2"/>
  <outline>
    <contour>
      <point x="281" y="-93" type="line"/>
      <point x="291" y="-93"/>
      <point x="297" y="-88"/>
      <point x="297" y="-77" type="curve" smooth="yes"/>
      <point x="297" y="0" type="line"/>
      <point x="368" y="0" type="line" smooth="yes"/>
      <point x="381" y="0"/>
      <point x="386" y="6"/>
      <point x="386" y="17" type="curve" smooth="yes"/>
      <point x="386" y="69" type="line" smooth="yes"/>
      <point x="386" y="80"/>
      <point x="381" y="85"/>
      <point x="368" y="85" type="curve" smooth="yes"/>
      <point x="222" y="85" type="line" smooth="yes"/>
      <point x="173" y="85"/>
      <point x="150" y="110"/>
      <point x="150" y="159" type="curve" smooth="yes"/>
      <point x="150" y="351" type="line" smooth="yes"/>
      <point x="150" y="400"/>
      <point x="173" y="425"/>
      <point x="222" y="425" type="curve" smooth="yes"/>
      <point x="368" y="425" type="line" smooth="yes"/>
      <point x="381" y="425"/>
      <point x="386" y="430"/>
      <point x="386" y="441" type="curve" smooth="yes"/>
      <point x="386" y="493" type="line" smooth="yes"/>
      <point x="386" y="504"/>
      <point x="369" y="510"/>
      <point x="357" y="510" type="curve" smooth="yes"/>
      <point x="297" y="510" type="line"/>
      <point x="297" y="593" type="line" smooth="yes"/>
      <point x="297" y="604"/>
      <point x="291" y="609"/>
      <point x="281" y="609" type="curve" smooth="yes"/>
      <point x="233" y="609" type="line" smooth="yes"/>
      <point x="222" y="609"/>
      <point x="216" y="604"/>
      <point x="216" y="592" type="curve" smooth="yes"/>
      <point x="216" y="510" type="line"/>
      <point x="199" y="510" type="line" smooth="yes"/>
      <point x="107" y="510"/>
      <point x="53" y="451"/>
      <point x="53" y="355" type="curve" smooth="yes"/>
      <point x="53" y="155" type="line" smooth="yes"/>
      <point x="53" y="59"/>
      <point x="107" y="0"/>
      <point x="199" y="0" type="curve" smooth="yes"/>
      <point x="216" y="0" type="line"/>
      <point x="216" y="-76" type="line" smooth="yes"/>
      <point x="216" y="-88"/>
      <point x="222" y="-93"/>
      <point x="233" y="-93" type="curve" smooth="yes"/>
    </contour>
  </outline>
</glyph>
<glyph name="sterling" format="1">
  <advance width="546"/>
  <unicode hex="00A3"/>
  <outline>
    <contour>
      <point x="154" y="81" type="line"/>
      <point x="154" y="81"/>
      <point x="154" y="84"/>
      <point x="154" y="85" type="curve"/>
      <point x="173" y="85"/>
      <point x="194" y="112"/>
      <point x="194" y="159" type="curve" smooth="yes"/>
      <point x="194" y="258" type="line"/>
      <point x="324" y="258" type="line" smooth="yes"/>
      <point x="337" y="258"/>
      <point x="341" y="264"/>
      <point x="341" y="276" type="curve" smooth="yes"/>
      <point x="341" y="322" type="line" smooth="yes"/>
      <point x="341" y="333"/>
      <point x="337" y="339"/>
      <point x="324" y="339" type="curve" smooth="yes"/>
      <point x="194" y="339" type="line"/>
      <point x="194" y="488" type="line" smooth="yes"/>
      <point x="194" y="538"/>
      <point x="218" y="560"/>
      <point x="268" y="560" type="curve" smooth="yes"/>
      <point x="304" y="560" type="line" smooth="yes"/>
      <point x="354" y="560"/>
      <point x="376" y="538"/>
      <point x="376" y="488" type="curve" smooth="yes"/>
      <point x="376" y="464" type="line" smooth="yes"/>
      <point x="376" y="451"/>
      <point x="382" y="446"/>
      <point x="394" y="446" type="curve" smooth="yes"/>
      <point x="457" y="446" type="line" smooth="yes"/>
      <point x="468" y="446"/>
      <point x="474" y="451"/>
      <point x="474" y="464" type="curve" smooth="yes"/>
      <point x="474" y="490" type="line" smooth="yes"/>
      <point x="474" y="588"/>
      <point x="416" y="643"/>
      <point x="319" y="643" type="curve" smooth="yes"/>
      <point x="254" y="643" type="line" smooth="yes"/>
      <point x="157" y="643"/>
      <point x="98" y="588"/>
      <point x="98" y="490" type="curve" smooth="yes"/>
      <point x="98" y="339" type="line"/>
      <point x="46" y="339" type="line" smooth="yes"/>
      <point x="32" y="339"/>
      <point x="28" y="333"/>
      <point x="28" y="322" type="curve" smooth="yes"/>
      <point x="28" y="276" type="line" smooth="yes"/>
      <point x="28" y="264"/>
      <point x="32" y="258"/>
      <point x="46" y="258" type="curve" smooth="yes"/>
      <point x="98" y="258" type="line"/>
      <point x="98" y="147" type="line" smooth="yes"/>
      <point x="98" y="106"/>
      <point x="79" y="81"/>
      <point x="54" y="81" type="curve" smooth="yes"/>
      <point x="46" y="81" type="line" smooth="yes"/>
      <point x="32" y="81"/>
      <point x="28" y="75"/>
      <point x="28" y="63" type="curve" smooth="yes"/>
      <point x="28" y="17" type="line" smooth="yes"/>
      <point x="28" y="6"/>
      <point x="32" y="0"/>
      <point x="46" y="0" type="curve" smooth="yes"/>
      <point x="464" y="0" type="line" smooth="yes"/>
      <point x="477" y="0"/>
      <point x="481" y="6"/>
      <point x="481" y="17" type="curve" smooth="yes"/>
      <point x="481" y="63" type="line" smooth="yes"/>
      <point x="481" y="75"/>
      <point x="477" y="81"/>
      <point x="464" y="81" type="curve" smooth="yes"/>
    </contour>
  </outline>
</glyph>
<glyph name="currency" format="1">
  <advance width="516"/>
  <unicode hex="00A4"/>
  <outline>
    <contour>
      <point x="239" y="203" type="line"/>
      <point x="189" y="203"/>
      <point x="167" y="226"/>
      <point x="167" y="276" type="curve" smooth="yes"/>
      <point x="167" y="335" type="line" smooth="yes"/>
      <point x="167" y="385"/>
      <point x="189" y="408"/>
      <point x="239" y="408" type="curve" smooth="yes"/>
      <point x="277" y="408" type="line" smooth="yes"/>
      <point x="327" y="408"/>
      <point x="350" y="385"/>
      <point x="350" y="335" type="curve" smooth="yes"/>
      <point x="350" y="276" type="line" smooth="yes"/>
      <point x="350" y="226"/>
      <point x="327" y="203"/>
      <point x="277" y="203" type="curve" smooth="yes"/>
    </contour>
    <contour>
      <point x="291" y="118" type="line"/>
      <point x="388" y="118"/>
      <point x="446" y="175"/>
      <point x="446" y="273" type="curve" smooth="yes"/>
      <point x="446" y="345" type="line" smooth="yes"/>
      <point x="446" y="444"/>
      <point x="388" y="493"/>
      <point x="291" y="493" type="curve" smooth="yes"/>
      <point x="226" y="493" type="line" smooth="yes"/>
      <point x="128" y="493"/>
      <point x="70" y="444"/>
      <point x="70" y="345" type="curve" smooth="yes"/>
      <point x="70" y="273" type="line" smooth="yes"/>
      <point x="70" y="175"/>
      <point x="128" y="118"/>
      <point x="226" y="118" type="curve" smooth="yes"/>
    </contour>
    <contour>
      <point x="323" y="175" type="line"/>
      <point x="427" y="77" type="line" smooth="yes"/>
      <point x="437" y="67"/>
      <point x="445" y="68"/>
      <point x="454" y="77" type="curve" smooth="yes"/>
      <point x="486" y="110" type="line" smooth="yes"/>
      <point x="496" y="119"/>
      <point x="497" y="126"/>
      <point x="486" y="136" type="curve" smooth="yes"/>
      <point x="383" y="236" type="line"/>
    </contour>
    <contour>
      <point x="195" y="440" type="line"/>
      <point x="91" y="539" type="line" smooth="yes"/>
      <point x="81" y="550"/>
      <point x="73" y="549"/>
      <point x="64" y="539" type="curve" smooth="yes"/>
      <point x="31" y="506" type="line" smooth="yes"/>
      <point x="22" y="497"/>
      <point x="21" y="490"/>
      <point x="31" y="479" type="curve" smooth="yes"/>
      <point x="142" y="374" type="line"/>
    </contour>
    <contour>
      <point x="375" y="373" type="line"/>
      <point x="487" y="479" type="line" smooth="yes"/>
      <point x="497" y="490"/>
      <point x="496" y="497"/>
      <point x="486" y="506" type="curve" smooth="yes"/>
      <point x="454" y="539" type="line" smooth="yes"/>
      <point x="444" y="549"/>
      <point x="437" y="550"/>
      <point x="427" y="539" type="curve" smooth="yes"/>
      <point x="324" y="441" type="line"/>
    </contour>
    <contour>
      <point x="135" y="236" type="line"/>
      <point x="31" y="136" type="line" smooth="yes"/>
      <point x="21" y="126"/>
      <point x="22" y="119"/>
      <point x="31" y="110" type="curve" smooth="yes"/>
      <point x="64" y="77" type="line" smooth="yes"/>
      <point x="72" y="68"/>
      <point x="80" y="67"/>
      <point x="91" y="77" type="curve" smooth="yes"/>
      <point x="196" y="177" type="line"/>
    </contour>
  </outline>
</glyph>
<glyph name="yen" format="1">
  <advance width="526"/>
  <unicode hex="00A5"/>
  <outline>
    <contour>
      <point x="295" y="0" type="line"/>
      <point x="306" y="0"/>
      <point x="312" y="4"/>
      <point x="312" y="17" type="curve" smooth="yes"/>
      <point x="312" y="160" type="line"/>
      <point x="464" y="160" type="line" smooth="yes"/>
      <point x="479" y="160"/>
      <point x="483" y="165"/>
      <point x="483" y="178" type="curve" smooth="yes"/>
      <point x="483" y="208" type="line" smooth="yes"/>
      <point x="483" y="222"/>
      <point x="479" y="228"/>
      <point x="464" y="228" type="curve" smooth="yes"/>
      <point x="315" y="228" type="line"/>
      <point x="315" y="245" type="line"/>
      <point x="345" y="307" type="line"/>
      <point x="464" y="307" type="line" smooth="yes"/>
      <point x="479" y="307"/>
      <point x="483" y="312"/>
      <point x="483" y="325" type="curve" smooth="yes"/>
      <point x="483" y="355" type="line" smooth="yes"/>
      <point x="483" y="369"/>
      <point x="479" y="375"/>
      <point x="464" y="375" type="curve" smooth="yes"/>
      <point x="378" y="375" type="line"/>
      <point x="500" y="626" type="line" smooth="yes"/>
      <point x="505" y="638"/>
      <point x="501" y="643"/>
      <point x="489" y="643" type="curve" smooth="yes"/>
      <point x="409" y="643" type="line" smooth="yes"/>
      <point x="397" y="643"/>
      <point x="395" y="638"/>
      <point x="390" y="626" type="curve" smooth="yes"/>
      <point x="265" y="341" type="line"/>
      <point x="261" y="341" type="line"/>
      <point x="136" y="626" type="line" smooth="yes"/>
      <point x="131" y="638"/>
      <point x="129" y="643"/>
      <point x="118" y="643" type="curve" smooth="yes"/>
      <point x="37" y="643" type="line" smooth="yes"/>
      <point x="25" y="643"/>
      <point x="21" y="638"/>
      <point x="26" y="626" type="curve" smooth="yes"/>
      <point x="149" y="375" type="line"/>
      <point x="61" y="375" type="line" smooth="yes"/>
      <point x="47" y="375"/>
      <point x="42" y="369"/>
      <point x="42" y="355" type="curve" smooth="yes"/>
      <point x="42" y="325" type="line" smooth="yes"/>
      <point x="42" y="312"/>
      <point x="47" y="307"/>
      <point x="61" y="307" type="curve" smooth="yes"/>
      <point x="181" y="307" type="line"/>
      <point x="211" y="245" type="line"/>
      <point x="211" y="228" type="line"/>
      <point x="61" y="228" type="line" smooth="yes"/>
      <point x="47" y="228"/>
      <point x="42" y="222"/>
      <point x="42" y="208" type="curve" smooth="yes"/>
      <point x="42" y="178" type="line" smooth="yes"/>
      <point x="42" y="165"/>
      <point x="47" y="160"/>
      <point x="61" y="160" type="curve" smooth="yes"/>
      <point x="214" y="160" type="line"/>
      <point x="214" y="17" type="line" smooth="yes"/>
      <point x="214" y="4"/>
      <point x="220" y="0"/>
      <point x="231" y="0" type="curve" smooth="yes"/>
    </contour>
  </outline>
</glyph>
<glyph name="brokenbar" format="1">
  <advance width="219"/>
  <unicode hex="00A6"/>
  <outline>
    <contour>
      <point x="145" y="253" type="line"/>
      <point x="145" y="266"/>
      <point x="139" y="271"/>
      <point x="127" y="271" type="curve" smooth="yes"/>
      <point x="92" y="271" type="line" smooth="yes"/>
      <point x="80" y="271"/>
      <point x="74" y="266"/>
      <point x="74" y="253" type="curve" smooth="yes"/>
      <point x="74" y="17" type="line" smooth="yes"/>
      <point x="74" y="4"/>
      <point x="80" y="0"/>
      <point x="92" y="0" type="curve" smooth="yes"/>
      <point x="127" y="0" type="line" smooth="yes"/>
      <point x="139" y="0"/>
      <point x="145" y="4"/>
      <point x="145" y="17" type="curve" smooth="yes"/>
    </contour>
    <contour>
      <point x="145" y="626" type="line"/>
      <point x="145" y="639"/>
      <point x="139" y="643"/>
      <point x="127" y="643" type="curve" smooth="yes"/>
      <point x="92" y="643" type="line" smooth="yes"/>
      <point x="80" y="643"/>
      <point x="74" y="639"/>
      <point x="74" y="626" type="curve" smooth="yes"/>
      <point x="74" y="390" type="line" smooth="yes"/>
      <point x="74" y="377"/>
      <point x="80" y="373"/>
      <point x="92" y="373" type="curve" smooth="yes"/>
      <point x="127" y="373" type="line" smooth="yes"/>
      <point x="139" y="373"/>
      <point x="145" y="377"/>
      <point x="145" y="390" type="curve" smooth="yes"/>
    </contour>
  </outline>
</glyph>
<glyph name="section" format="1">
  <advance width="476"/>
  <unicode hex="00A7"/>
  <outline>
    <contour>
      <point x="325" y="302" type="line"/>
      <point x="325" y="334"/>
      <point x="307" y="351"/>
      <point x="270" y="360" type="curve" smooth="yes"/>
      <point x="207" y="374" type="line"/>
      <point x="187" y="379"/>
      <point x="168" y="385"/>
      <point x="151" y="395" type="curve"/>
      <point x="151" y="345" type="line" smooth="yes"/>
      <point x="151" y="316"/>
      <point x="166" y="292"/>
      <point x="207" y="283" type="curve" smooth="yes"/>
      <point x="268" y="270" type="line" smooth="yes"/>
      <point x="290" y="266"/>
      <point x="309" y="259"/>
      <point x="325" y="250" type="curve"/>
    </contour>
    <contour>
      <point x="91" y="0" type="line"/>
      <point x="78" y="0"/>
      <point x="73" y="6"/>
      <point x="73" y="17" type="curve" smooth="yes"/>
      <point x="73" y="69" type="line" smooth="yes"/>
      <point x="73" y="81"/>
      <point x="78" y="85"/>
      <point x="91" y="85" type="curve" smooth="yes"/>
      <point x="254" y="85" type="line" smooth="yes"/>
      <point x="307" y="85"/>
      <point x="318" y="109"/>
      <point x="318" y="139" type="curve" smooth="yes"/>
      <point x="318" y="171"/>
      <point x="298" y="183"/>
      <point x="251" y="193" type="curve" smooth="yes"/>
      <point x="157" y="212" type="line"/>
      <point x="94" y="226"/>
      <point x="60" y="270"/>
      <point x="60" y="339" type="curve" smooth="yes"/>
      <point x="60" y="512" type="line" smooth="yes"/>
      <point x="60" y="589"/>
      <point x="105" y="643"/>
      <point x="210" y="643" type="curve" smooth="yes"/>
      <point x="374" y="643" type="line" smooth="yes"/>
      <point x="386" y="643"/>
      <point x="390" y="637"/>
      <point x="390" y="626" type="curve" smooth="yes"/>
      <point x="390" y="574" type="line" smooth="yes"/>
      <point x="390" y="562"/>
      <point x="386" y="558"/>
      <point x="374" y="558" type="curve" smooth="yes"/>
      <point x="213" y="558" type="line" smooth="yes"/>
      <point x="179" y="558"/>
      <point x="158" y="542"/>
      <point x="158" y="507" type="curve" smooth="yes"/>
      <point x="158" y="479"/>
      <point x="171" y="462"/>
      <point x="225" y="451" type="curve" smooth="yes"/>
      <point x="318" y="432" type="line" smooth="yes"/>
      <point x="384" y="417"/>
      <point x="416" y="376"/>
      <point x="416" y="308" type="curve" smooth="yes"/>
      <point x="416" y="136" type="line" smooth="yes"/>
      <point x="416" y="54"/>
      <point x="370" y="0"/>
      <point x="261" y="0" type="curve" smooth="yes"/>
    </contour>
  </outline>
</glyph>
<glyph name="dieresis" format="1">
  <advance width="389"/>
  <unicode hex="00A8"/>
  <outline>
    <contour>
      <point x="238" y="591" type="line"/>
      <point x="238" y="580"/>
      <point x="243" y="574"/>
      <point x="254" y="574" type="curve" smooth="yes"/>
      <point x="314" y="574" type="line" smooth="yes"/>
      <point x="324" y="574"/>
      <point x="330" y="580"/>
      <point x="330" y="591" type="curve" smooth="yes"/>
      <point x="330" y="687" type="line" smooth="yes"/>
      <point x="330" y="699"/>
      <point x="324" y="703"/>
      <point x="314" y="703" type="curve" smooth="yes"/>
      <point x="254" y="703" type="line" smooth="yes"/>
      <point x="243" y="703"/>
      <point x="238" y="698"/>
      <point x="238" y="686" type="curve" smooth="yes"/>
    </contour>
    <contour>
      <point x="58" y="591" type="line"/>
      <point x="58" y="580"/>
      <point x="63" y="574"/>
      <point x="75" y="574" type="curve" smooth="yes"/>
      <point x="134" y="574" type="line" smooth="yes"/>
      <point x="145" y="574"/>
      <point x="150" y="580"/>
      <point x="150" y="591" type="curve" smooth="yes"/>
      <point x="150" y="687" type="line" smooth="yes"/>
      <point x="150" y="699"/>
      <point x="145" y="703"/>
      <point x="134" y="703" type="curve" smooth="yes"/>
      <point x="75" y="703" type="line" smooth="yes"/>
      <point x="63" y="703"/>
      <point x="58" y="698"/>
      <point x="58" y="686" type="curve" smooth="yes"/>
    </contour>
  </outline>
</glyph>
<glyph name="copyright" format="1">
  <advance width="711"/>
  <unicode hex="00A9"/>
  <outline>
    <contour>
      <point x="195" y="643" type="line"/>
      <point x="116" y="643"/>
      <point x="67" y="595"/>
      <point x="67" y="515" type="curve" smooth="yes"/>
      <point x="67" y="128" type="line" smooth="yes"/>
      <point x="67" y="48"/>
      <point x="116" y="0"/>
      <point x="195" y="0" type="curve" smooth="yes"/>
      <point x="516" y="0" type="line" smooth="yes"/>
      <point x="595" y="0"/>
      <point x="645" y="48"/>
      <point x="645" y="128" type="curve" smooth="yes"/>
      <point x="645" y="515" type="line" smooth="yes"/>
      <point x="645" y="595"/>
      <point x="595" y="643"/>
      <point x="516" y="643" type="curve" smooth="yes"/>
    </contour>
    <contour>
      <point x="213" y="60" type="line"/>
      <point x="158" y="60"/>
      <point x="132" y="84"/>
      <point x="132" y="139" type="curve" smooth="yes"/>
      <point x="132" y="504" type="line" smooth="yes"/>
      <point x="132" y="559"/>
      <point x="158" y="583"/>
      <point x="213" y="583" type="curve" smooth="yes"/>
      <point x="498" y="583" type="line" smooth="yes"/>
      <point x="552" y="583"/>
      <point x="579" y="559"/>
      <point x="579" y="504" type="curve" smooth="yes"/>
      <point x="579" y="139" type="line" smooth="yes"/>
      <point x="579" y="84"/>
      <point x="552" y="60"/>
      <point x="498" y="60" type="curve" smooth="yes"/>
    </contour>
    <contour>
      <point x="492" y="403" type="line"/>
      <point x="492" y="477"/>
      <point x="451" y="512"/>
      <point x="378" y="512" type="curve" smooth="yes"/>
      <point x="335" y="512" type="line" smooth="yes"/>
      <point x="263" y="512"/>
      <point x="221" y="477"/>
      <point x="221" y="403" type="curve" smooth="yes"/>
      <point x="221" y="239" type="line" smooth="yes"/>
      <point x="221" y="166"/>
      <point x="263" y="130"/>
      <point x="335" y="130" type="curve" smooth="yes"/>
      <point x="378" y="130" type="line" smooth="yes"/>
      <point x="451" y="130"/>
      <point x="492" y="166"/>
      <point x="492" y="239" type="curve" smooth="yes"/>
      <point x="492" y="266" type="line" smooth="yes"/>
      <point x="492" y="276"/>
      <point x="488" y="279"/>
      <point x="480" y="279" type="curve" smooth="yes"/>
      <point x="439" y="279" type="line" smooth="yes"/>
      <point x="431" y="279"/>
      <point x="427" y="276"/>
      <point x="427" y="266" type="curve" smooth="yes"/>
      <point x="427" y="250" type="line" smooth="yes"/>
      <point x="427" y="196"/>
      <point x="414" y="187"/>
      <point x="361" y="187" type="curve" smooth="yes"/>
      <point x="351" y="187" type="line" smooth="yes"/>
      <point x="299" y="187"/>
      <point x="287" y="196"/>
      <point x="287" y="250" type="curve" smooth="yes"/>
      <point x="287" y="393" type="line" smooth="yes"/>
      <point x="287" y="445"/>
      <point x="299" y="454"/>
      <point x="351" y="454" type="curve" smooth="yes"/>
      <point x="361" y="454" type="line" smooth="yes"/>
      <point x="414" y="454"/>
      <point x="427" y="445"/>
      <point x="427" y="393" type="curve" smooth="yes"/>
      <point x="427" y="378" type="line" smooth="yes"/>
      <point x="427" y="369"/>
      <point x="431" y="366"/>
      <point x="439" y="366" type="curve" smooth="yes"/>
      <point x="480" y="366" type="line" smooth="yes"/>
      <point x="488" y="366"/>
      <point x="492" y="369"/>
      <point x="492" y="378" type="curve" smooth="yes"/>
    </contour>
  </outline>
</glyph>
<glyph name="ordfeminine" format="1">
  <advance width="369"/>
  <unicode hex="00AA"/>
  <outline>
    <contour>
      <point x="246" y="460" type="line"/>
      <point x="246" y="421"/>
      <point x="229" y="395"/>
      <point x="185" y="395" type="curve" smooth="yes"/>
      <point x="175" y="395" type="line" smooth="yes"/>
      <point x="135" y="395"/>
      <point x="121" y="415"/>
      <point x="121" y="454" type="curve" smooth="yes"/>
      <point x="121" y="520" type="line" smooth="yes"/>
      <point x="121" y="559"/>
      <point x="138" y="579"/>
      <point x="178" y="579" type="curve" smooth="yes"/>
      <point x="238" y="579" type="line" smooth="yes"/>
      <point x="244" y="579"/>
      <point x="246" y="577"/>
      <point x="246" y="572" type="curve" smooth="yes"/>
    </contour>
    <contour>
      <point x="171" y="333" type="line"/>
      <point x="203" y="333"/>
      <point x="230" y="345"/>
      <point x="241" y="371" type="curve"/>
      <point x="246" y="371" type="line"/>
      <point x="246" y="345" type="line" smooth="yes"/>
      <point x="246" y="336"/>
      <point x="250" y="333"/>
      <point x="258" y="333" type="curve" smooth="yes"/>
      <point x="306" y="333" type="line" smooth="yes"/>
      <point x="314" y="333"/>
      <point x="318" y="336"/>
      <point x="318" y="345" type="curve" smooth="yes"/>
      <point x="318" y="631" type="line" smooth="yes"/>
      <point x="318" y="640"/>
      <point x="314" y="643"/>
      <point x="306" y="643" type="curve" smooth="yes"/>
      <point x="169" y="643" type="line" smooth="yes"/>
      <point x="98" y="643"/>
      <point x="49" y="601"/>
      <point x="49" y="530" type="curve" smooth="yes"/>
      <point x="49" y="446" type="line" smooth="yes"/>
      <point x="49" y="374"/>
      <point x="95" y="333"/>
      <point x="166" y="333" type="curve" smooth="yes"/>
    </contour>
  </outline>
</glyph>
<glyph name="guillemotleft" format="1">
  <advance width="445"/>
  <unicode hex="00AB"/>
  <outline>
    <contour>
      <point x="216" y="349" type="line"/>
      <point x="229" y="358"/>
      <point x="231" y="363"/>
      <point x="231" y="374" type="curve" smooth="yes"/>
      <point x="231" y="417" type="line" smooth="yes"/>
      <point x="231" y="429"/>
      <point x="224" y="434"/>
      <point x="213" y="425" type="curve" smooth="yes"/>
      <point x="69" y="303" type="line" smooth="yes"/>
      <point x="58" y="295"/>
      <point x="53" y="290"/>
      <point x="53" y="273" type="curve" smooth="yes"/>
      <point x="53" y="240" type="line" smooth="yes"/>
      <point x="53" y="223"/>
      <point x="57" y="218"/>
      <point x="69" y="209" type="curve" smooth="yes"/>
      <point x="213" y="87" type="line" smooth="yes"/>
      <point x="224" y="78"/>
      <point x="231" y="83"/>
      <point x="231" y="95" type="curve" smooth="yes"/>
      <point x="231" y="139" type="line" smooth="yes"/>
      <point x="231" y="150"/>
      <point x="229" y="154"/>
      <point x="216" y="164" type="curve" smooth="yes"/>
      <point x="107" y="256" type="line"/>
    </contour>
    <contour>
      <point x="377" y="349" type="line"/>
      <point x="390" y="358"/>
      <point x="393" y="363"/>
      <point x="393" y="374" type="curve" smooth="yes"/>
      <point x="393" y="417" type="line" smooth="yes"/>
      <point x="393" y="429"/>
      <point x="385" y="434"/>
      <point x="375" y="425" type="curve" smooth="yes"/>
      <point x="231" y="303" type="line" smooth="yes"/>
      <point x="219" y="295"/>
      <point x="214" y="290"/>
      <point x="214" y="273" type="curve" smooth="yes"/>
      <point x="214" y="240" type="line" smooth="yes"/>
      <point x="214" y="223"/>
      <point x="219" y="218"/>
      <point x="231" y="209" type="curve" smooth="yes"/>
      <point x="375" y="87" type="line" smooth="yes"/>
      <point x="385" y="78"/>
      <point x="393" y="83"/>
      <point x="393" y="95" type="curve" smooth="yes"/>
      <point x="393" y="139" type="line" smooth="yes"/>
      <point x="393" y="150"/>
      <point x="390" y="154"/>
      <point x="377" y="164" type="curve" smooth="yes"/>
      <point x="268" y="256" type="line"/>
    </contour>
  </outline>
</glyph>
<glyph name="logicalnot" format="1">
  <advance width="524"/>
  <unicode hex="00AC"/>
  <outline>
    <contour>
      <point x="158" y="309" type="line"/>
      <point x="158" y="301"/>
      <point x="160" y="296"/>
      <point x="170" y="296" type="curve" smooth="yes"/>
      <point x="454" y="296" type="line" smooth="yes"/>
      <point x="463" y="296"/>
      <point x="466" y="301"/>
      <point x="466" y="309" type="curve" smooth="yes"/>
      <point x="466" y="293" type="line" smooth="yes"/>
      <point x="466" y="302"/>
      <point x="463" y="306"/>
      <point x="454" y="306" type="curve" smooth="yes"/>
      <point x="170" y="306" type="line" smooth="yes"/>
      <point x="160" y="306"/>
      <point x="158" y="302"/>
      <point x="158" y="293" type="curve" smooth="yes"/>
    </contour>
    <contour>
      <point x="369" y="334" type="line"/>
      <point x="367" y="347"/>
      <point x="361" y="350"/>
      <point x="349" y="349" type="curve" smooth="yes"/>
      <point x="308" y="345" type="line" smooth="yes"/>
      <point x="296" y="344"/>
      <point x="292" y="339"/>
      <point x="294" y="326" type="curve" smooth="yes"/>
      <point x="397" y="194" type="line" smooth="yes"/>
      <point x="399" y="182"/>
      <point x="405" y="178"/>
      <point x="417" y="180" type="curve" smooth="yes"/>
      <point x="458" y="184" type="line" smooth="yes"/>
      <point x="470" y="185"/>
      <point x="474" y="190"/>
      <point x="472" y="203" type="curve" smooth="yes"/>
    </contour>
  </outline>
</glyph>
<glyph name="registered" format="1">
  <advance width="462"/>
  <unicode hex="00AE"/>
  <outline>
    <contour>
      <point x="297" y="380" type="line"/>
      <point x="359" y="380"/>
      <point x="397" y="418"/>
      <point x="397" y="478" type="curve" smooth="yes"/>
      <point x="397" y="621" type="line" smooth="yes"/>
      <point x="397" y="681"/>
      <point x="359" y="718"/>
      <point x="297" y="718" type="curve" smooth="yes"/>
      <point x="165" y="718" type="line" smooth="yes"/>
      <point x="103" y="718"/>
      <point x="64" y="681"/>
      <point x="64" y="621" type="curve" smooth="yes"/>
      <point x="64" y="478" type="line" smooth="yes"/>
      <point x="64" y="418"/>
      <point x="103" y="380"/>
      <point x="165" y="380" type="curve" smooth="yes"/>
    </contour>
    <contour>
      <point x="173" y="421" type="line"/>
      <point x="128" y="421"/>
      <point x="108" y="442"/>
      <point x="108" y="487" type="curve" smooth="yes"/>
      <point x="108" y="612" type="line" smooth="yes"/>
      <point x="108" y="657"/>
      <point x="128" y="678"/>
      <point x="173" y="678" type="curve" smooth="yes"/>
      <point x="288" y="678" type="line" smooth="yes"/>
      <point x="334" y="678"/>
      <point x="354" y="657"/>
      <point x="354" y="612" type="curve" smooth="yes"/>
      <point x="354" y="487" type="line" smooth="yes"/>
      <point x="354" y="442"/>
      <point x="334" y="421"/>
      <point x="288" y="421" type="curve" smooth="yes"/>
    </contour>
    <contour>
      <point x="171" y="470" type="line"/>
      <point x="171" y="458"/>
      <point x="174" y="455"/>
      <point x="187" y="455" type="curve" smooth="yes"/>
      <point x="194" y="455" type="line" smooth="yes"/>
      <point x="205" y="455"/>
      <point x="209" y="457"/>
      <point x="209" y="470" type="curve" smooth="yes"/>
      <point x="209" y="523" type="line"/>
      <point x="236" y="523" type="line"/>
      <point x="262" y="466" type="line" smooth="yes"/>
      <point x="266" y="457"/>
      <point x="269" y="455"/>
      <point x="278" y="455" type="curve" smooth="yes"/>
      <point x="288" y="455" type="line" smooth="yes"/>
      <point x="303" y="455"/>
      <point x="305" y="461"/>
      <point x="298" y="475" type="curve" smooth="yes"/>
      <point x="275" y="525" type="line"/>
      <point x="289" y="531"/>
      <point x="297" y="545"/>
      <point x="297" y="566" type="curve" smooth="yes"/>
      <point x="297" y="599" type="line" smooth="yes"/>
      <point x="297" y="630"/>
      <point x="278" y="645"/>
      <point x="247" y="645" type="curve" smooth="yes"/>
      <point x="187" y="645" type="line" smooth="yes"/>
      <point x="174" y="645"/>
      <point x="171" y="641"/>
      <point x="171" y="629" type="curve" smooth="yes"/>
    </contour>
    <contour>
      <point x="244" y="610" type="line"/>
      <point x="254" y="610"/>
      <point x="258" y="605"/>
      <point x="258" y="597" type="curve" smooth="yes"/>
      <point x="258" y="569" type="line" smooth="yes"/>
      <point x="258" y="559"/>
      <point x="254" y="555"/>
      <point x="244" y="555" type="curve" smooth="yes"/>
      <point x="209" y="555" type="line"/>
      <point x="209" y="610" type="line"/>
    </contour>
  </outline>
</glyph>
<glyph name="degree" format="1">
  <advance width="348"/>
  <unicode hex="00B0"/>
  <outline>
    <contour>
      <point x="180" y="551" type="curve"/>
      <point x="167" y="551" type="line"/>
      <point x="146" y="551"/>
      <point x="141" y="556"/>
      <point x="141" y="576" type="curve" smooth="yes"/>
      <point x="141" y="637" type="line" smooth="yes"/>
      <point x="141" y="658"/>
      <point x="146" y="663"/>
      <point x="167" y="663" type="curve" smooth="yes"/>
      <point x="180" y="663" type="line"/>
      <point x="201" y="663"/>
      <point x="206" y="658"/>
      <point x="206" y="637" type="curve" smooth="yes"/>
      <point x="206" y="576" type="line" smooth="yes"/>
      <point x="206" y="556"/>
      <point x="201" y="551"/>
    </contour>
    <contour>
      <point x="201" y="510" type="line"/>
      <point x="231" y="510"/>
      <point x="251" y="528"/>
      <point x="251" y="559" type="curve" smooth="yes"/>
      <point x="251" y="656" type="line" smooth="yes"/>
      <point x="251" y="686"/>
      <point x="231" y="703"/>
      <point x="201" y="703" type="curve" smooth="yes"/>
      <point x="146" y="703" type="line" smooth="yes"/>
      <point x="115" y="703"/>
      <point x="97" y="686"/>
      <point x="97" y="656" type="curve" smooth="yes"/>
      <point x="97" y="559" type="line" smooth="yes"/>
      <point x="97" y="528"/>
      <point x="115" y="510"/>
      <point x="146" y="510" type="curve" smooth="yes"/>
    </contour>
  </outline>
</glyph>
<glyph name="plusminus" format="1">
  <advance width="549"/>
  <unicode hex="00B1"/>
  <outline>
    <contour>
      <point x="317" y="506" type="line"/>
      <point x="317" y="521"/>
      <point x="311" y="526"/>
      <point x="297" y="526" type="curve" smooth="yes"/>
      <point x="252" y="526" type="line" smooth="yes"/>
      <point x="238" y="526"/>
      <point x="233" y="521"/>
      <point x="233" y="506" type="curve" smooth="yes"/>
      <point x="233" y="259" type="line" smooth="yes"/>
      <point x="233" y="245"/>
      <point x="238" y="240"/>
      <point x="252" y="240" type="curve" smooth="yes"/>
      <point x="297" y="240" type="line" smooth="yes"/>
      <point x="311" y="240"/>
      <point x="317" y="245"/>
      <point x="317" y="259" type="curve" smooth="yes"/>
    </contour>
    <contour>
      <point x="89" y="423" type="line"/>
      <point x="74" y="423"/>
      <point x="70" y="417"/>
      <point x="70" y="404" type="curve" smooth="yes"/>
      <point x="70" y="363" type="line" smooth="yes"/>
      <point x="70" y="350"/>
      <point x="74" y="344"/>
      <point x="89" y="344" type="curve" smooth="yes"/>
      <point x="460" y="344" type="line" smooth="yes"/>
      <point x="475" y="344"/>
      <point x="479" y="350"/>
      <point x="479" y="363" type="curve" smooth="yes"/>
      <point x="479" y="404" type="line" smooth="yes"/>
      <point x="479" y="417"/>
      <point x="475" y="423"/>
      <point x="460" y="423" type="curve" smooth="yes"/>
    </contour>
    <contour>
      <point x="89" y="195" type="line"/>
      <point x="74" y="195"/>
      <point x="70" y="189"/>
      <point x="70" y="177" type="curve" smooth="yes"/>
      <point x="70" y="135" type="line" smooth="yes"/>
      <point x="70" y="123"/>
      <point x="74" y="116"/>
      <point x="89" y="116" type="curve" smooth="yes"/>
      <point x="460" y="116" type="line" smooth="yes"/>
      <point x="475" y="116"/>
      <point x="479" y="123"/>
      <point x="479" y="135" type="curve" smooth="yes"/>
      <point x="479" y="177" type="line" smooth="yes"/>
      <point x="479" y="189"/>
      <point x="475" y="195"/>
      <point x="460" y="195" type="curve" smooth="yes"/>
    </contour>
  </outline>
</glyph>
